<ttFont>
<head>
    <!-- Most of this table will be recalculated by the compiler -->
    <tableVersion value="1.0"/>
    <fontRevision value="2.20299"/>
    <checkSumAdjustment value="0x6f2799eb"/>
    <magicNumber value="0x5f0f3cf5"/>
    <flags value="00000000 00011011"/>
    <unitsPerEm value="1000"/>
    <created value="Mon Dec 12 17:21:46 2016"/>
    <modified value="Mon Dec 12 11:51:52 2016"/>
    <xMin value="-206"/>
    <yMin value="-377"/>
    <xMax value="2336"/>
    <yMax value="935"/>
    <macStyle value="00000000 00000000"/>
    <lowestRecPPEM value="9"/>
    <fontDirectionHint value="2"/>
    <indexToLocFormat value="0"/>
    <glyphDataFormat value="0"/>
  </head>
    <TTGlyph name=".notdef" xMin="0" yMin="0" xMax="518" yMax="698">
      <contour>
        <pt x="0" y="698" on="1"/>
        <pt x="518" y="698" on="1"/>
        <pt x="518" y="0" on="1"/>
        <pt x="0" y="0" on="1"/>
      </contour>
      <contour>
        <pt x="406" y="635" on="1"/>
        <pt x="113" y="635" on="1"/>
        <pt x="259" y="417" on="1"/>
      </contour>
      <contour>
        <pt x="440" y="145" on="1"/>
        <pt x="440" y="553" on="1"/>
        <pt x="304" y="349" on="1"/>
      </contour>
      <contour>
        <pt x="406" y="63" on="1"/>
        <pt x="259" y="282" on="1"/>
        <pt x="113" y="63" on="1"/>
      </contour>
      <contour>
        <pt x="78" y="145" on="1"/>
        <pt x="215" y="349" on="1"/>
        <pt x="78" y="553" on="1"/>
      </contour>
    </TTGlyph>
    <TTGlyph name="A" xMin="12" yMin="0" xMax="622" yMax="630">
      <contour>
        <pt x="235" y="246" on="1"/>
        <pt x="395" y="246" on="1"/>
        <pt x="366" y="330" on="1"/>
        <pt x="352" y="369" on="0"/>
        <pt x="328" y="448" on="0"/>
        <pt x="317" y="488" on="1"/>
        <pt x="315" y="488" on="1"/>
        <pt x="304" y="450" on="0"/>
        <pt x="278" y="371" on="0"/>
        <pt x="264" y="330" on="1"/>
      </contour>
      <contour>
        <pt x="247" y="630" on="1"/>
        <pt x="389" y="630" on="1"/>
        <pt x="622" y="0" on="1"/>
        <pt x="477" y="0" on="1"/>
        <pt x="428" y="145" on="1"/>
        <pt x="204" y="145" on="1"/>
        <pt x="155" y="0" on="1"/>
        <pt x="12" y="0" on="1"/>
      </contour>
    </TTGlyph>
    <TTGlyph name="AE" xMin="12" yMin="0" xMax="796" yMax="630">
      <contour>
        <pt x="329" y="630" on="1"/>
        <pt x="793" y="630" on="1"/>
        <pt x="793" y="524" on="1"/>
        <pt x="547" y="524" on="1"/>
        <pt x="547" y="380" on="1"/>
        <pt x="767" y="380" on="1"/>
        <pt x="767" y="275" on="1"/>
        <pt x="547" y="275" on="1"/>
        <pt x="547" y="106" on="1"/>
        <pt x="796" y="106" on="1"/>
        <pt x="796" y="0" on="1"/>
        <pt x="411" y="0" on="1"/>
        <pt x="411" y="149" on="1"/>
        <pt x="239" y="149" on="1"/>
        <pt x="166" y="0" on="1"/>
        <pt x="12" y="0" on="1"/>
      </contour>
      <contour>
        <pt x="411" y="532" on="1"/>
        <pt x="282" y="252" on="1"/>
        <pt x="411" y="252" on="1"/>
      </contour>
    </TTGlyph>
    <TTGlyph name="AEacute" xMin="12" yMin="0" xMax="796" yMax="819">
      <contour>
        <pt x="329" y="630" on="1"/>
        <pt x="793" y="630" on="1"/>
        <pt x="793" y="524" on="1"/>
        <pt x="547" y="524" on="1"/>
        <pt x="547" y="380" on="1"/>
        <pt x="767" y="380" on="1"/>
        <pt x="767" y="275" on="1"/>
        <pt x="547" y="275" on="1"/>
        <pt x="547" y="106" on="1"/>
        <pt x="796" y="106" on="1"/>
        <pt x="796" y="0" on="1"/>
        <pt x="411" y="0" on="1"/>
        <pt x="411" y="149" on="1"/>
        <pt x="239" y="149" on="1"/>
        <pt x="166" y="0" on="1"/>
        <pt x="12" y="0" on="1"/>
      </contour>
      <contour>
        <pt x="411" y="532" on="1"/>
        <pt x="282" y="252" on="1"/>
        <pt x="411" y="252" on="1"/>
      </contour>
      <contour>
        <pt x="462" y="695" on="1"/>
        <pt x="353" y="695" on="1"/>
        <pt x="433" y="819" on="1"/>
        <pt x="577" y="819" on="1"/>
      </contour>
    </TTGlyph>
    <TTGlyph name="Aacute" xMin="12" yMin="0" xMax="622" yMax="819">
      <contour>
        <pt x="371" y="695" on="1"/>
        <pt x="262" y="695" on="1"/>
        <pt x="342" y="819" on="1"/>
        <pt x="486" y="819" on="1"/>
      </contour>
      <contour>
        <pt x="235" y="246" on="1"/>
        <pt x="395" y="246" on="1"/>
        <pt x="366" y="330" on="1"/>
        <pt x="352" y="369" on="0"/>
        <pt x="328" y="448" on="0"/>
        <pt x="317" y="488" on="1"/>
        <pt x="315" y="488" on="1"/>
        <pt x="304" y="450" on="0"/>
        <pt x="278" y="371" on="0"/>
        <pt x="264" y="330" on="1"/>
      </contour>
      <contour>
        <pt x="247" y="630" on="1"/>
        <pt x="389" y="630" on="1"/>
        <pt x="622" y="0" on="1"/>
        <pt x="477" y="0" on="1"/>
        <pt x="428" y="145" on="1"/>
        <pt x="204" y="145" on="1"/>
        <pt x="155" y="0" on="1"/>
        <pt x="12" y="0" on="1"/>
      </contour>
    </TTGlyph>
    <TTGlyph name="Aaytam.tm" xMin="13" yMin="-20" xMax="652" yMax="552">
      <contour>
        <pt x="334" y="552" on="1"/>
        <pt x="365" y="552" on="0"/>
        <pt x="418" y="532" on="0"/>
        <pt x="457" y="494" on="0"/>
        <pt x="479" y="442" on="0"/>
        <pt x="479" y="411" on="1"/>
        <pt x="479" y="377" on="0"/>
        <pt x="454" y="325" on="0"/>
        <pt x="412" y="291" on="0"/>
        <pt x="359" y="273" on="0"/>
        <pt x="331" y="273" on="1"/>
        <pt x="303" y="273" on="0"/>
        <pt x="250" y="290" on="0"/>
        <pt x="208" y="325" on="0"/>
        <pt x="183" y="376" on="0"/>
        <pt x="183" y="411" on="1"/>
        <pt x="183" y="442" on="0"/>
        <pt x="205" y="494" on="0"/>
        <pt x="245" y="532" on="0"/>
        <pt x="300" y="552" on="0"/>
      </contour>
      <contour>
        <pt x="330" y="466" on="1"/>
        <pt x="307" y="466" on="0"/>
        <pt x="283" y="437" on="0"/>
        <pt x="283" y="411" on="1"/>
        <pt x="283" y="385" on="0"/>
        <pt x="310" y="357" on="0"/>
        <pt x="333" y="357" on="1"/>
        <pt x="354" y="357" on="0"/>
        <pt x="381" y="385" on="0"/>
        <pt x="381" y="411" on="1"/>
        <pt x="381" y="439" on="0"/>
        <pt x="352" y="466" on="0"/>
      </contour>
      <contour>
        <pt x="163" y="261" on="1"/>
        <pt x="194" y="261" on="0"/>
        <pt x="247" y="240" on="0"/>
        <pt x="286" y="203" on="0"/>
        <pt x="308" y="151" on="0"/>
        <pt x="308" y="120" on="1"/>
        <pt x="308" y="89" on="0"/>
        <pt x="285" y="37" on="0"/>
        <pt x="245" y="0" on="0"/>
        <pt x="191" y="-20" on="0"/>
        <pt x="159" y="-20" on="1"/>
        <pt x="127" y="-20" on="0"/>
        <pt x="74" y="0" on="0"/>
        <pt x="35" y="37" on="0"/>
        <pt x="13" y="89" on="0"/>
        <pt x="13" y="120" on="1"/>
        <pt x="13" y="151" on="0"/>
        <pt x="35" y="203" on="0"/>
        <pt x="74" y="240" on="0"/>
        <pt x="130" y="261" on="0"/>
      </contour>
      <contour>
        <pt x="160" y="175" on="1"/>
        <pt x="138" y="175" on="0"/>
        <pt x="112" y="146" on="0"/>
        <pt x="112" y="120" on="1"/>
        <pt x="112" y="94" on="0"/>
        <pt x="140" y="66" on="0"/>
        <pt x="162" y="66" on="1"/>
        <pt x="183" y="66" on="0"/>
        <pt x="210" y="96" on="0"/>
        <pt x="210" y="120" on="1"/>
        <pt x="210" y="148" on="0"/>
        <pt x="182" y="175" on="0"/>
      </contour>
      <contour>
        <pt x="506" y="262" on="1"/>
        <pt x="537" y="262" on="0"/>
        <pt x="591" y="241" on="0"/>
        <pt x="630" y="204" on="0"/>
        <pt x="652" y="152" on="0"/>
        <pt x="652" y="121" on="1"/>
        <pt x="652" y="90" on="0"/>
        <pt x="629" y="38" on="0"/>
        <pt x="589" y="1" on="0"/>
        <pt x="534" y="-20" on="0"/>
        <pt x="502" y="-20" on="1"/>
        <pt x="470" y="-20" on="0"/>
        <pt x="416" y="1" on="0"/>
        <pt x="377" y="38" on="0"/>
        <pt x="355" y="90" on="0"/>
        <pt x="355" y="121" on="1"/>
        <pt x="355" y="184" on="0"/>
        <pt x="438" y="262" on="0"/>
      </contour>
      <contour>
        <pt x="503" y="176" on="1"/>
        <pt x="481" y="176" on="0"/>
        <pt x="455" y="147" on="0"/>
        <pt x="455" y="121" on="1"/>
        <pt x="455" y="94" on="0"/>
        <pt x="483" y="66" on="0"/>
        <pt x="505" y="66" on="1"/>
        <pt x="526" y="66" on="0"/>
        <pt x="553" y="96" on="0"/>
        <pt x="553" y="121" on="1"/>
        <pt x="553" y="149" on="0"/>
        <pt x="524" y="176" on="0"/>
      </contour>
    </TTGlyph>
    <TTGlyph name="Abreve" xMin="12" yMin="0" xMax="622" yMax="819">
      <contour>
        <pt x="258" y="819" on="1"/>
        <pt x="260" y="794" on="0"/>
        <pt x="285" y="764" on="0"/>
        <pt x="316" y="764" on="1"/>
        <pt x="369" y="764" on="0"/>
        <pt x="372" y="819" on="1"/>
        <pt x="449" y="819" on="1"/>
        <pt x="449" y="759" on="0"/>
        <pt x="380" y="691" on="0"/>
        <pt x="315" y="691" on="1"/>
        <pt x="279" y="691" on="0"/>
        <pt x="228" y="712" on="0"/>
        <pt x="195" y="747" on="0"/>
        <pt x="180" y="793" on="0"/>
        <pt x="180" y="819" on="1"/>
      </contour>
      <contour>
        <pt x="235" y="246" on="1"/>
        <pt x="395" y="246" on="1"/>
        <pt x="366" y="330" on="1"/>
        <pt x="352" y="369" on="0"/>
        <pt x="328" y="448" on="0"/>
        <pt x="317" y="488" on="1"/>
        <pt x="315" y="488" on="1"/>
        <pt x="304" y="450" on="0"/>
        <pt x="278" y="371" on="0"/>
        <pt x="264" y="330" on="1"/>
      </contour>
      <contour>
        <pt x="247" y="630" on="1"/>
        <pt x="389" y="630" on="1"/>
        <pt x="622" y="0" on="1"/>
        <pt x="477" y="0" on="1"/>
        <pt x="428" y="145" on="1"/>
        <pt x="204" y="145" on="1"/>
        <pt x="155" y="0" on="1"/>
        <pt x="12" y="0" on="1"/>
      </contour>
    </TTGlyph>
    <TTGlyph name="Acircumflex" xMin="12" yMin="0" xMax="622" yMax="821">
      <contour>
        <pt x="266" y="821" on="1"/>
        <pt x="365" y="821" on="1"/>
        <pt x="483" y="695" on="1"/>
        <pt x="380" y="695" on="1"/>
        <pt x="315" y="764" on="1"/>
        <pt x="250" y="695" on="1"/>
        <pt x="152" y="695" on="1"/>
      </contour>
      <contour>
        <pt x="235" y="246" on="1"/>
        <pt x="395" y="246" on="1"/>
        <pt x="366" y="330" on="1"/>
        <pt x="352" y="369" on="0"/>
        <pt x="328" y="448" on="0"/>
        <pt x="317" y="488" on="1"/>
        <pt x="315" y="488" on="1"/>
        <pt x="304" y="450" on="0"/>
        <pt x="278" y="371" on="0"/>
        <pt x="264" y="330" on="1"/>
      </contour>
      <contour>
        <pt x="247" y="630" on="1"/>
        <pt x="389" y="630" on="1"/>
        <pt x="622" y="0" on="1"/>
        <pt x="477" y="0" on="1"/>
        <pt x="428" y="145" on="1"/>
        <pt x="204" y="145" on="1"/>
        <pt x="155" y="0" on="1"/>
        <pt x="12" y="0" on="1"/>
      </contour>
    </TTGlyph>
    <TTGlyph name="Adieresis" xMin="12" yMin="0" xMax="622" yMax="813">
      <contour>
        <pt x="155" y="751" on="1"/>
        <pt x="155" y="777" on="0"/>
        <pt x="192" y="813" on="0"/>
        <pt x="219" y="813" on="1"/>
        <pt x="245" y="813" on="0"/>
        <pt x="281" y="777" on="0"/>
        <pt x="281" y="751" on="1"/>
        <pt x="281" y="724" on="0"/>
        <pt x="245" y="687" on="0"/>
        <pt x="219" y="687" on="1"/>
        <pt x="192" y="687" on="0"/>
        <pt x="155" y="724" on="0"/>
      </contour>
      <contour>
        <pt x="350" y="751" on="1"/>
        <pt x="350" y="777" on="0"/>
        <pt x="388" y="813" on="0"/>
        <pt x="414" y="813" on="1"/>
        <pt x="440" y="813" on="0"/>
        <pt x="477" y="777" on="0"/>
        <pt x="477" y="751" on="1"/>
        <pt x="477" y="724" on="0"/>
        <pt x="440" y="687" on="0"/>
        <pt x="414" y="687" on="1"/>
        <pt x="388" y="687" on="0"/>
        <pt x="350" y="724" on="0"/>
      </contour>
      <contour>
        <pt x="235" y="246" on="1"/>
        <pt x="395" y="246" on="1"/>
        <pt x="366" y="330" on="1"/>
        <pt x="352" y="369" on="0"/>
        <pt x="328" y="448" on="0"/>
        <pt x="317" y="488" on="1"/>
        <pt x="315" y="488" on="1"/>
        <pt x="304" y="450" on="0"/>
        <pt x="278" y="371" on="0"/>
        <pt x="264" y="330" on="1"/>
      </contour>
      <contour>
        <pt x="247" y="630" on="1"/>
        <pt x="389" y="630" on="1"/>
        <pt x="622" y="0" on="1"/>
        <pt x="477" y="0" on="1"/>
        <pt x="428" y="145" on="1"/>
        <pt x="204" y="145" on="1"/>
        <pt x="155" y="0" on="1"/>
        <pt x="12" y="0" on="1"/>
      </contour>
    </TTGlyph>
    <TTGlyph name="Agrave" xMin="12" yMin="0" xMax="622" yMax="819">
      <contour>
        <pt x="150" y="819" on="1"/>
        <pt x="294" y="819" on="1"/>
        <pt x="374" y="695" on="1"/>
        <pt x="265" y="695" on="1"/>
      </contour>
      <contour>
        <pt x="235" y="246" on="1"/>
        <pt x="395" y="246" on="1"/>
        <pt x="366" y="330" on="1"/>
        <pt x="352" y="369" on="0"/>
        <pt x="328" y="448" on="0"/>
        <pt x="317" y="488" on="1"/>
        <pt x="315" y="488" on="1"/>
        <pt x="304" y="450" on="0"/>
        <pt x="278" y="371" on="0"/>
        <pt x="264" y="330" on="1"/>
      </contour>
      <contour>
        <pt x="247" y="630" on="1"/>
        <pt x="389" y="630" on="1"/>
        <pt x="622" y="0" on="1"/>
        <pt x="477" y="0" on="1"/>
        <pt x="428" y="145" on="1"/>
        <pt x="204" y="145" on="1"/>
        <pt x="155" y="0" on="1"/>
        <pt x="12" y="0" on="1"/>
      </contour>
    </TTGlyph>
    <TTGlyph name="Amacron" xMin="12" yMin="0" xMax="622" yMax="772">
      <contour>
        <pt x="444" y="772" on="1"/>
        <pt x="444" y="695" on="1"/>
        <pt x="187" y="695" on="1"/>
        <pt x="187" y="772" on="1"/>
      </contour>
      <contour>
        <pt x="235" y="246" on="1"/>
        <pt x="395" y="246" on="1"/>
        <pt x="366" y="330" on="1"/>
        <pt x="352" y="369" on="0"/>
        <pt x="328" y="448" on="0"/>
        <pt x="317" y="488" on="1"/>
        <pt x="315" y="488" on="1"/>
        <pt x="304" y="450" on="0"/>
        <pt x="278" y="371" on="0"/>
        <pt x="264" y="330" on="1"/>
      </contour>
      <contour>
        <pt x="247" y="630" on="1"/>
        <pt x="389" y="630" on="1"/>
        <pt x="622" y="0" on="1"/>
        <pt x="477" y="0" on="1"/>
        <pt x="428" y="145" on="1"/>
        <pt x="204" y="145" on="1"/>
        <pt x="155" y="0" on="1"/>
        <pt x="12" y="0" on="1"/>
      </contour>
    </TTGlyph>
    <TTGlyph name="Anusvara.tm" xMin="2" yMin="521" xMax="298" yMax="801">
      <contour>
        <pt x="153" y="801" on="1"/>
        <pt x="184" y="801" on="0"/>
        <pt x="237" y="781" on="0"/>
        <pt x="276" y="743" on="0"/>
        <pt x="298" y="691" on="0"/>
        <pt x="298" y="660" on="1"/>
        <pt x="298" y="625" on="0"/>
        <pt x="273" y="573" on="0"/>
        <pt x="231" y="539" on="0"/>
        <pt x="178" y="521" on="0"/>
        <pt x="150" y="521" on="1"/>
        <pt x="122" y="521" on="0"/>
        <pt x="69" y="538" on="0"/>
        <pt x="27" y="573" on="0"/>
        <pt x="2" y="625" on="0"/>
        <pt x="2" y="660" on="1"/>
        <pt x="2" y="691" on="0"/>
        <pt x="24" y="743" on="0"/>
        <pt x="64" y="781" on="0"/>
        <pt x="119" y="801" on="0"/>
      </contour>
      <contour>
        <pt x="149" y="714" on="1"/>
        <pt x="102" y="714" on="0"/>
        <pt x="102" y="659" on="1"/>
        <pt x="102" y="633" on="0"/>
        <pt x="129" y="605" on="0"/>
        <pt x="152" y="605" on="1"/>
        <pt x="173" y="605" on="0"/>
        <pt x="200" y="634" on="0"/>
        <pt x="200" y="659" on="1"/>
        <pt x="200" y="687" on="0"/>
        <pt x="172" y="714" on="0"/>
      </contour>
    </TTGlyph>
    <TTGlyph name="Aogonek" xMin="12" yMin="-206" xMax="622" yMax="630">
      <contour>
        <pt x="247" y="630" on="1"/>
        <pt x="389" y="630" on="1"/>
        <pt x="622" y="0" on="1"/>
        <pt x="571" y="0" on="1"/>
        <pt x="545" y="-18" on="0"/>
        <pt x="516" y="-58" on="0"/>
        <pt x="516" y="-80" on="1"/>
        <pt x="516" y="-100" on="0"/>
        <pt x="540" y="-124" on="0"/>
        <pt x="561" y="-124" on="1"/>
        <pt x="574" y="-124" on="0"/>
        <pt x="594" y="-119" on="0"/>
        <pt x="603" y="-116" on="1"/>
        <pt x="621" y="-184" on="1"/>
        <pt x="586" y="-206" on="0"/>
        <pt x="536" y="-206" on="1"/>
        <pt x="490" y="-206" on="0"/>
        <pt x="429" y="-152" on="0"/>
        <pt x="429" y="-105" on="1"/>
        <pt x="429" y="-67" on="0"/>
        <pt x="460" y="-17" on="0"/>
        <pt x="477" y="0" on="1"/>
        <pt x="428" y="145" on="1"/>
        <pt x="204" y="145" on="1"/>
        <pt x="155" y="0" on="1"/>
        <pt x="12" y="0" on="1"/>
      </contour>
      <contour>
        <pt x="235" y="246" on="1"/>
        <pt x="395" y="246" on="1"/>
        <pt x="366" y="330" on="1"/>
        <pt x="352" y="369" on="0"/>
        <pt x="328" y="448" on="0"/>
        <pt x="317" y="488" on="1"/>
        <pt x="315" y="488" on="1"/>
        <pt x="304" y="450" on="0"/>
        <pt x="278" y="371" on="0"/>
        <pt x="264" y="330" on="1"/>
      </contour>
    </TTGlyph>
    <TTGlyph name="Aring" xMin="12" yMin="0" xMax="622" yMax="853">
      <contour>
        <pt x="211" y="762" on="1"/>
        <pt x="211" y="807" on="0"/>
        <pt x="270" y="853" on="0"/>
        <pt x="315" y="853" on="1"/>
        <pt x="361" y="853" on="0"/>
        <pt x="420" y="808" on="0"/>
        <pt x="420" y="762" on="1"/>
        <pt x="420" y="716" on="0"/>
        <pt x="358" y="672" on="0"/>
        <pt x="315" y="672" on="1"/>
        <pt x="272" y="672" on="0"/>
        <pt x="211" y="718" on="0"/>
      </contour>
      <contour>
        <pt x="275" y="762" on="1"/>
        <pt x="275" y="741" on="0"/>
        <pt x="296" y="717" on="0"/>
        <pt x="315" y="717" on="1"/>
        <pt x="334" y="717" on="0"/>
        <pt x="356" y="741" on="0"/>
        <pt x="356" y="762" on="1"/>
        <pt x="356" y="784" on="0"/>
        <pt x="333" y="808" on="0"/>
        <pt x="315" y="808" on="1"/>
        <pt x="297" y="808" on="0"/>
        <pt x="275" y="784" on="0"/>
      </contour>
      <contour>
        <pt x="235" y="246" on="1"/>
        <pt x="395" y="246" on="1"/>
        <pt x="366" y="330" on="1"/>
        <pt x="352" y="369" on="0"/>
        <pt x="328" y="448" on="0"/>
        <pt x="317" y="488" on="1"/>
        <pt x="315" y="488" on="1"/>
        <pt x="304" y="450" on="0"/>
        <pt x="278" y="371" on="0"/>
        <pt x="264" y="330" on="1"/>
      </contour>
      <contour>
        <pt x="247" y="630" on="1"/>
        <pt x="389" y="630" on="1"/>
        <pt x="622" y="0" on="1"/>
        <pt x="477" y="0" on="1"/>
        <pt x="428" y="145" on="1"/>
        <pt x="204" y="145" on="1"/>
        <pt x="155" y="0" on="1"/>
        <pt x="12" y="0" on="1"/>
      </contour>
    </TTGlyph>
    <TTGlyph name="AsAboveSign.tm" xMin="29" yMin="-212" xMax="1794" yMax="738">
      <contour>
        <pt x="931" y="152" on="1"/>
        <pt x="931" y="173" on="0"/>
        <pt x="912" y="210" on="0"/>
        <pt x="880" y="245" on="0"/>
        <pt x="839" y="280" on="0"/>
        <pt x="817" y="300" on="1"/>
        <pt x="797" y="255" on="0"/>
        <pt x="797" y="190" on="1"/>
        <pt x="797" y="139" on="0"/>
        <pt x="839" y="86" on="0"/>
        <pt x="870" y="86" on="1"/>
        <pt x="898" y="86" on="0"/>
        <pt x="931" y="120" on="0"/>
      </contour>
      <contour>
        <pt x="369" y="178" on="1"/>
        <pt x="369" y="145" on="0"/>
        <pt x="410" y="91" on="0"/>
        <pt x="442" y="82" on="1"/>
        <pt x="471" y="90" on="0"/>
        <pt x="510" y="144" on="0"/>
        <pt x="510" y="176" on="1"/>
        <pt x="510" y="214" on="0"/>
        <pt x="468" y="254" on="0"/>
        <pt x="439" y="254" on="1"/>
        <pt x="408" y="254" on="0"/>
        <pt x="369" y="212" on="0"/>
      </contour>
      <contour>
        <pt x="1142" y="0" on="1"/>
        <pt x="1112" y="70" on="1"/>
        <pt x="1132" y="102" on="0"/>
        <pt x="1153" y="180" on="0"/>
        <pt x="1153" y="231" on="1"/>
        <pt x="1153" y="271" on="0"/>
        <pt x="1129" y="338" on="0"/>
        <pt x="1084" y="386" on="0"/>
        <pt x="1020" y="413" on="0"/>
        <pt x="979" y="413" on="1"/>
        <pt x="915" y="413" on="0"/>
        <pt x="877" y="381" on="1"/>
        <pt x="905" y="355" on="0"/>
        <pt x="965" y="309" on="0"/>
        <pt x="1015" y="256" on="0"/>
        <pt x="1047" y="193" on="0"/>
        <pt x="1047" y="150" on="1"/>
        <pt x="1047" y="113" on="0"/>
        <pt x="1020" y="54" on="0"/>
        <pt x="972" y="12" on="0"/>
        <pt x="906" y="-10" on="0"/>
        <pt x="867" y="-10" on="1"/>
        <pt x="828" y="-10" on="0"/>
        <pt x="761" y="16" on="0"/>
        <pt x="711" y="67" on="0"/>
        <pt x="683" y="141" on="0"/>
        <pt x="683" y="189" on="1"/>
        <pt x="683" y="249" on="0"/>
        <pt x="716" y="343" on="0"/>
        <pt x="739" y="374" on="1"/>
        <pt x="725" y="391" on="0"/>
        <pt x="694" y="437" on="0"/>
        <pt x="669" y="475" on="1"/>
        <pt x="650" y="503" on="0"/>
        <pt x="604" y="561" on="0"/>
        <pt x="544" y="609" on="0"/>
        <pt x="466" y="639" on="0"/>
        <pt x="415" y="639" on="1"/>
        <pt x="357" y="639" on="0"/>
        <pt x="261" y="597" on="0"/>
        <pt x="191" y="520" on="0"/>
        <pt x="152" y="413" on="0"/>
        <pt x="152" y="349" on="1"/>
        <pt x="152" y="292" on="0"/>
        <pt x="181" y="197" on="0"/>
        <pt x="232" y="125" on="0"/>
        <pt x="299" y="79" on="0"/>
        <pt x="337" y="72" on="1"/>
        <pt x="308" y="89" on="0"/>
        <pt x="266" y="151" on="0"/>
        <pt x="266" y="193" on="1"/>
        <pt x="266" y="224" on="0"/>
        <pt x="290" y="282" on="0"/>
        <pt x="336" y="325" on="0"/>
        <pt x="401" y="351" on="0"/>
        <pt x="442" y="351" on="1"/>
        <pt x="479" y="351" on="0"/>
        <pt x="545" y="326" on="0"/>
        <pt x="594" y="280" on="0"/>
        <pt x="623" y="215" on="0"/>
        <pt x="623" y="176" on="1"/>
        <pt x="623" y="133" on="0"/>
        <pt x="586" y="63" on="0"/>
        <pt x="521" y="13" on="0"/>
        <pt x="433" y="-14" on="0"/>
        <pt x="383" y="-14" on="1"/>
        <pt x="306" y="-14" on="0"/>
        <pt x="176" y="39" on="0"/>
        <pt x="82" y="135" on="0"/>
        <pt x="29" y="268" on="0"/>
        <pt x="29" y="349" on="1"/>
        <pt x="29" y="431" on="0"/>
        <pt x="83" y="573" on="0"/>
        <pt x="184" y="678" on="0"/>
        <pt x="328" y="738" on="0"/>
        <pt x="418" y="738" on="1"/>
        <pt x="491" y="738" on="0"/>
        <pt x="601" y="695" on="0"/>
        <pt x="683" y="631" on="0"/>
        <pt x="740" y="559" on="0"/>
        <pt x="760" y="529" on="1"/>
        <pt x="776" y="504" on="0"/>
        <pt x="797" y="469" on="0"/>
        <pt x="811" y="452" on="1"/>
        <pt x="843" y="478" on="0"/>
        <pt x="932" y="512" on="0"/>
        <pt x="985" y="512" on="1"/>
        <pt x="1046" y="512" on="0"/>
        <pt x="1153" y="473" on="0"/>
        <pt x="1232" y="403" on="0"/>
        <pt x="1277" y="302" on="0"/>
        <pt x="1277" y="241" on="1"/>
        <pt x="1277" y="193" on="0"/>
        <pt x="1259" y="120" on="0"/>
        <pt x="1248" y="94" on="1"/>
        <pt x="1433" y="94" on="1"/>
        <pt x="1489" y="215" on="1"/>
        <pt x="1450" y="218" on="0"/>
        <pt x="1389" y="242" on="0"/>
        <pt x="1347" y="281" on="0"/>
        <pt x="1324" y="333" on="0"/>
        <pt x="1324" y="362" on="1"/>
        <pt x="1324" y="393" on="0"/>
        <pt x="1348" y="447" on="0"/>
        <pt x="1390" y="487" on="0"/>
        <pt x="1450" y="509" on="0"/>
        <pt x="1486" y="509" on="1"/>
        <pt x="1523" y="509" on="0"/>
        <pt x="1583" y="487" on="0"/>
        <pt x="1626" y="449" on="0"/>
        <pt x="1649" y="397" on="0"/>
        <pt x="1649" y="367" on="1"/>
        <pt x="1649" y="351" on="0"/>
        <pt x="1641" y="318" on="0"/>
        <pt x="1634" y="301" on="1"/>
        <pt x="1704" y="297" on="0"/>
        <pt x="1794" y="225" on="0"/>
        <pt x="1794" y="156" on="1"/>
        <pt x="1794" y="86" on="0"/>
        <pt x="1689" y="0" on="0"/>
        <pt x="1595" y="0" on="1"/>
        <pt x="1506" y="0" on="1"/>
        <pt x="1410" y="-212" on="1"/>
        <pt x="1314" y="-179" on="1"/>
        <pt x="1395" y="0" on="1"/>
      </contour>
      <contour>
        <pt x="1601" y="218" on="1"/>
        <pt x="1545" y="93" on="1"/>
        <pt x="1594" y="93" on="1"/>
        <pt x="1635" y="93" on="0"/>
        <pt x="1676" y="130" on="0"/>
        <pt x="1676" y="160" on="1"/>
        <pt x="1676" y="189" on="0"/>
        <pt x="1639" y="218" on="0"/>
        <pt x="1607" y="218" on="1"/>
      </contour>
      <contour>
        <pt x="1434" y="364" on="1"/>
        <pt x="1434" y="332" on="0"/>
        <pt x="1483" y="300" on="0"/>
        <pt x="1515" y="300" on="1"/>
        <pt x="1521" y="300" on="1"/>
        <pt x="1529" y="315" on="0"/>
        <pt x="1539" y="345" on="0"/>
        <pt x="1539" y="360" on="1"/>
        <pt x="1539" y="383" on="0"/>
        <pt x="1510" y="415" on="0"/>
        <pt x="1485" y="415" on="1"/>
        <pt x="1462" y="415" on="0"/>
        <pt x="1434" y="388" on="0"/>
      </contour>
    </TTGlyph>
    <TTGlyph name="Asmall" xMin="12" yMin="0" xMax="503" yMax="477">
      <contour>
        <pt x="205" y="191" on="1"/>
        <pt x="308" y="191" on="1"/>
        <pt x="287" y="254" on="1"/>
        <pt x="279" y="277" on="0"/>
        <pt x="264" y="332" on="0"/>
        <pt x="259" y="353" on="1"/>
        <pt x="257" y="353" on="1"/>
        <pt x="252" y="332" on="0"/>
        <pt x="234" y="277" on="0"/>
        <pt x="226" y="254" on="1"/>
      </contour>
      <contour>
        <pt x="186" y="477" on="1"/>
        <pt x="329" y="477" on="1"/>
        <pt x="503" y="0" on="1"/>
        <pt x="369" y="0" on="1"/>
        <pt x="336" y="101" on="1"/>
        <pt x="177" y="101" on="1"/>
        <pt x="143" y="0" on="1"/>
        <pt x="12" y="0" on="1"/>
      </contour>
    </TTGlyph>
    <TTGlyph name="Atilde" xMin="12" yMin="0" xMax="622" yMax="816">
      <contour>
        <pt x="163" y="695" on="1"/>
        <pt x="163" y="744" on="0"/>
        <pt x="209" y="813" on="0"/>
        <pt x="253" y="813" on="1"/>
        <pt x="272" y="813" on="0"/>
        <pt x="302" y="802" on="0"/>
        <pt x="329" y="788" on="0"/>
        <pt x="354" y="777" on="0"/>
        <pt x="368" y="777" on="1"/>
        <pt x="384" y="777" on="0"/>
        <pt x="399" y="799" on="0"/>
        <pt x="401" y="816" on="1"/>
        <pt x="466" y="816" on="1"/>
        <pt x="466" y="765" on="0"/>
        <pt x="420" y="699" on="0"/>
        <pt x="379" y="699" on="1"/>
        <pt x="359" y="699" on="0"/>
        <pt x="325" y="710" on="0"/>
        <pt x="295" y="723" on="0"/>
        <pt x="270" y="734" on="0"/>
        <pt x="259" y="734" on="1"/>
        <pt x="242" y="734" on="0"/>
        <pt x="229" y="711" on="0"/>
        <pt x="228" y="695" on="1"/>
      </contour>
      <contour>
        <pt x="235" y="246" on="1"/>
        <pt x="395" y="246" on="1"/>
        <pt x="366" y="330" on="1"/>
        <pt x="352" y="369" on="0"/>
        <pt x="328" y="448" on="0"/>
        <pt x="317" y="488" on="1"/>
        <pt x="315" y="488" on="1"/>
        <pt x="304" y="450" on="0"/>
        <pt x="278" y="371" on="0"/>
        <pt x="264" y="330" on="1"/>
      </contour>
      <contour>
        <pt x="247" y="630" on="1"/>
        <pt x="389" y="630" on="1"/>
        <pt x="622" y="0" on="1"/>
        <pt x="477" y="0" on="1"/>
        <pt x="428" y="145" on="1"/>
        <pt x="204" y="145" on="1"/>
        <pt x="155" y="0" on="1"/>
        <pt x="12" y="0" on="1"/>
      </contour>
    </TTGlyph>
    <TTGlyph name="B" xMin="69" yMin="0" xMax="529" yMax="630">
      <contour>
        <pt x="294" y="630" on="1"/>
        <pt x="394" y="630" on="0"/>
        <pt x="510" y="544" on="0"/>
        <pt x="510" y="466" on="1"/>
        <pt x="510" y="437" on="0"/>
        <pt x="489" y="391" on="0"/>
        <pt x="456" y="358" on="0"/>
        <pt x="415" y="336" on="0"/>
        <pt x="394" y="331" on="1"/>
        <pt x="422" y="326" on="0"/>
        <pt x="471" y="303" on="0"/>
        <pt x="508" y="265" on="0"/>
        <pt x="529" y="212" on="0"/>
        <pt x="529" y="178" on="1"/>
        <pt x="529" y="139" on="0"/>
        <pt x="495" y="74" on="0"/>
        <pt x="432" y="26" on="0"/>
        <pt x="343" y="0" on="0"/>
        <pt x="289" y="0" on="1"/>
        <pt x="69" y="0" on="1"/>
        <pt x="69" y="630" on="1"/>
      </contour>
      <contour>
        <pt x="206" y="378" on="1"/>
        <pt x="271" y="378" on="1"/>
        <pt x="316" y="378" on="0"/>
        <pt x="369" y="417" on="0"/>
        <pt x="369" y="456" on="1"/>
        <pt x="369" y="491" on="0"/>
        <pt x="320" y="526" on="0"/>
        <pt x="274" y="526" on="1"/>
        <pt x="206" y="526" on="1"/>
      </contour>
      <contour>
        <pt x="206" y="104" on="1"/>
        <pt x="271" y="104" on="1"/>
        <pt x="322" y="104" on="0"/>
        <pt x="388" y="143" on="0"/>
        <pt x="388" y="191" on="1"/>
        <pt x="388" y="236" on="0"/>
        <pt x="318" y="275" on="0"/>
        <pt x="267" y="275" on="1"/>
        <pt x="206" y="275" on="1"/>
      </contour>
    </TTGlyph>
    <TTGlyph name="Bsmall" xMin="63" yMin="0" xMax="460" yMax="477">
      <contour>
        <pt x="269" y="477" on="1"/>
        <pt x="355" y="477" on="0"/>
        <pt x="439" y="409" on="0"/>
        <pt x="439" y="353" on="1"/>
        <pt x="439" y="315" on="0"/>
        <pt x="394" y="265" on="0"/>
        <pt x="357" y="253" on="1"/>
        <pt x="407" y="242" on="0"/>
        <pt x="460" y="183" on="0"/>
        <pt x="460" y="138" on="1"/>
        <pt x="460" y="79" on="0"/>
        <pt x="363" y="0" on="0"/>
        <pt x="268" y="0" on="1"/>
        <pt x="63" y="0" on="1"/>
        <pt x="63" y="477" on="1"/>
      </contour>
      <contour>
        <pt x="196" y="293" on="1"/>
        <pt x="242" y="293" on="1"/>
        <pt x="268" y="293" on="0"/>
        <pt x="304" y="313" on="0"/>
        <pt x="304" y="337" on="1"/>
        <pt x="304" y="357" on="0"/>
        <pt x="274" y="379" on="0"/>
        <pt x="240" y="379" on="1"/>
        <pt x="196" y="379" on="1"/>
      </contour>
      <contour>
        <pt x="196" y="98" on="1"/>
        <pt x="244" y="98" on="1"/>
        <pt x="284" y="98" on="0"/>
        <pt x="323" y="121" on="0"/>
        <pt x="323" y="149" on="1"/>
        <pt x="323" y="168" on="0"/>
        <pt x="292" y="197" on="0"/>
        <pt x="253" y="197" on="1"/>
        <pt x="196" y="197" on="1"/>
      </contour>
    </TTGlyph>
    <TTGlyph name="C" xMin="40" yMin="-11" xMax="542" yMax="641">
      <contour>
        <pt x="380" y="95" on="1"/>
        <pt x="426" y="95" on="0"/>
        <pt x="490" y="111" on="0"/>
        <pt x="513" y="125" on="1"/>
        <pt x="541" y="25" on="1"/>
        <pt x="517" y="11" on="0"/>
        <pt x="429" y="-11" on="0"/>
        <pt x="366" y="-11" on="1"/>
        <pt x="295" y="-11" on="0"/>
        <pt x="175" y="34" on="0"/>
        <pt x="88" y="119" on="0"/>
        <pt x="40" y="240" on="0"/>
        <pt x="40" y="316" on="1"/>
        <pt x="40" y="390" on="0"/>
        <pt x="87" y="510" on="0"/>
        <pt x="172" y="595" on="0"/>
        <pt x="294" y="641" on="0"/>
        <pt x="369" y="641" on="1"/>
        <pt x="433" y="641" on="0"/>
        <pt x="516" y="617" on="0"/>
        <pt x="542" y="603" on="1"/>
        <pt x="511" y="502" on="1"/>
        <pt x="485" y="516" on="0"/>
        <pt x="422" y="535" on="0"/>
        <pt x="383" y="535" on="1"/>
        <pt x="342" y="535" on="0"/>
        <pt x="270" y="511" on="0"/>
        <pt x="216" y="458" on="0"/>
        <pt x="185" y="375" on="0"/>
        <pt x="185" y="316" on="1"/>
        <pt x="185" y="259" on="0"/>
        <pt x="215" y="176" on="0"/>
        <pt x="268" y="122" on="0"/>
        <pt x="339" y="95" on="0"/>
      </contour>
    </TTGlyph>
    <TTGlyph name="Ca.tm" xMin="23" yMin="-10" xMax="604" yMax="503">
      <contour>
        <pt x="582" y="503" on="1"/>
        <pt x="582" y="413" on="1"/>
        <pt x="448" y="413" on="1"/>
        <pt x="448" y="303" on="1"/>
        <pt x="604" y="303" on="1"/>
        <pt x="604" y="215" on="1"/>
        <pt x="448" y="215" on="1"/>
        <pt x="448" y="161" on="1"/>
        <pt x="448" y="81" on="0"/>
        <pt x="342" y="-10" on="0"/>
        <pt x="241" y="-10" on="1"/>
        <pt x="194" y="-10" on="0"/>
        <pt x="114" y="14" on="0"/>
        <pt x="56" y="58" on="0"/>
        <pt x="23" y="120" on="0"/>
        <pt x="23" y="159" on="1"/>
        <pt x="23" y="186" on="0"/>
        <pt x="40" y="231" on="0"/>
        <pt x="67" y="266" on="0"/>
        <pt x="102" y="288" on="0"/>
        <pt x="120" y="292" on="1"/>
        <pt x="120" y="503" on="1"/>
      </contour>
      <contour>
        <pt x="212" y="215" on="1"/>
        <pt x="179" y="215" on="0"/>
        <pt x="141" y="184" on="0"/>
        <pt x="141" y="155" on="1"/>
        <pt x="141" y="122" on="0"/>
        <pt x="194" y="81" on="0"/>
        <pt x="242" y="81" on="1"/>
        <pt x="287" y="81" on="0"/>
        <pt x="337" y="125" on="0"/>
        <pt x="337" y="163" on="1"/>
        <pt x="337" y="215" on="1"/>
      </contour>
      <contour>
        <pt x="231" y="303" on="1"/>
        <pt x="339" y="303" on="1"/>
        <pt x="339" y="413" on="1"/>
        <pt x="231" y="413" on="1"/>
      </contour>
    </TTGlyph>
    <TTGlyph name="CaMatraI.tm" xMin="23" yMin="-10" xMax="804" yMax="764">
      <contour>
        <pt x="324" y="503" on="1"/>
        <pt x="314" y="532" on="0"/>
        <pt x="314" y="570" on="1"/>
        <pt x="314" y="613" on="0"/>
        <pt x="347" y="685" on="0"/>
        <pt x="408" y="736" on="0"/>
        <pt x="495" y="764" on="0"/>
        <pt x="550" y="764" on="1"/>
        <pt x="677" y="764" on="0"/>
        <pt x="804" y="622" on="0"/>
        <pt x="804" y="497" on="1"/>
        <pt x="804" y="0" on="1"/>
        <pt x="682" y="0" on="1"/>
        <pt x="682" y="493" on="1"/>
        <pt x="682" y="576" on="0"/>
        <pt x="616" y="663" on="0"/>
        <pt x="547" y="663" on="1"/>
        <pt x="490" y="663" on="0"/>
        <pt x="434" y="608" on="0"/>
        <pt x="434" y="560" on="1"/>
        <pt x="434" y="528" on="0"/>
        <pt x="443" y="503" on="1"/>
        <pt x="582" y="503" on="1"/>
        <pt x="582" y="413" on="1"/>
        <pt x="448" y="413" on="1"/>
        <pt x="448" y="303" on="1"/>
        <pt x="604" y="303" on="1"/>
        <pt x="604" y="215" on="1"/>
        <pt x="448" y="215" on="1"/>
        <pt x="448" y="161" on="1"/>
        <pt x="448" y="81" on="0"/>
        <pt x="342" y="-10" on="0"/>
        <pt x="241" y="-10" on="1"/>
        <pt x="194" y="-10" on="0"/>
        <pt x="114" y="14" on="0"/>
        <pt x="56" y="58" on="0"/>
        <pt x="23" y="120" on="0"/>
        <pt x="23" y="159" on="1"/>
        <pt x="23" y="186" on="0"/>
        <pt x="40" y="231" on="0"/>
        <pt x="67" y="266" on="0"/>
        <pt x="102" y="288" on="0"/>
        <pt x="120" y="292" on="1"/>
        <pt x="120" y="503" on="1"/>
      </contour>
      <contour>
        <pt x="212" y="215" on="1"/>
        <pt x="179" y="215" on="0"/>
        <pt x="141" y="184" on="0"/>
        <pt x="141" y="155" on="1"/>
        <pt x="141" y="122" on="0"/>
        <pt x="194" y="81" on="0"/>
        <pt x="242" y="81" on="1"/>
        <pt x="287" y="81" on="0"/>
        <pt x="337" y="125" on="0"/>
        <pt x="337" y="163" on="1"/>
        <pt x="337" y="215" on="1"/>
      </contour>
      <contour>
        <pt x="231" y="303" on="1"/>
        <pt x="339" y="303" on="1"/>
        <pt x="339" y="413" on="1"/>
        <pt x="231" y="413" on="1"/>
      </contour>
    </TTGlyph>
    <TTGlyph name="CaMatraIi.tm" xMin="23" yMin="-10" xMax="683" yMax="801">
      <contour>
        <pt x="507" y="801" on="1"/>
        <pt x="549" y="801" on="0"/>
        <pt x="614" y="781" on="0"/>
        <pt x="659" y="745" on="0"/>
        <pt x="683" y="697" on="0"/>
        <pt x="683" y="670" on="1"/>
        <pt x="683" y="617" on="0"/>
        <pt x="612" y="553" on="0"/>
        <pt x="557" y="553" on="1"/>
        <pt x="530" y="553" on="0"/>
        <pt x="486" y="570" on="0"/>
        <pt x="455" y="599" on="0"/>
        <pt x="438" y="638" on="0"/>
        <pt x="438" y="660" on="1"/>
        <pt x="438" y="680" on="0"/>
        <pt x="452" y="713" on="0"/>
        <pt x="464" y="726" on="1"/>
        <pt x="433" y="717" on="0"/>
        <pt x="392" y="661" on="0"/>
        <pt x="392" y="617" on="1"/>
        <pt x="392" y="582" on="0"/>
        <pt x="419" y="523" on="0"/>
        <pt x="439" y="503" on="1"/>
        <pt x="582" y="503" on="1"/>
        <pt x="582" y="413" on="1"/>
        <pt x="448" y="413" on="1"/>
        <pt x="448" y="303" on="1"/>
        <pt x="604" y="303" on="1"/>
        <pt x="604" y="215" on="1"/>
        <pt x="448" y="215" on="1"/>
        <pt x="448" y="161" on="1"/>
        <pt x="448" y="81" on="0"/>
        <pt x="342" y="-10" on="0"/>
        <pt x="241" y="-10" on="1"/>
        <pt x="194" y="-10" on="0"/>
        <pt x="114" y="14" on="0"/>
        <pt x="56" y="58" on="0"/>
        <pt x="23" y="120" on="0"/>
        <pt x="23" y="159" on="1"/>
        <pt x="23" y="186" on="0"/>
        <pt x="40" y="231" on="0"/>
        <pt x="67" y="266" on="0"/>
        <pt x="102" y="288" on="0"/>
        <pt x="120" y="292" on="1"/>
        <pt x="120" y="503" on="1"/>
        <pt x="320" y="503" on="1"/>
        <pt x="303" y="526" on="0"/>
        <pt x="283" y="584" on="0"/>
        <pt x="283" y="614" on="1"/>
        <pt x="283" y="657" on="0"/>
        <pt x="317" y="727" on="0"/>
        <pt x="377" y="775" on="0"/>
        <pt x="459" y="801" on="0"/>
      </contour>
      <contour>
        <pt x="212" y="215" on="1"/>
        <pt x="179" y="215" on="0"/>
        <pt x="141" y="184" on="0"/>
        <pt x="141" y="155" on="1"/>
        <pt x="141" y="122" on="0"/>
        <pt x="194" y="81" on="0"/>
        <pt x="242" y="81" on="1"/>
        <pt x="287" y="81" on="0"/>
        <pt x="337" y="125" on="0"/>
        <pt x="337" y="163" on="1"/>
        <pt x="337" y="215" on="1"/>
      </contour>
      <contour>
        <pt x="231" y="303" on="1"/>
        <pt x="339" y="303" on="1"/>
        <pt x="339" y="413" on="1"/>
        <pt x="231" y="413" on="1"/>
      </contour>
      <contour>
        <pt x="598" y="672" on="1"/>
        <pt x="598" y="693" on="0"/>
        <pt x="570" y="720" on="0"/>
        <pt x="549" y="722" on="1"/>
        <pt x="535" y="715" on="0"/>
        <pt x="519" y="690" on="0"/>
        <pt x="519" y="673" on="1"/>
        <pt x="519" y="654" on="0"/>
        <pt x="542" y="632" on="0"/>
        <pt x="559" y="632" on="1"/>
        <pt x="576" y="632" on="0"/>
        <pt x="598" y="653" on="0"/>
      </contour>
    </TTGlyph>
    <TTGlyph name="CaMatraU.tm" xMin="23" yMin="-10" xMax="703" yMax="503">
      <contour>
        <pt x="598" y="503" on="1"/>
        <pt x="598" y="413" on="1"/>
        <pt x="448" y="413" on="1"/>
        <pt x="448" y="303" on="1"/>
        <pt x="703" y="303" on="1"/>
        <pt x="703" y="215" on="1"/>
        <pt x="635" y="215" on="1"/>
        <pt x="635" y="0" on="1"/>
        <pt x="525" y="0" on="1"/>
        <pt x="525" y="215" on="1"/>
        <pt x="448" y="215" on="1"/>
        <pt x="448" y="161" on="1"/>
        <pt x="448" y="81" on="0"/>
        <pt x="342" y="-10" on="0"/>
        <pt x="241" y="-10" on="1"/>
        <pt x="194" y="-10" on="0"/>
        <pt x="114" y="14" on="0"/>
        <pt x="56" y="58" on="0"/>
        <pt x="23" y="120" on="0"/>
        <pt x="23" y="159" on="1"/>
        <pt x="23" y="186" on="0"/>
        <pt x="40" y="231" on="0"/>
        <pt x="67" y="266" on="0"/>
        <pt x="102" y="288" on="0"/>
        <pt x="120" y="292" on="1"/>
        <pt x="120" y="503" on="1"/>
      </contour>
      <contour>
        <pt x="212" y="215" on="1"/>
        <pt x="179" y="215" on="0"/>
        <pt x="141" y="184" on="0"/>
        <pt x="141" y="155" on="1"/>
        <pt x="141" y="122" on="0"/>
        <pt x="194" y="81" on="0"/>
        <pt x="242" y="81" on="1"/>
        <pt x="287" y="81" on="0"/>
        <pt x="337" y="125" on="0"/>
        <pt x="337" y="163" on="1"/>
        <pt x="337" y="215" on="1"/>
      </contour>
      <contour>
        <pt x="231" y="303" on="1"/>
        <pt x="339" y="303" on="1"/>
        <pt x="339" y="413" on="1"/>
        <pt x="231" y="413" on="1"/>
      </contour>
    </TTGlyph>
    <TTGlyph name="CaMatraUu.tm" xMin="35" yMin="-284" xMax="1091" yMax="515">
      <contour>
        <pt x="952" y="185" on="1"/>
        <pt x="983" y="185" on="0"/>
        <pt x="1034" y="162" on="0"/>
        <pt x="1071" y="120" on="0"/>
        <pt x="1091" y="63" on="0"/>
        <pt x="1091" y="29" on="1"/>
        <pt x="1091" y="-38" on="0"/>
        <pt x="1019" y="-152" on="0"/>
        <pt x="887" y="-236" on="0"/>
        <pt x="700" y="-284" on="0"/>
        <pt x="585" y="-284" on="1"/>
        <pt x="463" y="-284" on="0"/>
        <pt x="261" y="-223" on="0"/>
        <pt x="116" y="-109" on="0"/>
        <pt x="35" y="53" on="0"/>
        <pt x="35" y="154" on="1"/>
        <pt x="35" y="213" on="0"/>
        <pt x="59" y="319" on="0"/>
        <pt x="100" y="411" on="0"/>
        <pt x="157" y="486" on="0"/>
        <pt x="190" y="515" on="1"/>
        <pt x="273" y="447" on="1"/>
        <pt x="249" y="423" on="0"/>
        <pt x="205" y="363" on="0"/>
        <pt x="172" y="290" on="0"/>
        <pt x="153" y="204" on="0"/>
        <pt x="153" y="154" on="1"/>
        <pt x="153" y="77" on="0"/>
        <pt x="216" y="-48" on="0"/>
        <pt x="330" y="-137" on="0"/>
        <pt x="491" y="-185" on="0"/>
        <pt x="589" y="-185" on="1"/>
        <pt x="678" y="-185" on="0"/>
        <pt x="823" y="-153" on="0"/>
        <pt x="925" y="-96" on="0"/>
        <pt x="981" y="-17" on="0"/>
        <pt x="981" y="29" on="1"/>
        <pt x="981" y="60" on="0"/>
        <pt x="949" y="101" on="0"/>
        <pt x="920" y="101" on="1"/>
        <pt x="889" y="101" on="0"/>
        <pt x="869" y="73" on="1"/>
        <pt x="869" y="0" on="1"/>
        <pt x="762" y="0" on="1"/>
        <pt x="762" y="215" on="1"/>
        <pt x="685" y="215" on="1"/>
        <pt x="685" y="161" on="1"/>
        <pt x="685" y="81" on="0"/>
        <pt x="579" y="-10" on="0"/>
        <pt x="478" y="-10" on="1"/>
        <pt x="431" y="-10" on="0"/>
        <pt x="351" y="14" on="0"/>
        <pt x="293" y="58" on="0"/>
        <pt x="261" y="120" on="0"/>
        <pt x="261" y="159" on="1"/>
        <pt x="261" y="186" on="0"/>
        <pt x="277" y="231" on="0"/>
        <pt x="304" y="266" on="0"/>
        <pt x="339" y="288" on="0"/>
        <pt x="358" y="292" on="1"/>
        <pt x="358" y="503" on="1"/>
        <pt x="830" y="503" on="1"/>
        <pt x="830" y="413" on="1"/>
        <pt x="685" y="413" on="1"/>
        <pt x="685" y="303" on="1"/>
        <pt x="938" y="303" on="1"/>
        <pt x="938" y="220" on="1"/>
        <pt x="863" y="220" on="1"/>
        <pt x="863" y="156" on="1"/>
        <pt x="880" y="170" on="0"/>
        <pt x="926" y="185" on="0"/>
      </contour>
      <contour>
        <pt x="449" y="215" on="1"/>
        <pt x="417" y="215" on="0"/>
        <pt x="378" y="184" on="0"/>
        <pt x="378" y="155" on="1"/>
        <pt x="378" y="122" on="0"/>
        <pt x="432" y="81" on="0"/>
        <pt x="480" y="81" on="1"/>
        <pt x="525" y="81" on="0"/>
        <pt x="574" y="125" on="0"/>
        <pt x="574" y="163" on="1"/>
        <pt x="574" y="215" on="1"/>
      </contour>
      <contour>
        <pt x="468" y="303" on="1"/>
        <pt x="576" y="303" on="1"/>
        <pt x="576" y="413" on="1"/>
        <pt x="468" y="413" on="1"/>
      </contour>
    </TTGlyph>
    <TTGlyph name="CaPulli.tm" xMin="23" yMin="-10" xMax="604" yMax="719">
      <contour>
        <pt x="582" y="503" on="1"/>
        <pt x="582" y="413" on="1"/>
        <pt x="448" y="413" on="1"/>
        <pt x="448" y="303" on="1"/>
        <pt x="604" y="303" on="1"/>
        <pt x="604" y="215" on="1"/>
        <pt x="448" y="215" on="1"/>
        <pt x="448" y="161" on="1"/>
        <pt x="448" y="81" on="0"/>
        <pt x="342" y="-10" on="0"/>
        <pt x="241" y="-10" on="1"/>
        <pt x="194" y="-10" on="0"/>
        <pt x="114" y="14" on="0"/>
        <pt x="56" y="58" on="0"/>
        <pt x="23" y="120" on="0"/>
        <pt x="23" y="159" on="1"/>
        <pt x="23" y="186" on="0"/>
        <pt x="40" y="231" on="0"/>
        <pt x="67" y="266" on="0"/>
        <pt x="102" y="288" on="0"/>
        <pt x="120" y="292" on="1"/>
        <pt x="120" y="503" on="1"/>
      </contour>
      <contour>
        <pt x="212" y="215" on="1"/>
        <pt x="179" y="215" on="0"/>
        <pt x="141" y="184" on="0"/>
        <pt x="141" y="155" on="1"/>
        <pt x="141" y="122" on="0"/>
        <pt x="194" y="81" on="0"/>
        <pt x="242" y="81" on="1"/>
        <pt x="287" y="81" on="0"/>
        <pt x="337" y="125" on="0"/>
        <pt x="337" y="163" on="1"/>
        <pt x="337" y="215" on="1"/>
      </contour>
      <contour>
        <pt x="313" y="719" on="1"/>
        <pt x="345" y="719" on="0"/>
        <pt x="385" y="678" on="0"/>
        <pt x="385" y="647" on="1"/>
        <pt x="385" y="616" on="0"/>
        <pt x="346" y="575" on="0"/>
        <pt x="315" y="575" on="1"/>
        <pt x="283" y="575" on="0"/>
        <pt x="243" y="616" on="0"/>
        <pt x="243" y="647" on="1"/>
        <pt x="243" y="678" on="0"/>
        <pt x="283" y="719" on="0"/>
      </contour>
      <contour>
        <pt x="231" y="303" on="1"/>
        <pt x="339" y="303" on="1"/>
        <pt x="339" y="413" on="1"/>
        <pt x="231" y="413" on="1"/>
      </contour>
    </TTGlyph>
    <TTGlyph name="Cacute" xMin="40" yMin="-11" xMax="542" yMax="819">
      <contour>
        <pt x="380" y="95" on="1"/>
        <pt x="426" y="95" on="0"/>
        <pt x="490" y="111" on="0"/>
        <pt x="513" y="125" on="1"/>
        <pt x="541" y="25" on="1"/>
        <pt x="517" y="11" on="0"/>
        <pt x="429" y="-11" on="0"/>
        <pt x="366" y="-11" on="1"/>
        <pt x="295" y="-11" on="0"/>
        <pt x="175" y="34" on="0"/>
        <pt x="88" y="119" on="0"/>
        <pt x="40" y="240" on="0"/>
        <pt x="40" y="316" on="1"/>
        <pt x="40" y="390" on="0"/>
        <pt x="87" y="510" on="0"/>
        <pt x="172" y="595" on="0"/>
        <pt x="294" y="641" on="0"/>
        <pt x="369" y="641" on="1"/>
        <pt x="433" y="641" on="0"/>
        <pt x="516" y="617" on="0"/>
        <pt x="542" y="603" on="1"/>
        <pt x="511" y="502" on="1"/>
        <pt x="485" y="516" on="0"/>
        <pt x="422" y="535" on="0"/>
        <pt x="383" y="535" on="1"/>
        <pt x="342" y="535" on="0"/>
        <pt x="270" y="511" on="0"/>
        <pt x="216" y="458" on="0"/>
        <pt x="185" y="375" on="0"/>
        <pt x="185" y="316" on="1"/>
        <pt x="185" y="259" on="0"/>
        <pt x="215" y="176" on="0"/>
        <pt x="268" y="122" on="0"/>
        <pt x="339" y="95" on="0"/>
      </contour>
      <contour>
        <pt x="354" y="695" on="1"/>
        <pt x="244" y="695" on="1"/>
        <pt x="324" y="819" on="1"/>
        <pt x="469" y="819" on="1"/>
      </contour>
    </TTGlyph>
    <TTGlyph name="Ccaron" xMin="40" yMin="-11" xMax="542" yMax="822">
      <contour>
        <pt x="380" y="95" on="1"/>
        <pt x="426" y="95" on="0"/>
        <pt x="490" y="111" on="0"/>
        <pt x="513" y="125" on="1"/>
        <pt x="541" y="25" on="1"/>
        <pt x="517" y="11" on="0"/>
        <pt x="429" y="-11" on="0"/>
        <pt x="366" y="-11" on="1"/>
        <pt x="295" y="-11" on="0"/>
        <pt x="175" y="34" on="0"/>
        <pt x="88" y="119" on="0"/>
        <pt x="40" y="240" on="0"/>
        <pt x="40" y="316" on="1"/>
        <pt x="40" y="390" on="0"/>
        <pt x="87" y="510" on="0"/>
        <pt x="172" y="595" on="0"/>
        <pt x="294" y="641" on="0"/>
        <pt x="369" y="641" on="1"/>
        <pt x="433" y="641" on="0"/>
        <pt x="516" y="617" on="0"/>
        <pt x="542" y="603" on="1"/>
        <pt x="511" y="502" on="1"/>
        <pt x="485" y="516" on="0"/>
        <pt x="422" y="535" on="0"/>
        <pt x="383" y="535" on="1"/>
        <pt x="342" y="535" on="0"/>
        <pt x="270" y="511" on="0"/>
        <pt x="216" y="458" on="0"/>
        <pt x="185" y="375" on="0"/>
        <pt x="185" y="316" on="1"/>
        <pt x="185" y="259" on="0"/>
        <pt x="215" y="176" on="0"/>
        <pt x="268" y="122" on="0"/>
        <pt x="339" y="95" on="0"/>
      </contour>
      <contour>
        <pt x="179" y="822" on="1"/>
        <pt x="282" y="822" on="1"/>
        <pt x="346" y="752" on="1"/>
        <pt x="411" y="822" on="1"/>
        <pt x="510" y="822" on="1"/>
        <pt x="395" y="695" on="1"/>
        <pt x="296" y="695" on="1"/>
      </contour>
    </TTGlyph>
    <TTGlyph name="Ccedilla" xMin="40" yMin="-215" xMax="542" yMax="641">
      <contour>
        <pt x="380" y="95" on="1"/>
        <pt x="426" y="95" on="0"/>
        <pt x="490" y="111" on="0"/>
        <pt x="513" y="125" on="1"/>
        <pt x="541" y="25" on="1"/>
        <pt x="518" y="12" on="0"/>
        <pt x="437" y="-9" on="0"/>
        <pt x="377" y="-11" on="1"/>
        <pt x="364" y="-47" on="1"/>
        <pt x="403" y="-50" on="0"/>
        <pt x="446" y="-94" on="0"/>
        <pt x="446" y="-123" on="1"/>
        <pt x="446" y="-169" on="0"/>
        <pt x="378" y="-215" on="0"/>
        <pt x="327" y="-215" on="1"/>
        <pt x="302" y="-215" on="0"/>
        <pt x="259" y="-206" on="0"/>
        <pt x="246" y="-201" on="1"/>
        <pt x="262" y="-146" on="1"/>
        <pt x="274" y="-151" on="0"/>
        <pt x="297" y="-155" on="0"/>
        <pt x="313" y="-155" on="1"/>
        <pt x="335" y="-155" on="0"/>
        <pt x="360" y="-137" on="0"/>
        <pt x="360" y="-118" on="1"/>
        <pt x="360" y="-101" on="0"/>
        <pt x="328" y="-78" on="0"/>
        <pt x="281" y="-78" on="1"/>
        <pt x="308" y="-6" on="1"/>
        <pt x="248" y="2" on="0"/>
        <pt x="149" y="54" on="0"/>
        <pt x="79" y="136" on="0"/>
        <pt x="40" y="248" on="0"/>
        <pt x="40" y="316" on="1"/>
        <pt x="40" y="390" on="0"/>
        <pt x="87" y="510" on="0"/>
        <pt x="172" y="595" on="0"/>
        <pt x="294" y="641" on="0"/>
        <pt x="369" y="641" on="1"/>
        <pt x="433" y="641" on="0"/>
        <pt x="516" y="617" on="0"/>
        <pt x="542" y="603" on="1"/>
        <pt x="511" y="502" on="1"/>
        <pt x="485" y="516" on="0"/>
        <pt x="422" y="535" on="0"/>
        <pt x="383" y="535" on="1"/>
        <pt x="342" y="535" on="0"/>
        <pt x="270" y="511" on="0"/>
        <pt x="216" y="458" on="0"/>
        <pt x="185" y="375" on="0"/>
        <pt x="185" y="316" on="1"/>
        <pt x="185" y="259" on="0"/>
        <pt x="215" y="176" on="0"/>
        <pt x="268" y="122" on="0"/>
        <pt x="339" y="95" on="0"/>
      </contour>
    </TTGlyph>
    <TTGlyph name="Ccircumflex" xMin="40" yMin="-11" xMax="542" yMax="821">
      <contour>
        <pt x="380" y="95" on="1"/>
        <pt x="426" y="95" on="0"/>
        <pt x="490" y="111" on="0"/>
        <pt x="513" y="125" on="1"/>
        <pt x="541" y="25" on="1"/>
        <pt x="517" y="11" on="0"/>
        <pt x="429" y="-11" on="0"/>
        <pt x="366" y="-11" on="1"/>
        <pt x="295" y="-11" on="0"/>
        <pt x="175" y="34" on="0"/>
        <pt x="88" y="119" on="0"/>
        <pt x="40" y="240" on="0"/>
        <pt x="40" y="316" on="1"/>
        <pt x="40" y="390" on="0"/>
        <pt x="87" y="510" on="0"/>
        <pt x="172" y="595" on="0"/>
        <pt x="294" y="641" on="0"/>
        <pt x="369" y="641" on="1"/>
        <pt x="433" y="641" on="0"/>
        <pt x="516" y="617" on="0"/>
        <pt x="542" y="603" on="1"/>
        <pt x="511" y="502" on="1"/>
        <pt x="485" y="516" on="0"/>
        <pt x="422" y="535" on="0"/>
        <pt x="383" y="535" on="1"/>
        <pt x="342" y="535" on="0"/>
        <pt x="270" y="511" on="0"/>
        <pt x="216" y="458" on="0"/>
        <pt x="185" y="375" on="0"/>
        <pt x="185" y="316" on="1"/>
        <pt x="185" y="259" on="0"/>
        <pt x="215" y="176" on="0"/>
        <pt x="268" y="122" on="0"/>
        <pt x="339" y="95" on="0"/>
      </contour>
      <contour>
        <pt x="294" y="821" on="1"/>
        <pt x="393" y="821" on="1"/>
        <pt x="511" y="695" on="1"/>
        <pt x="408" y="695" on="1"/>
        <pt x="343" y="764" on="1"/>
        <pt x="278" y="695" on="1"/>
        <pt x="180" y="695" on="1"/>
      </contour>
    </TTGlyph>
    <TTGlyph name="Cdotaccent" xMin="40" yMin="-11" xMax="542" yMax="816">
      <contour>
        <pt x="380" y="95" on="1"/>
        <pt x="426" y="95" on="0"/>
        <pt x="490" y="111" on="0"/>
        <pt x="513" y="125" on="1"/>
        <pt x="541" y="25" on="1"/>
        <pt x="517" y="11" on="0"/>
        <pt x="429" y="-11" on="0"/>
        <pt x="366" y="-11" on="1"/>
        <pt x="295" y="-11" on="0"/>
        <pt x="175" y="34" on="0"/>
        <pt x="88" y="119" on="0"/>
        <pt x="40" y="240" on="0"/>
        <pt x="40" y="316" on="1"/>
        <pt x="40" y="390" on="0"/>
        <pt x="87" y="510" on="0"/>
        <pt x="172" y="595" on="0"/>
        <pt x="294" y="641" on="0"/>
        <pt x="369" y="641" on="1"/>
        <pt x="433" y="641" on="0"/>
        <pt x="516" y="617" on="0"/>
        <pt x="542" y="603" on="1"/>
        <pt x="511" y="502" on="1"/>
        <pt x="485" y="516" on="0"/>
        <pt x="422" y="535" on="0"/>
        <pt x="383" y="535" on="1"/>
        <pt x="342" y="535" on="0"/>
        <pt x="270" y="511" on="0"/>
        <pt x="216" y="458" on="0"/>
        <pt x="185" y="375" on="0"/>
        <pt x="185" y="316" on="1"/>
        <pt x="185" y="259" on="0"/>
        <pt x="215" y="176" on="0"/>
        <pt x="268" y="122" on="0"/>
        <pt x="339" y="95" on="0"/>
      </contour>
      <contour>
        <pt x="302" y="753" on="1"/>
        <pt x="302" y="779" on="0"/>
        <pt x="341" y="816" on="0"/>
        <pt x="367" y="816" on="1"/>
        <pt x="395" y="816" on="0"/>
        <pt x="432" y="779" on="0"/>
        <pt x="432" y="753" on="1"/>
        <pt x="432" y="725" on="0"/>
        <pt x="395" y="687" on="0"/>
        <pt x="367" y="687" on="1"/>
        <pt x="341" y="687" on="0"/>
        <pt x="302" y="725" on="0"/>
      </contour>
    </TTGlyph>
    <TTGlyph name="CreditSign.tm" xMin="32" yMin="-10" xMax="1324" yMax="503">
      <contour>
        <pt x="940" y="414" on="1"/>
        <pt x="997" y="414" on="0"/>
        <pt x="1090" y="382" on="0"/>
        <pt x="1157" y="323" on="0"/>
        <pt x="1193" y="240" on="0"/>
        <pt x="1193" y="189" on="1"/>
        <pt x="1193" y="162" on="0"/>
        <pt x="1181" y="112" on="0"/>
        <pt x="1173" y="95" on="1"/>
        <pt x="1324" y="95" on="1"/>
        <pt x="1324" y="0" on="1"/>
        <pt x="1088" y="0" on="1"/>
        <pt x="1058" y="70" on="1"/>
        <pt x="1072" y="96" on="0"/>
        <pt x="1086" y="151" on="0"/>
        <pt x="1086" y="188" on="1"/>
        <pt x="1086" y="220" on="0"/>
        <pt x="1063" y="271" on="0"/>
        <pt x="1023" y="307" on="0"/>
        <pt x="968" y="326" on="0"/>
        <pt x="936" y="326" on="1"/>
        <pt x="894" y="326" on="0"/>
        <pt x="835" y="297" on="0"/>
        <pt x="820" y="274" on="1"/>
        <pt x="842" y="282" on="0"/>
        <pt x="866" y="282" on="1"/>
        <pt x="895" y="282" on="0"/>
        <pt x="949" y="264" on="0"/>
        <pt x="991" y="228" on="0"/>
        <pt x="1016" y="174" on="0"/>
        <pt x="1016" y="138" on="1"/>
        <pt x="1016" y="106" on="0"/>
        <pt x="991" y="52" on="0"/>
        <pt x="948" y="14" on="0"/>
        <pt x="888" y="-7" on="0"/>
        <pt x="853" y="-7" on="1"/>
        <pt x="817" y="-7" on="0"/>
        <pt x="762" y="17" on="0"/>
        <pt x="724" y="56" on="0"/>
        <pt x="703" y="106" on="0"/>
        <pt x="701" y="132" on="1"/>
        <pt x="684" y="120" on="0"/>
        <pt x="653" y="88" on="0"/>
        <pt x="625" y="52" on="0"/>
        <pt x="602" y="16" on="0"/>
        <pt x="595" y="0" on="1"/>
        <pt x="491" y="0" on="1"/>
        <pt x="491" y="408" on="1"/>
        <pt x="369" y="408" on="1"/>
        <pt x="275" y="408" on="0"/>
        <pt x="162" y="340" on="0"/>
        <pt x="149" y="270" on="1"/>
        <pt x="187" y="303" on="0"/>
        <pt x="241" y="303" on="1"/>
        <pt x="275" y="303" on="0"/>
        <pt x="333" y="281" on="0"/>
        <pt x="375" y="241" on="0"/>
        <pt x="399" y="185" on="0"/>
        <pt x="399" y="151" on="1"/>
        <pt x="399" y="114" on="0"/>
        <pt x="371" y="55" on="0"/>
        <pt x="324" y="13" on="0"/>
        <pt x="260" y="-10" on="0"/>
        <pt x="224" y="-10" on="1"/>
        <pt x="181" y="-10" on="0"/>
        <pt x="110" y="21" on="0"/>
        <pt x="60" y="79" on="0"/>
        <pt x="32" y="161" on="0"/>
        <pt x="32" y="212" on="1"/>
        <pt x="32" y="283" on="0"/>
        <pt x="79" y="392" on="0"/>
        <pt x="166" y="465" on="0"/>
        <pt x="289" y="503" on="0"/>
        <pt x="366" y="503" on="1"/>
        <pt x="712" y="503" on="1"/>
        <pt x="712" y="408" on="1"/>
        <pt x="608" y="408" on="1"/>
        <pt x="608" y="146" on="1"/>
        <pt x="626" y="173" on="0"/>
        <pt x="679" y="222" on="0"/>
        <pt x="706" y="240" on="1"/>
        <pt x="716" y="279" on="0"/>
        <pt x="760" y="343" on="0"/>
        <pt x="820" y="389" on="0"/>
        <pt x="896" y="414" on="0"/>
      </contour>
      <contour>
        <pt x="218" y="214" on="1"/>
        <pt x="195" y="214" on="0"/>
        <pt x="162" y="189" on="0"/>
        <pt x="151" y="168" on="1"/>
        <pt x="153" y="130" on="0"/>
        <pt x="192" y="86" on="0"/>
        <pt x="223" y="86" on="1"/>
        <pt x="248" y="86" on="0"/>
        <pt x="282" y="121" on="0"/>
        <pt x="282" y="150" on="1"/>
        <pt x="282" y="180" on="0"/>
        <pt x="247" y="214" on="0"/>
      </contour>
      <contour>
        <pt x="847" y="200" on="1"/>
        <pt x="820" y="200" on="0"/>
        <pt x="800" y="186" on="1"/>
        <pt x="797" y="171" on="0"/>
        <pt x="797" y="155" on="1"/>
        <pt x="797" y="121" on="0"/>
        <pt x="829" y="83" on="0"/>
        <pt x="855" y="83" on="1"/>
        <pt x="878" y="83" on="0"/>
        <pt x="909" y="114" on="0"/>
        <pt x="909" y="140" on="1"/>
        <pt x="909" y="166" on="0"/>
        <pt x="874" y="200" on="0"/>
      </contour>
    </TTGlyph>
    <TTGlyph name="Csmall" xMin="40" yMin="-11" xMax="439" yMax="487">
      <contour>
        <pt x="318" y="87" on="1"/>
        <pt x="350" y="87" on="0"/>
        <pt x="399" y="104" on="0"/>
        <pt x="414" y="112" on="1"/>
        <pt x="439" y="20" on="1"/>
        <pt x="419" y="9" on="0"/>
        <pt x="343" y="-11" on="0"/>
        <pt x="298" y="-11" on="1"/>
        <pt x="243" y="-11" on="0"/>
        <pt x="149" y="21" on="0"/>
        <pt x="80" y="84" on="0"/>
        <pt x="40" y="176" on="0"/>
        <pt x="40" y="237" on="1"/>
        <pt x="40" y="293" on="0"/>
        <pt x="78" y="385" on="0"/>
        <pt x="147" y="451" on="0"/>
        <pt x="242" y="487" on="0"/>
        <pt x="300" y="487" on="1"/>
        <pt x="331" y="487" on="0"/>
        <pt x="400" y="475" on="0"/>
        <pt x="438" y="455" on="1"/>
        <pt x="410" y="363" on="1"/>
        <pt x="389" y="375" on="0"/>
        <pt x="340" y="390" on="0"/>
        <pt x="315" y="390" on="1"/>
        <pt x="252" y="390" on="0"/>
        <pt x="175" y="314" on="0"/>
        <pt x="175" y="241" on="1"/>
        <pt x="175" y="198" on="0"/>
        <pt x="200" y="139" on="0"/>
        <pt x="240" y="103" on="0"/>
        <pt x="292" y="87" on="0"/>
      </contour>
    </TTGlyph>
    <TTGlyph name="D" xMin="69" yMin="0" xMax="615" yMax="630">
      <contour>
        <pt x="289" y="630" on="1"/>
        <pt x="362" y="630" on="0"/>
        <pt x="482" y="592" on="0"/>
        <pt x="568" y="516" on="0"/>
        <pt x="615" y="403" on="0"/>
        <pt x="615" y="328" on="1"/>
        <pt x="615" y="242" on="0"/>
        <pt x="559" y="119" on="0"/>
        <pt x="463" y="38" on="0"/>
        <pt x="334" y="0" on="0"/>
        <pt x="262" y="0" on="1"/>
        <pt x="69" y="0" on="1"/>
        <pt x="69" y="630" on="1"/>
      </contour>
      <contour>
        <pt x="206" y="106" on="1"/>
        <pt x="253" y="106" on="1"/>
        <pt x="295" y="106" on="0"/>
        <pt x="374" y="127" on="0"/>
        <pt x="434" y="178" on="0"/>
        <pt x="470" y="263" on="0"/>
        <pt x="470" y="328" on="1"/>
        <pt x="470" y="423" on="0"/>
        <pt x="362" y="524" on="0"/>
        <pt x="271" y="524" on="1"/>
        <pt x="206" y="524" on="1"/>
      </contour>
    </TTGlyph>
    <TTGlyph name="DaySign.tm" xMin="34" yMin="-10" xMax="775" yMax="512">
      <contour>
        <pt x="329" y="512" on="1"/>
        <pt x="391" y="512" on="0"/>
        <pt x="497" y="473" on="0"/>
        <pt x="574" y="402" on="0"/>
        <pt x="618" y="302" on="0"/>
        <pt x="618" y="241" on="1"/>
        <pt x="618" y="193" on="0"/>
        <pt x="600" y="122" on="0"/>
        <pt x="588" y="97" on="1"/>
        <pt x="775" y="97" on="1"/>
        <pt x="775" y="0" on="1"/>
        <pt x="484" y="0" on="1"/>
        <pt x="454" y="70" on="1"/>
        <pt x="473" y="102" on="0"/>
        <pt x="494" y="180" on="0"/>
        <pt x="494" y="231" on="1"/>
        <pt x="494" y="271" on="0"/>
        <pt x="470" y="338" on="0"/>
        <pt x="426" y="386" on="0"/>
        <pt x="363" y="413" on="0"/>
        <pt x="324" y="413" on="1"/>
        <pt x="250" y="413" on="0"/>
        <pt x="158" y="332" on="0"/>
        <pt x="148" y="267" on="1"/>
        <pt x="186" y="303" on="0"/>
        <pt x="243" y="303" on="1"/>
        <pt x="277" y="303" on="0"/>
        <pt x="335" y="281" on="0"/>
        <pt x="377" y="241" on="0"/>
        <pt x="401" y="185" on="0"/>
        <pt x="401" y="151" on="1"/>
        <pt x="401" y="114" on="0"/>
        <pt x="373" y="55" on="0"/>
        <pt x="326" y="13" on="0"/>
        <pt x="262" y="-10" on="0"/>
        <pt x="226" y="-10" on="1"/>
        <pt x="183" y="-10" on="0"/>
        <pt x="112" y="22" on="0"/>
        <pt x="62" y="82" on="0"/>
        <pt x="34" y="168" on="0"/>
        <pt x="34" y="222" on="1"/>
        <pt x="34" y="288" on="0"/>
        <pt x="78" y="395" on="0"/>
        <pt x="156" y="471" on="0"/>
        <pt x="264" y="512" on="0"/>
      </contour>
      <contour>
        <pt x="220" y="214" on="1"/>
        <pt x="197" y="214" on="0"/>
        <pt x="164" y="189" on="0"/>
        <pt x="153" y="168" on="1"/>
        <pt x="155" y="130" on="0"/>
        <pt x="194" y="86" on="0"/>
        <pt x="225" y="86" on="1"/>
        <pt x="250" y="86" on="0"/>
        <pt x="284" y="121" on="0"/>
        <pt x="284" y="150" on="1"/>
        <pt x="284" y="180" on="0"/>
        <pt x="249" y="214" on="0"/>
      </contour>
    </TTGlyph>
    <TTGlyph name="Dcaron" xMin="69" yMin="0" xMax="615" yMax="822">
      <contour>
        <pt x="289" y="630" on="1"/>
        <pt x="362" y="630" on="0"/>
        <pt x="482" y="592" on="0"/>
        <pt x="568" y="516" on="0"/>
        <pt x="615" y="403" on="0"/>
        <pt x="615" y="328" on="1"/>
        <pt x="615" y="242" on="0"/>
        <pt x="559" y="119" on="0"/>
        <pt x="463" y="38" on="0"/>
        <pt x="334" y="0" on="0"/>
        <pt x="262" y="0" on="1"/>
        <pt x="69" y="0" on="1"/>
        <pt x="69" y="630" on="1"/>
      </contour>
      <contour>
        <pt x="206" y="106" on="1"/>
        <pt x="253" y="106" on="1"/>
        <pt x="295" y="106" on="0"/>
        <pt x="374" y="127" on="0"/>
        <pt x="434" y="178" on="0"/>
        <pt x="470" y="263" on="0"/>
        <pt x="470" y="328" on="1"/>
        <pt x="470" y="423" on="0"/>
        <pt x="362" y="524" on="0"/>
        <pt x="271" y="524" on="1"/>
        <pt x="206" y="524" on="1"/>
      </contour>
      <contour>
        <pt x="128" y="822" on="1"/>
        <pt x="229" y="822" on="1"/>
        <pt x="294" y="753" on="1"/>
        <pt x="359" y="822" on="1"/>
        <pt x="459" y="822" on="1"/>
        <pt x="343" y="695" on="1"/>
        <pt x="244" y="695" on="1"/>
      </contour>
    </TTGlyph>
    <TTGlyph name="Dcroat" xMin="22" yMin="0" xMax="653" yMax="630">
      <contour>
        <pt x="327" y="630" on="1"/>
        <pt x="400" y="630" on="0"/>
        <pt x="520" y="592" on="0"/>
        <pt x="606" y="516" on="0"/>
        <pt x="653" y="403" on="0"/>
        <pt x="653" y="328" on="1"/>
        <pt x="653" y="242" on="0"/>
        <pt x="597" y="119" on="0"/>
        <pt x="501" y="38" on="0"/>
        <pt x="372" y="0" on="0"/>
        <pt x="299" y="0" on="1"/>
        <pt x="107" y="0" on="1"/>
        <pt x="107" y="275" on="1"/>
        <pt x="22" y="275" on="1"/>
        <pt x="22" y="367" on="1"/>
        <pt x="107" y="367" on="1"/>
        <pt x="107" y="630" on="1"/>
      </contour>
      <contour>
        <pt x="360" y="367" on="1"/>
        <pt x="360" y="275" on="1"/>
        <pt x="244" y="275" on="1"/>
        <pt x="244" y="106" on="1"/>
        <pt x="290" y="106" on="1"/>
        <pt x="332" y="106" on="0"/>
        <pt x="411" y="127" on="0"/>
        <pt x="472" y="178" on="0"/>
        <pt x="508" y="263" on="0"/>
        <pt x="508" y="328" on="1"/>
        <pt x="508" y="423" on="0"/>
        <pt x="400" y="524" on="0"/>
        <pt x="309" y="524" on="1"/>
        <pt x="244" y="524" on="1"/>
        <pt x="244" y="367" on="1"/>
      </contour>
    </TTGlyph>
    <TTGlyph name="DebitSign.tm" xMin="37" yMin="-313" xMax="851" yMax="503">
      <contour>
        <pt x="851" y="503" on="1"/>
        <pt x="851" y="-142" on="1"/>
        <pt x="605" y="-142" on="1"/>
        <pt x="597" y="-174" on="0"/>
        <pt x="555" y="-236" on="0"/>
        <pt x="482" y="-284" on="0"/>
        <pt x="377" y="-313" on="0"/>
        <pt x="306" y="-313" on="1"/>
        <pt x="245" y="-313" on="0"/>
        <pt x="146" y="-289" on="0"/>
        <pt x="75" y="-245" on="0"/>
        <pt x="37" y="-185" on="0"/>
        <pt x="37" y="-149" on="1"/>
        <pt x="37" y="-105" on="0"/>
        <pt x="101" y="-52" on="0"/>
        <pt x="159" y="-52" on="1"/>
        <pt x="497" y="-52" on="1"/>
        <pt x="497" y="0" on="1"/>
        <pt x="70" y="0" on="1"/>
        <pt x="70" y="503" on="1"/>
        <pt x="194" y="503" on="1"/>
        <pt x="194" y="97" on="1"/>
        <pt x="490" y="97" on="1"/>
        <pt x="490" y="503" on="1"/>
        <pt x="612" y="503" on="1"/>
        <pt x="612" y="-52" on="1"/>
        <pt x="731" y="-52" on="1"/>
        <pt x="731" y="503" on="1"/>
      </contour>
      <contour>
        <pt x="307" y="-222" on="1"/>
        <pt x="384" y="-222" on="0"/>
        <pt x="474" y="-178" on="0"/>
        <pt x="488" y="-142" on="1"/>
        <pt x="180" y="-142" on="1"/>
        <pt x="168" y="-142" on="0"/>
        <pt x="156" y="-154" on="0"/>
        <pt x="156" y="-162" on="1"/>
        <pt x="156" y="-189" on="0"/>
        <pt x="240" y="-222" on="0"/>
      </contour>
    </TTGlyph>
    <TTGlyph name="DottedCircle" xMin="12" yMin="-12" xMax="540" yMax="517">
      <contour>
        <pt x="236" y="27" on="1"/>
        <pt x="236" y="44" on="0"/>
        <pt x="259" y="67" on="0"/>
        <pt x="275" y="67" on="1"/>
        <pt x="292" y="67" on="0"/>
        <pt x="315" y="44" on="0"/>
        <pt x="315" y="27" on="1"/>
        <pt x="315" y="11" on="0"/>
        <pt x="292" y="-12" on="0"/>
        <pt x="275" y="-12" on="1"/>
        <pt x="259" y="-12" on="0"/>
        <pt x="236" y="11" on="0"/>
      </contour>
      <contour>
        <pt x="236" y="476" on="1"/>
        <pt x="236" y="493" on="0"/>
        <pt x="258" y="517" on="0"/>
        <pt x="275" y="517" on="1"/>
        <pt x="292" y="517" on="0"/>
        <pt x="315" y="494" on="0"/>
        <pt x="315" y="476" on="1"/>
        <pt x="315" y="460" on="0"/>
        <pt x="292" y="439" on="0"/>
        <pt x="275" y="439" on="1"/>
        <pt x="259" y="439" on="0"/>
        <pt x="236" y="460" on="0"/>
      </contour>
      <contour>
        <pt x="12" y="252" on="1"/>
        <pt x="12" y="269" on="0"/>
        <pt x="34" y="293" on="0"/>
        <pt x="51" y="293" on="1"/>
        <pt x="67" y="293" on="0"/>
        <pt x="89" y="269" on="0"/>
        <pt x="89" y="252" on="1"/>
        <pt x="89" y="235" on="0"/>
        <pt x="67" y="213" on="0"/>
        <pt x="51" y="213" on="1"/>
        <pt x="34" y="213" on="0"/>
        <pt x="12" y="235" on="0"/>
      </contour>
      <contour>
        <pt x="462" y="252" on="1"/>
        <pt x="462" y="269" on="0"/>
        <pt x="484" y="293" on="0"/>
        <pt x="500" y="293" on="1"/>
        <pt x="517" y="293" on="0"/>
        <pt x="540" y="269" on="0"/>
        <pt x="540" y="252" on="1"/>
        <pt x="540" y="236" on="0"/>
        <pt x="517" y="213" on="0"/>
        <pt x="500" y="213" on="1"/>
        <pt x="484" y="213" on="0"/>
        <pt x="462" y="235" on="0"/>
      </contour>
      <contour>
        <pt x="86" y="403" on="1"/>
        <pt x="86" y="420" on="0"/>
        <pt x="108" y="443" on="0"/>
        <pt x="125" y="443" on="1"/>
        <pt x="142" y="443" on="0"/>
        <pt x="166" y="419" on="0"/>
        <pt x="166" y="403" on="1"/>
        <pt x="166" y="386" on="0"/>
        <pt x="142" y="363" on="0"/>
        <pt x="125" y="363" on="1"/>
        <pt x="108" y="363" on="0"/>
        <pt x="86" y="386" on="0"/>
      </contour>
      <contour>
        <pt x="86" y="102" on="1"/>
        <pt x="86" y="119" on="0"/>
        <pt x="108" y="142" on="0"/>
        <pt x="125" y="142" on="1"/>
        <pt x="142" y="142" on="0"/>
        <pt x="166" y="119" on="0"/>
        <pt x="166" y="102" on="1"/>
        <pt x="166" y="85" on="0"/>
        <pt x="142" y="63" on="0"/>
        <pt x="125" y="63" on="1"/>
        <pt x="108" y="63" on="0"/>
        <pt x="86" y="85" on="0"/>
      </contour>
      <contour>
        <pt x="385" y="102" on="1"/>
        <pt x="385" y="119" on="0"/>
        <pt x="409" y="142" on="0"/>
        <pt x="426" y="142" on="1"/>
        <pt x="443" y="142" on="0"/>
        <pt x="466" y="119" on="0"/>
        <pt x="466" y="102" on="1"/>
        <pt x="466" y="85" on="0"/>
        <pt x="443" y="63" on="0"/>
        <pt x="426" y="63" on="1"/>
        <pt x="409" y="63" on="0"/>
        <pt x="385" y="85" on="0"/>
      </contour>
      <contour>
        <pt x="385" y="403" on="1"/>
        <pt x="385" y="420" on="0"/>
        <pt x="409" y="443" on="0"/>
        <pt x="426" y="443" on="1"/>
        <pt x="443" y="443" on="0"/>
        <pt x="466" y="418" on="0"/>
        <pt x="466" y="403" on="1"/>
        <pt x="466" y="386" on="0"/>
        <pt x="443" y="363" on="0"/>
        <pt x="426" y="363" on="1"/>
        <pt x="409" y="363" on="0"/>
        <pt x="385" y="386" on="0"/>
      </contour>
    </TTGlyph>
    <TTGlyph name="Dsmall" xMin="63" yMin="0" xMax="511" yMax="477">
      <contour>
        <pt x="256" y="477" on="1"/>
        <pt x="308" y="477" on="0"/>
        <pt x="401" y="452" on="0"/>
        <pt x="470" y="397" on="0"/>
        <pt x="511" y="310" on="0"/>
        <pt x="511" y="249" on="1"/>
        <pt x="511" y="183" on="0"/>
        <pt x="470" y="89" on="0"/>
        <pt x="398" y="28" on="0"/>
        <pt x="300" y="0" on="0"/>
        <pt x="243" y="0" on="1"/>
        <pt x="63" y="0" on="1"/>
        <pt x="63" y="477" on="1"/>
      </contour>
      <contour>
        <pt x="196" y="99" on="1"/>
        <pt x="230" y="99" on="1"/>
        <pt x="253" y="99" on="0"/>
        <pt x="304" y="110" on="0"/>
        <pt x="348" y="142" on="0"/>
        <pt x="376" y="200" on="0"/>
        <pt x="376" y="246" on="1"/>
        <pt x="376" y="310" on="0"/>
        <pt x="304" y="378" on="0"/>
        <pt x="230" y="378" on="1"/>
        <pt x="196" y="378" on="1"/>
      </contour>
    </TTGlyph>
    <TTGlyph name="E" xMin="69" yMin="0" xMax="482" yMax="630">
      <contour>
        <pt x="69" y="630" on="1"/>
        <pt x="479" y="630" on="1"/>
        <pt x="479" y="524" on="1"/>
        <pt x="206" y="524" on="1"/>
        <pt x="206" y="380" on="1"/>
        <pt x="453" y="380" on="1"/>
        <pt x="453" y="275" on="1"/>
        <pt x="206" y="275" on="1"/>
        <pt x="206" y="106" on="1"/>
        <pt x="482" y="106" on="1"/>
        <pt x="482" y="0" on="1"/>
        <pt x="69" y="0" on="1"/>
      </contour>
    </TTGlyph>
    <TTGlyph name="Eacute" xMin="69" yMin="0" xMax="482" yMax="819">
      <contour>
        <pt x="69" y="630" on="1"/>
        <pt x="479" y="630" on="1"/>
        <pt x="479" y="524" on="1"/>
        <pt x="206" y="524" on="1"/>
        <pt x="206" y="380" on="1"/>
        <pt x="453" y="380" on="1"/>
        <pt x="453" y="275" on="1"/>
        <pt x="206" y="275" on="1"/>
        <pt x="206" y="106" on="1"/>
        <pt x="482" y="106" on="1"/>
        <pt x="482" y="0" on="1"/>
        <pt x="69" y="0" on="1"/>
      </contour>
      <contour>
        <pt x="280" y="695" on="1"/>
        <pt x="170" y="695" on="1"/>
        <pt x="250" y="819" on="1"/>
        <pt x="395" y="819" on="1"/>
      </contour>
    </TTGlyph>
    <TTGlyph name="Ebreve" xMin="69" yMin="0" xMax="482" yMax="822">
      <contour>
        <pt x="69" y="630" on="1"/>
        <pt x="479" y="630" on="1"/>
        <pt x="479" y="524" on="1"/>
        <pt x="206" y="524" on="1"/>
        <pt x="206" y="380" on="1"/>
        <pt x="453" y="380" on="1"/>
        <pt x="453" y="275" on="1"/>
        <pt x="206" y="275" on="1"/>
        <pt x="206" y="106" on="1"/>
        <pt x="482" y="106" on="1"/>
        <pt x="482" y="0" on="1"/>
        <pt x="69" y="0" on="1"/>
      </contour>
      <contour>
        <pt x="223" y="822" on="1"/>
        <pt x="225" y="797" on="0"/>
        <pt x="250" y="767" on="0"/>
        <pt x="281" y="767" on="1"/>
        <pt x="334" y="767" on="0"/>
        <pt x="337" y="822" on="1"/>
        <pt x="414" y="822" on="1"/>
        <pt x="414" y="762" on="0"/>
        <pt x="345" y="694" on="0"/>
        <pt x="280" y="694" on="1"/>
        <pt x="244" y="694" on="0"/>
        <pt x="193" y="715" on="0"/>
        <pt x="160" y="750" on="0"/>
        <pt x="145" y="796" on="0"/>
        <pt x="145" y="822" on="1"/>
      </contour>
    </TTGlyph>
    <TTGlyph name="Ecaron" xMin="69" yMin="0" xMax="482" yMax="822">
      <contour>
        <pt x="69" y="630" on="1"/>
        <pt x="479" y="630" on="1"/>
        <pt x="479" y="524" on="1"/>
        <pt x="206" y="524" on="1"/>
        <pt x="206" y="380" on="1"/>
        <pt x="453" y="380" on="1"/>
        <pt x="453" y="275" on="1"/>
        <pt x="206" y="275" on="1"/>
        <pt x="206" y="106" on="1"/>
        <pt x="482" y="106" on="1"/>
        <pt x="482" y="0" on="1"/>
        <pt x="69" y="0" on="1"/>
      </contour>
      <contour>
        <pt x="329" y="695" on="1"/>
        <pt x="230" y="695" on="1"/>
        <pt x="113" y="822" on="1"/>
        <pt x="215" y="822" on="1"/>
        <pt x="280" y="752" on="1"/>
        <pt x="345" y="822" on="1"/>
        <pt x="444" y="822" on="1"/>
      </contour>
    </TTGlyph>
    <TTGlyph name="Ecircumflex" xMin="69" yMin="0" xMax="482" yMax="821">
      <contour>
        <pt x="69" y="630" on="1"/>
        <pt x="479" y="630" on="1"/>
        <pt x="479" y="524" on="1"/>
        <pt x="206" y="524" on="1"/>
        <pt x="206" y="380" on="1"/>
        <pt x="453" y="380" on="1"/>
        <pt x="453" y="275" on="1"/>
        <pt x="206" y="275" on="1"/>
        <pt x="206" y="106" on="1"/>
        <pt x="482" y="106" on="1"/>
        <pt x="482" y="0" on="1"/>
        <pt x="69" y="0" on="1"/>
      </contour>
      <contour>
        <pt x="218" y="821" on="1"/>
        <pt x="317" y="821" on="1"/>
        <pt x="435" y="695" on="1"/>
        <pt x="332" y="695" on="1"/>
        <pt x="267" y="764" on="1"/>
        <pt x="202" y="695" on="1"/>
        <pt x="104" y="695" on="1"/>
      </contour>
    </TTGlyph>
    <TTGlyph name="Edieresis" xMin="69" yMin="0" xMax="482" yMax="813">
      <contour>
        <pt x="69" y="630" on="1"/>
        <pt x="479" y="630" on="1"/>
        <pt x="479" y="524" on="1"/>
        <pt x="206" y="524" on="1"/>
        <pt x="206" y="380" on="1"/>
        <pt x="453" y="380" on="1"/>
        <pt x="453" y="275" on="1"/>
        <pt x="206" y="275" on="1"/>
        <pt x="206" y="106" on="1"/>
        <pt x="482" y="106" on="1"/>
        <pt x="482" y="0" on="1"/>
        <pt x="69" y="0" on="1"/>
      </contour>
      <contour>
        <pt x="113" y="751" on="1"/>
        <pt x="113" y="777" on="0"/>
        <pt x="150" y="813" on="0"/>
        <pt x="176" y="813" on="1"/>
        <pt x="202" y="813" on="0"/>
        <pt x="239" y="777" on="0"/>
        <pt x="239" y="751" on="1"/>
        <pt x="239" y="724" on="0"/>
        <pt x="202" y="687" on="0"/>
        <pt x="176" y="687" on="1"/>
        <pt x="150" y="687" on="0"/>
        <pt x="113" y="724" on="0"/>
      </contour>
      <contour>
        <pt x="308" y="751" on="1"/>
        <pt x="308" y="777" on="0"/>
        <pt x="345" y="813" on="0"/>
        <pt x="371" y="813" on="1"/>
        <pt x="398" y="813" on="0"/>
        <pt x="434" y="777" on="0"/>
        <pt x="434" y="751" on="1"/>
        <pt x="434" y="724" on="0"/>
        <pt x="398" y="687" on="0"/>
        <pt x="371" y="687" on="1"/>
        <pt x="345" y="687" on="0"/>
        <pt x="308" y="724" on="0"/>
      </contour>
    </TTGlyph>
    <TTGlyph name="Edotaccent" xMin="69" yMin="0" xMax="482" yMax="816">
      <contour>
        <pt x="69" y="630" on="1"/>
        <pt x="479" y="630" on="1"/>
        <pt x="479" y="524" on="1"/>
        <pt x="206" y="524" on="1"/>
        <pt x="206" y="380" on="1"/>
        <pt x="453" y="380" on="1"/>
        <pt x="453" y="275" on="1"/>
        <pt x="206" y="275" on="1"/>
        <pt x="206" y="106" on="1"/>
        <pt x="482" y="106" on="1"/>
        <pt x="482" y="0" on="1"/>
        <pt x="69" y="0" on="1"/>
      </contour>
      <contour>
        <pt x="218" y="753" on="1"/>
        <pt x="218" y="779" on="0"/>
        <pt x="256" y="816" on="0"/>
        <pt x="283" y="816" on="1"/>
        <pt x="310" y="816" on="0"/>
        <pt x="347" y="779" on="0"/>
        <pt x="347" y="753" on="1"/>
        <pt x="347" y="725" on="0"/>
        <pt x="310" y="687" on="0"/>
        <pt x="283" y="687" on="1"/>
        <pt x="256" y="687" on="0"/>
        <pt x="218" y="725" on="0"/>
      </contour>
    </TTGlyph>
    <TTGlyph name="Egrave" xMin="69" yMin="0" xMax="482" yMax="819">
      <contour>
        <pt x="69" y="630" on="1"/>
        <pt x="479" y="630" on="1"/>
        <pt x="479" y="524" on="1"/>
        <pt x="206" y="524" on="1"/>
        <pt x="206" y="380" on="1"/>
        <pt x="453" y="380" on="1"/>
        <pt x="453" y="275" on="1"/>
        <pt x="206" y="275" on="1"/>
        <pt x="206" y="106" on="1"/>
        <pt x="482" y="106" on="1"/>
        <pt x="482" y="0" on="1"/>
        <pt x="69" y="0" on="1"/>
      </contour>
      <contour>
        <pt x="162" y="819" on="1"/>
        <pt x="307" y="819" on="1"/>
        <pt x="387" y="695" on="1"/>
        <pt x="277" y="695" on="1"/>
      </contour>
    </TTGlyph>
    <TTGlyph name="Eight.tm" xMin="13" yMin="-112" xMax="1017" yMax="512">
      <contour>
        <pt x="672" y="201" on="1"/>
        <pt x="675" y="217" on="0"/>
        <pt x="675" y="242" on="1"/>
        <pt x="675" y="280" on="0"/>
        <pt x="654" y="344" on="0"/>
        <pt x="616" y="390" on="0"/>
        <pt x="560" y="416" on="0"/>
        <pt x="526" y="416" on="1"/>
        <pt x="483" y="416" on="0"/>
        <pt x="434" y="373" on="0"/>
        <pt x="434" y="338" on="1"/>
        <pt x="434" y="321" on="0"/>
        <pt x="446" y="295" on="0"/>
        <pt x="454" y="287" on="1"/>
        <pt x="377" y="236" on="1"/>
        <pt x="357" y="250" on="0"/>
        <pt x="324" y="305" on="0"/>
        <pt x="324" y="343" on="1"/>
        <pt x="324" y="378" on="0"/>
        <pt x="352" y="440" on="0"/>
        <pt x="404" y="486" on="0"/>
        <pt x="481" y="512" on="0"/>
        <pt x="529" y="512" on="1"/>
        <pt x="589" y="512" on="0"/>
        <pt x="686" y="472" on="0"/>
        <pt x="755" y="398" on="0"/>
        <pt x="792" y="296" on="0"/>
        <pt x="792" y="235" on="1"/>
        <pt x="792" y="214" on="0"/>
        <pt x="789" y="201" on="1"/>
        <pt x="898" y="201" on="1"/>
        <pt x="898" y="503" on="1"/>
        <pt x="1017" y="503" on="1"/>
        <pt x="1017" y="-112" on="1"/>
        <pt x="898" y="-112" on="1"/>
        <pt x="898" y="106" on="1"/>
        <pt x="778" y="106" on="1"/>
        <pt x="760" y="55" on="0"/>
        <pt x="683" y="-24" on="0"/>
        <pt x="576" y="-77" on="0"/>
        <pt x="442" y="-105" on="0"/>
        <pt x="366" y="-105" on="1"/>
        <pt x="285" y="-105" on="0"/>
        <pt x="154" y="-78" on="0"/>
        <pt x="63" y="-28" on="0"/>
        <pt x="13" y="44" on="0"/>
        <pt x="13" y="89" on="1"/>
        <pt x="13" y="142" on="0"/>
        <pt x="87" y="201" on="0"/>
        <pt x="154" y="201" on="1"/>
      </contour>
      <contour>
        <pt x="370" y="-4" on="1"/>
        <pt x="476" y="-4" on="0"/>
        <pt x="618" y="54" on="0"/>
        <pt x="648" y="106" on="1"/>
        <pt x="172" y="106" on="1"/>
        <pt x="137" y="106" on="0"/>
        <pt x="137" y="78" on="1"/>
        <pt x="137" y="60" on="0"/>
        <pt x="170" y="30" on="0"/>
        <pt x="231" y="8" on="0"/>
        <pt x="317" y="-4" on="0"/>
      </contour>
    </TTGlyph>
    <TTGlyph name="Ek_Type" xMin="100" yMin="-312" xMax="1089" yMax="636">
      <contour>
        <pt x="800" y="531" on="1"/>
        <pt x="800" y="403" on="1"/>
        <pt x="814" y="421" on="0"/>
        <pt x="867" y="447" on="0"/>
        <pt x="902" y="447" on="1"/>
        <pt x="977" y="447" on="0"/>
        <pt x="1062" y="351" on="0"/>
        <pt x="1062" y="266" on="1"/>
        <pt x="1062" y="224" on="0"/>
        <pt x="1037" y="156" on="0"/>
        <pt x="991" y="107" on="0"/>
        <pt x="925" y="81" on="0"/>
        <pt x="885" y="81" on="1"/>
        <pt x="876" y="81" on="0"/>
        <pt x="852" y="84" on="0"/>
        <pt x="841" y="87" on="1"/>
        <pt x="854" y="184" on="1"/>
        <pt x="869" y="184" on="1"/>
        <pt x="927" y="184" on="0"/>
        <pt x="927" y="266" on="1"/>
        <pt x="927" y="301" on="0"/>
        <pt x="894" y="340" on="0"/>
        <pt x="865" y="340" on="1"/>
        <pt x="836" y="340" on="0"/>
        <pt x="807" y="299" on="0"/>
        <pt x="803" y="276" on="1"/>
        <pt x="803" y="0" on="1"/>
        <pt x="672" y="0" on="1"/>
        <pt x="672" y="113" on="1"/>
        <pt x="657" y="95" on="0"/>
        <pt x="603" y="74" on="0"/>
        <pt x="579" y="74" on="1"/>
        <pt x="549" y="74" on="0"/>
        <pt x="489" y="94" on="0"/>
        <pt x="441" y="139" on="0"/>
        <pt x="411" y="211" on="0"/>
        <pt x="411" y="263" on="1"/>
        <pt x="411" y="352" on="0"/>
        <pt x="493" y="447" on="0"/>
        <pt x="568" y="447" on="1"/>
        <pt x="600" y="447" on="0"/>
        <pt x="654" y="428" on="0"/>
        <pt x="672" y="411" on="1"/>
        <pt x="672" y="531" on="1"/>
        <pt x="330" y="531" on="1"/>
        <pt x="330" y="50" on="1"/>
        <pt x="549" y="-40" on="0"/>
        <pt x="818" y="-164" on="0"/>
        <pt x="883" y="-197" on="1"/>
        <pt x="822" y="-312" on="1"/>
        <pt x="778" y="-291" on="0"/>
        <pt x="661" y="-235" on="0"/>
        <pt x="507" y="-163" on="0"/>
        <pt x="314" y="-73" on="0"/>
        <pt x="195" y="-18" on="1"/>
        <pt x="195" y="531" on="1"/>
        <pt x="100" y="531" on="1"/>
        <pt x="100" y="636" on="1"/>
        <pt x="1089" y="636" on="1"/>
        <pt x="1089" y="531" on="1"/>
      </contour>
      <contour>
        <pt x="675" y="309" on="1"/>
        <pt x="665" y="320" on="0"/>
        <pt x="633" y="338" on="0"/>
        <pt x="613" y="338" on="1"/>
        <pt x="584" y="338" on="0"/>
        <pt x="548" y="297" on="0"/>
        <pt x="548" y="262" on="1"/>
        <pt x="548" y="225" on="0"/>
        <pt x="582" y="182" on="0"/>
        <pt x="611" y="182" on="1"/>
        <pt x="667" y="182" on="0"/>
        <pt x="675" y="236" on="1"/>
      </contour>
    </TTGlyph>
    <TTGlyph name="Emacron" xMin="69" yMin="0" xMax="482" yMax="772">
      <contour>
        <pt x="69" y="630" on="1"/>
        <pt x="479" y="630" on="1"/>
        <pt x="479" y="524" on="1"/>
        <pt x="206" y="524" on="1"/>
        <pt x="206" y="380" on="1"/>
        <pt x="453" y="380" on="1"/>
        <pt x="453" y="275" on="1"/>
        <pt x="206" y="275" on="1"/>
        <pt x="206" y="106" on="1"/>
        <pt x="482" y="106" on="1"/>
        <pt x="482" y="0" on="1"/>
        <pt x="69" y="0" on="1"/>
      </contour>
      <contour>
        <pt x="398" y="772" on="1"/>
        <pt x="398" y="695" on="1"/>
        <pt x="142" y="695" on="1"/>
        <pt x="142" y="772" on="1"/>
      </contour>
    </TTGlyph>
    <TTGlyph name="Eng" xMin="69" yMin="-247" xMax="601" yMax="630">
      <contour>
        <pt x="69" y="630" on="1"/>
        <pt x="194" y="630" on="1"/>
        <pt x="411" y="288" on="1"/>
        <pt x="433" y="254" on="0"/>
        <pt x="470" y="189" on="0"/>
        <pt x="478" y="171" on="1"/>
        <pt x="480" y="171" on="1"/>
        <pt x="474" y="236" on="0"/>
        <pt x="474" y="365" on="0"/>
        <pt x="474" y="431" on="1"/>
        <pt x="474" y="630" on="1"/>
        <pt x="601" y="630" on="1"/>
        <pt x="601" y="89" on="1"/>
        <pt x="601" y="30" on="0"/>
        <pt x="584" y="-71" on="0"/>
        <pt x="541" y="-156" on="0"/>
        <pt x="469" y="-223" on="0"/>
        <pt x="414" y="-247" on="1"/>
        <pt x="358" y="-156" on="1"/>
        <pt x="402" y="-129" on="0"/>
        <pt x="460" y="-58" on="0"/>
        <pt x="471" y="-2" on="1"/>
        <pt x="274" y="306" on="1"/>
        <pt x="261" y="326" on="0"/>
        <pt x="236" y="369" on="0"/>
        <pt x="214" y="409" on="0"/>
        <pt x="197" y="442" on="0"/>
        <pt x="193" y="453" on="1"/>
        <pt x="191" y="453" on="1"/>
        <pt x="196" y="384" on="0"/>
        <pt x="197" y="257" on="0"/>
        <pt x="197" y="191" on="1"/>
        <pt x="197" y="0" on="1"/>
        <pt x="69" y="0" on="1"/>
      </contour>
    </TTGlyph>
    <TTGlyph name="Eogonek" xMin="69" yMin="-206" xMax="531" yMax="630">
      <contour>
        <pt x="69" y="630" on="1"/>
        <pt x="479" y="630" on="1"/>
        <pt x="479" y="524" on="1"/>
        <pt x="206" y="524" on="1"/>
        <pt x="206" y="380" on="1"/>
        <pt x="453" y="380" on="1"/>
        <pt x="453" y="275" on="1"/>
        <pt x="206" y="275" on="1"/>
        <pt x="206" y="106" on="1"/>
        <pt x="482" y="106" on="1"/>
        <pt x="482" y="0" on="1"/>
        <pt x="458" y="-18" on="0"/>
        <pt x="427" y="-57" on="0"/>
        <pt x="427" y="-80" on="1"/>
        <pt x="427" y="-100" on="0"/>
        <pt x="451" y="-124" on="0"/>
        <pt x="471" y="-124" on="1"/>
        <pt x="485" y="-124" on="0"/>
        <pt x="505" y="-119" on="0"/>
        <pt x="513" y="-116" on="1"/>
        <pt x="531" y="-184" on="1"/>
        <pt x="498" y="-206" on="0"/>
        <pt x="446" y="-206" on="1"/>
        <pt x="400" y="-206" on="0"/>
        <pt x="339" y="-152" on="0"/>
        <pt x="339" y="-105" on="1"/>
        <pt x="339" y="-70" on="0"/>
        <pt x="371" y="-18" on="0"/>
        <pt x="391" y="-3" on="1"/>
        <pt x="391" y="0" on="1"/>
        <pt x="69" y="0" on="1"/>
      </contour>
    </TTGlyph>
    <TTGlyph name="Esmall" xMin="63" yMin="0" xMax="405" yMax="477">
      <contour>
        <pt x="63" y="477" on="1"/>
        <pt x="403" y="477" on="1"/>
        <pt x="403" y="379" on="1"/>
        <pt x="194" y="379" on="1"/>
        <pt x="194" y="291" on="1"/>
        <pt x="381" y="291" on="1"/>
        <pt x="381" y="194" on="1"/>
        <pt x="194" y="194" on="1"/>
        <pt x="194" y="98" on="1"/>
        <pt x="405" y="98" on="1"/>
        <pt x="405" y="0" on="1"/>
        <pt x="63" y="0" on="1"/>
      </contour>
    </TTGlyph>
    <TTGlyph name="Eth" xMin="22" yMin="0" xMax="653" yMax="630">
      <contour>
        <pt x="327" y="630" on="1"/>
        <pt x="400" y="630" on="0"/>
        <pt x="520" y="592" on="0"/>
        <pt x="606" y="516" on="0"/>
        <pt x="653" y="403" on="0"/>
        <pt x="653" y="328" on="1"/>
        <pt x="653" y="242" on="0"/>
        <pt x="597" y="119" on="0"/>
        <pt x="501" y="38" on="0"/>
        <pt x="372" y="0" on="0"/>
        <pt x="299" y="0" on="1"/>
        <pt x="107" y="0" on="1"/>
        <pt x="107" y="275" on="1"/>
        <pt x="22" y="275" on="1"/>
        <pt x="22" y="367" on="1"/>
        <pt x="107" y="367" on="1"/>
        <pt x="107" y="630" on="1"/>
      </contour>
      <contour>
        <pt x="360" y="367" on="1"/>
        <pt x="360" y="275" on="1"/>
        <pt x="244" y="275" on="1"/>
        <pt x="244" y="106" on="1"/>
        <pt x="290" y="106" on="1"/>
        <pt x="332" y="106" on="0"/>
        <pt x="411" y="127" on="0"/>
        <pt x="472" y="178" on="0"/>
        <pt x="508" y="263" on="0"/>
        <pt x="508" y="328" on="1"/>
        <pt x="508" y="423" on="0"/>
        <pt x="400" y="524" on="0"/>
        <pt x="309" y="524" on="1"/>
        <pt x="244" y="524" on="1"/>
        <pt x="244" y="367" on="1"/>
      </contour>
    </TTGlyph>
    <TTGlyph name="Euro" xMin="20" yMin="-9" xMax="455" yMax="513">
      <contour>
        <pt x="313" y="513" on="1"/>
        <pt x="367" y="513" on="0"/>
        <pt x="433" y="492" on="0"/>
        <pt x="455" y="479" on="1"/>
        <pt x="426" y="394" on="1"/>
        <pt x="406" y="406" on="0"/>
        <pt x="355" y="422" on="0"/>
        <pt x="324" y="422" on="1"/>
        <pt x="279" y="422" on="0"/>
        <pt x="206" y="376" on="0"/>
        <pt x="195" y="322" on="1"/>
        <pt x="389" y="322" on="1"/>
        <pt x="389" y="264" on="1"/>
        <pt x="189" y="264" on="1"/>
        <pt x="189" y="222" on="1"/>
        <pt x="389" y="222" on="1"/>
        <pt x="389" y="164" on="1"/>
        <pt x="200" y="164" on="1"/>
        <pt x="216" y="120" on="0"/>
        <pt x="280" y="83" on="0"/>
        <pt x="322" y="83" on="1"/>
        <pt x="358" y="83" on="0"/>
        <pt x="409" y="96" on="0"/>
        <pt x="428" y="107" on="1"/>
        <pt x="453" y="23" on="1"/>
        <pt x="433" y="11" on="0"/>
        <pt x="363" y="-9" on="0"/>
        <pt x="311" y="-9" on="1"/>
        <pt x="222" y="-9" on="0"/>
        <pt x="99" y="79" on="0"/>
        <pt x="79" y="164" on="1"/>
        <pt x="20" y="164" on="1"/>
        <pt x="20" y="222" on="1"/>
        <pt x="71" y="222" on="1"/>
        <pt x="70" y="231" on="0"/>
        <pt x="70" y="245" on="0"/>
        <pt x="70" y="253" on="1"/>
        <pt x="70" y="264" on="1"/>
        <pt x="20" y="264" on="1"/>
        <pt x="20" y="322" on="1"/>
        <pt x="76" y="322" on="1"/>
        <pt x="93" y="413" on="0"/>
        <pt x="214" y="513" on="0"/>
      </contour>
    </TTGlyph>
    <TTGlyph name="Euro.lat" xMin="5" yMin="-11" xMax="537" yMax="641">
      <contour>
        <pt x="378" y="95" on="1"/>
        <pt x="422" y="95" on="0"/>
        <pt x="485" y="111" on="0"/>
        <pt x="508" y="125" on="1"/>
        <pt x="536" y="25" on="1"/>
        <pt x="512" y="11" on="0"/>
        <pt x="427" y="-11" on="0"/>
        <pt x="363" y="-11" on="1"/>
        <pt x="309" y="-11" on="0"/>
        <pt x="215" y="18" on="0"/>
        <pt x="141" y="74" on="0"/>
        <pt x="88" y="158" on="0"/>
        <pt x="76" y="212" on="1"/>
        <pt x="5" y="212" on="1"/>
        <pt x="5" y="278" on="1"/>
        <pt x="66" y="278" on="1"/>
        <pt x="65" y="289" on="0"/>
        <pt x="65" y="306" on="0"/>
        <pt x="65" y="316" on="1"/>
        <pt x="65" y="330" on="1"/>
        <pt x="5" y="330" on="1"/>
        <pt x="5" y="396" on="1"/>
        <pt x="72" y="396" on="1"/>
        <pt x="92" y="513" on="0"/>
        <pt x="245" y="641" on="0"/>
        <pt x="366" y="641" on="1"/>
        <pt x="431" y="641" on="0"/>
        <pt x="511" y="617" on="0"/>
        <pt x="537" y="603" on="1"/>
        <pt x="506" y="502" on="1"/>
        <pt x="480" y="516" on="0"/>
        <pt x="418" y="535" on="0"/>
        <pt x="380" y="535" on="1"/>
        <pt x="351" y="535" on="0"/>
        <pt x="298" y="520" on="0"/>
        <pt x="255" y="486" on="0"/>
        <pt x="224" y="433" on="0"/>
        <pt x="217" y="396" on="1"/>
        <pt x="457" y="396" on="1"/>
        <pt x="457" y="330" on="1"/>
        <pt x="209" y="330" on="1"/>
        <pt x="209" y="318" on="1"/>
        <pt x="209" y="307" on="0"/>
        <pt x="209" y="289" on="0"/>
        <pt x="210" y="278" on="1"/>
        <pt x="457" y="278" on="1"/>
        <pt x="457" y="212" on="1"/>
        <pt x="223" y="212" on="1"/>
        <pt x="241" y="149" on="0"/>
        <pt x="325" y="95" on="0"/>
      </contour>
    </TTGlyph>
    <TTGlyph name="F" xMin="69" yMin="0" xMax="469" yMax="630">
      <contour>
        <pt x="469" y="630" on="1"/>
        <pt x="469" y="524" on="1"/>
        <pt x="206" y="524" on="1"/>
        <pt x="206" y="357" on="1"/>
        <pt x="447" y="357" on="1"/>
        <pt x="447" y="252" on="1"/>
        <pt x="206" y="252" on="1"/>
        <pt x="206" y="0" on="1"/>
        <pt x="69" y="0" on="1"/>
        <pt x="69" y="630" on="1"/>
      </contour>
    </TTGlyph>
    <TTGlyph name="Five.tm" xMin="36" yMin="-262" xMax="962" yMax="753">
      <contour>
        <pt x="778" y="319" on="1"/>
        <pt x="820" y="319" on="0"/>
        <pt x="888" y="288" on="0"/>
        <pt x="936" y="232" on="0"/>
        <pt x="962" y="151" on="0"/>
        <pt x="962" y="102" on="1"/>
        <pt x="962" y="24" on="0"/>
        <pt x="898" y="-110" on="0"/>
        <pt x="782" y="-207" on="0"/>
        <pt x="620" y="-262" on="0"/>
        <pt x="523" y="-262" on="1"/>
        <pt x="416" y="-262" on="0"/>
        <pt x="238" y="-197" on="0"/>
        <pt x="108" y="-72" on="0"/>
        <pt x="36" y="110" on="0"/>
        <pt x="36" y="227" on="1"/>
        <pt x="36" y="346" on="0"/>
        <pt x="108" y="540" on="0"/>
        <pt x="243" y="678" on="0"/>
        <pt x="436" y="753" on="0"/>
        <pt x="558" y="753" on="1"/>
        <pt x="623" y="753" on="0"/>
        <pt x="733" y="731" on="0"/>
        <pt x="822" y="698" on="0"/>
        <pt x="889" y="660" on="0"/>
        <pt x="911" y="643" on="1"/>
        <pt x="863" y="562" on="1"/>
        <pt x="838" y="578" on="0"/>
        <pt x="775" y="611" on="0"/>
        <pt x="697" y="637" on="0"/>
        <pt x="606" y="653" on="0"/>
        <pt x="553" y="653" on="1"/>
        <pt x="458" y="653" on="0"/>
        <pt x="311" y="596" on="0"/>
        <pt x="211" y="486" on="0"/>
        <pt x="159" y="328" on="0"/>
        <pt x="159" y="228" on="1"/>
        <pt x="159" y="134" on="0"/>
        <pt x="210" y="-12" on="0"/>
        <pt x="305" y="-111" on="0"/>
        <pt x="442" y="-163" on="0"/>
        <pt x="528" y="-163" on="1"/>
        <pt x="603" y="-163" on="0"/>
        <pt x="719" y="-124" on="0"/>
        <pt x="797" y="-53" on="0"/>
        <pt x="838" y="43" on="0"/>
        <pt x="838" y="100" on="1"/>
        <pt x="838" y="160" on="0"/>
        <pt x="793" y="226" on="0"/>
        <pt x="753" y="226" on="1"/>
        <pt x="716" y="226" on="0"/>
        <pt x="691" y="199" on="1"/>
        <pt x="691" y="0" on="1"/>
        <pt x="572" y="0" on="1"/>
        <pt x="572" y="409" on="1"/>
        <pt x="440" y="409" on="1"/>
        <pt x="440" y="0" on="1"/>
        <pt x="318" y="0" on="1"/>
        <pt x="318" y="503" on="1"/>
        <pt x="856" y="503" on="1"/>
        <pt x="856" y="409" on="1"/>
        <pt x="691" y="409" on="1"/>
        <pt x="691" y="293" on="1"/>
        <pt x="729" y="319" on="0"/>
      </contour>
    </TTGlyph>
    <TTGlyph name="Four.tm" xMin="23" yMin="-10" xMax="741" yMax="503">
      <contour>
        <pt x="741" y="503" on="1"/>
        <pt x="741" y="215" on="1"/>
        <pt x="448" y="215" on="1"/>
        <pt x="448" y="161" on="1"/>
        <pt x="448" y="81" on="0"/>
        <pt x="342" y="-10" on="0"/>
        <pt x="241" y="-10" on="1"/>
        <pt x="194" y="-10" on="0"/>
        <pt x="114" y="14" on="0"/>
        <pt x="56" y="58" on="0"/>
        <pt x="23" y="120" on="0"/>
        <pt x="23" y="159" on="1"/>
        <pt x="23" y="186" on="0"/>
        <pt x="40" y="231" on="0"/>
        <pt x="67" y="266" on="0"/>
        <pt x="102" y="288" on="0"/>
        <pt x="120" y="292" on="1"/>
        <pt x="120" y="503" on="1"/>
        <pt x="576" y="503" on="1"/>
        <pt x="576" y="413" on="1"/>
        <pt x="448" y="413" on="1"/>
        <pt x="448" y="301" on="1"/>
        <pt x="635" y="301" on="1"/>
        <pt x="635" y="503" on="1"/>
      </contour>
      <contour>
        <pt x="212" y="215" on="1"/>
        <pt x="179" y="215" on="0"/>
        <pt x="141" y="184" on="0"/>
        <pt x="141" y="155" on="1"/>
        <pt x="141" y="122" on="0"/>
        <pt x="194" y="81" on="0"/>
        <pt x="242" y="81" on="1"/>
        <pt x="287" y="81" on="0"/>
        <pt x="337" y="125" on="0"/>
        <pt x="337" y="163" on="1"/>
        <pt x="337" y="215" on="1"/>
      </contour>
      <contour>
        <pt x="231" y="303" on="1"/>
        <pt x="339" y="303" on="1"/>
        <pt x="339" y="413" on="1"/>
        <pt x="231" y="413" on="1"/>
      </contour>
    </TTGlyph>
    <TTGlyph name="Fsmall" xMin="63" yMin="0" xMax="394" yMax="477">
      <contour>
        <pt x="394" y="477" on="1"/>
        <pt x="394" y="379" on="1"/>
        <pt x="196" y="379" on="1"/>
        <pt x="196" y="272" on="1"/>
        <pt x="376" y="272" on="1"/>
        <pt x="376" y="174" on="1"/>
        <pt x="196" y="174" on="1"/>
        <pt x="196" y="0" on="1"/>
        <pt x="63" y="0" on="1"/>
        <pt x="63" y="477" on="1"/>
      </contour>
    </TTGlyph>
    <TTGlyph name="G" xMin="40" yMin="-11" xMax="581" yMax="641">
      <contour>
        <pt x="371" y="641" on="1"/>
        <pt x="430" y="641" on="0"/>
        <pt x="522" y="621" on="0"/>
        <pt x="559" y="604" on="1"/>
        <pt x="530" y="511" on="1"/>
        <pt x="495" y="528" on="0"/>
        <pt x="421" y="544" on="0"/>
        <pt x="385" y="544" on="1"/>
        <pt x="344" y="544" on="0"/>
        <pt x="271" y="518" on="0"/>
        <pt x="217" y="462" on="0"/>
        <pt x="185" y="375" on="0"/>
        <pt x="185" y="314" on="1"/>
        <pt x="185" y="205" on="0"/>
        <pt x="282" y="88" on="0"/>
        <pt x="372" y="88" on="1"/>
        <pt x="424" y="88" on="0"/>
        <pt x="450" y="98" on="1"/>
        <pt x="450" y="245" on="1"/>
        <pt x="346" y="245" on="1"/>
        <pt x="346" y="347" on="1"/>
        <pt x="581" y="347" on="1"/>
        <pt x="581" y="28" on="1"/>
        <pt x="542" y="11" on="0"/>
        <pt x="438" y="-11" on="0"/>
        <pt x="371" y="-11" on="1"/>
        <pt x="301" y="-11" on="0"/>
        <pt x="180" y="31" on="0"/>
        <pt x="91" y="114" on="0"/>
        <pt x="40" y="235" on="0"/>
        <pt x="40" y="314" on="1"/>
        <pt x="40" y="393" on="0"/>
        <pt x="91" y="516" on="0"/>
        <pt x="179" y="598" on="0"/>
        <pt x="300" y="641" on="0"/>
      </contour>
    </TTGlyph>
    <TTGlyph name="Gbreve" xMin="40" yMin="-11" xMax="581" yMax="822">
      <contour>
        <pt x="371" y="641" on="1"/>
        <pt x="430" y="641" on="0"/>
        <pt x="522" y="621" on="0"/>
        <pt x="559" y="604" on="1"/>
        <pt x="530" y="511" on="1"/>
        <pt x="495" y="528" on="0"/>
        <pt x="421" y="544" on="0"/>
        <pt x="385" y="544" on="1"/>
        <pt x="344" y="544" on="0"/>
        <pt x="271" y="518" on="0"/>
        <pt x="217" y="462" on="0"/>
        <pt x="185" y="375" on="0"/>
        <pt x="185" y="314" on="1"/>
        <pt x="185" y="205" on="0"/>
        <pt x="282" y="88" on="0"/>
        <pt x="372" y="88" on="1"/>
        <pt x="424" y="88" on="0"/>
        <pt x="450" y="98" on="1"/>
        <pt x="450" y="245" on="1"/>
        <pt x="346" y="245" on="1"/>
        <pt x="346" y="347" on="1"/>
        <pt x="581" y="347" on="1"/>
        <pt x="581" y="28" on="1"/>
        <pt x="542" y="11" on="0"/>
        <pt x="438" y="-11" on="0"/>
        <pt x="371" y="-11" on="1"/>
        <pt x="301" y="-11" on="0"/>
        <pt x="180" y="31" on="0"/>
        <pt x="91" y="114" on="0"/>
        <pt x="40" y="235" on="0"/>
        <pt x="40" y="314" on="1"/>
        <pt x="40" y="393" on="0"/>
        <pt x="91" y="516" on="0"/>
        <pt x="179" y="598" on="0"/>
        <pt x="300" y="641" on="0"/>
      </contour>
      <contour>
        <pt x="315" y="822" on="1"/>
        <pt x="317" y="797" on="0"/>
        <pt x="342" y="767" on="0"/>
        <pt x="372" y="767" on="1"/>
        <pt x="426" y="767" on="0"/>
        <pt x="429" y="822" on="1"/>
        <pt x="506" y="822" on="1"/>
        <pt x="506" y="762" on="0"/>
        <pt x="437" y="694" on="0"/>
        <pt x="372" y="694" on="1"/>
        <pt x="336" y="694" on="0"/>
        <pt x="285" y="715" on="0"/>
        <pt x="252" y="750" on="0"/>
        <pt x="237" y="796" on="0"/>
        <pt x="237" y="822" on="1"/>
      </contour>
    </TTGlyph>
    <TTGlyph name="Gcircumflex" xMin="40" yMin="-11" xMax="581" yMax="821">
      <contour>
        <pt x="371" y="641" on="1"/>
        <pt x="430" y="641" on="0"/>
        <pt x="522" y="621" on="0"/>
        <pt x="559" y="604" on="1"/>
        <pt x="530" y="511" on="1"/>
        <pt x="495" y="528" on="0"/>
        <pt x="421" y="544" on="0"/>
        <pt x="385" y="544" on="1"/>
        <pt x="344" y="544" on="0"/>
        <pt x="271" y="518" on="0"/>
        <pt x="217" y="462" on="0"/>
        <pt x="185" y="375" on="0"/>
        <pt x="185" y="314" on="1"/>
        <pt x="185" y="205" on="0"/>
        <pt x="282" y="88" on="0"/>
        <pt x="372" y="88" on="1"/>
        <pt x="424" y="88" on="0"/>
        <pt x="450" y="98" on="1"/>
        <pt x="450" y="245" on="1"/>
        <pt x="346" y="245" on="1"/>
        <pt x="346" y="347" on="1"/>
        <pt x="581" y="347" on="1"/>
        <pt x="581" y="28" on="1"/>
        <pt x="542" y="11" on="0"/>
        <pt x="438" y="-11" on="0"/>
        <pt x="371" y="-11" on="1"/>
        <pt x="301" y="-11" on="0"/>
        <pt x="180" y="31" on="0"/>
        <pt x="91" y="114" on="0"/>
        <pt x="40" y="235" on="0"/>
        <pt x="40" y="314" on="1"/>
        <pt x="40" y="393" on="0"/>
        <pt x="91" y="516" on="0"/>
        <pt x="179" y="598" on="0"/>
        <pt x="300" y="641" on="0"/>
      </contour>
      <contour>
        <pt x="296" y="821" on="1"/>
        <pt x="395" y="821" on="1"/>
        <pt x="513" y="695" on="1"/>
        <pt x="410" y="695" on="1"/>
        <pt x="345" y="764" on="1"/>
        <pt x="280" y="695" on="1"/>
        <pt x="182" y="695" on="1"/>
      </contour>
    </TTGlyph>
    <TTGlyph name="Gcommaaccent" xMin="40" yMin="-334" xMax="581" yMax="641">
      <contour>
        <pt x="371" y="641" on="1"/>
        <pt x="430" y="641" on="0"/>
        <pt x="522" y="621" on="0"/>
        <pt x="559" y="604" on="1"/>
        <pt x="530" y="511" on="1"/>
        <pt x="495" y="528" on="0"/>
        <pt x="421" y="544" on="0"/>
        <pt x="385" y="544" on="1"/>
        <pt x="344" y="544" on="0"/>
        <pt x="271" y="518" on="0"/>
        <pt x="217" y="462" on="0"/>
        <pt x="185" y="375" on="0"/>
        <pt x="185" y="314" on="1"/>
        <pt x="185" y="205" on="0"/>
        <pt x="282" y="88" on="0"/>
        <pt x="372" y="88" on="1"/>
        <pt x="424" y="88" on="0"/>
        <pt x="450" y="98" on="1"/>
        <pt x="450" y="245" on="1"/>
        <pt x="346" y="245" on="1"/>
        <pt x="346" y="347" on="1"/>
        <pt x="581" y="347" on="1"/>
        <pt x="581" y="28" on="1"/>
        <pt x="542" y="11" on="0"/>
        <pt x="438" y="-11" on="0"/>
        <pt x="371" y="-11" on="1"/>
        <pt x="301" y="-11" on="0"/>
        <pt x="180" y="31" on="0"/>
        <pt x="91" y="114" on="0"/>
        <pt x="40" y="235" on="0"/>
        <pt x="40" y="314" on="1"/>
        <pt x="40" y="393" on="0"/>
        <pt x="91" y="516" on="0"/>
        <pt x="179" y="598" on="0"/>
        <pt x="300" y="641" on="0"/>
      </contour>
      <contour>
        <pt x="361" y="-198" on="1"/>
        <pt x="336" y="-193" on="0"/>
        <pt x="302" y="-158" on="0"/>
        <pt x="302" y="-131" on="1"/>
        <pt x="302" y="-105" on="0"/>
        <pt x="338" y="-64" on="0"/>
        <pt x="370" y="-64" on="1"/>
        <pt x="383" y="-64" on="0"/>
        <pt x="411" y="-75" on="0"/>
        <pt x="434" y="-98" on="0"/>
        <pt x="449" y="-136" on="0"/>
        <pt x="449" y="-163" on="1"/>
        <pt x="449" y="-191" on="0"/>
        <pt x="430" y="-243" on="0"/>
        <pt x="399" y="-288" on="0"/>
        <pt x="359" y="-323" on="0"/>
        <pt x="337" y="-334" on="1"/>
        <pt x="306" y="-293" on="1"/>
        <pt x="332" y="-278" on="0"/>
        <pt x="373" y="-229" on="0"/>
        <pt x="378" y="-201" on="1"/>
      </contour>
    </TTGlyph>
    <TTGlyph name="Gdotaccent" xMin="40" yMin="-11" xMax="581" yMax="816">
      <contour>
        <pt x="371" y="641" on="1"/>
        <pt x="430" y="641" on="0"/>
        <pt x="522" y="621" on="0"/>
        <pt x="559" y="604" on="1"/>
        <pt x="530" y="511" on="1"/>
        <pt x="495" y="528" on="0"/>
        <pt x="421" y="544" on="0"/>
        <pt x="385" y="544" on="1"/>
        <pt x="344" y="544" on="0"/>
        <pt x="271" y="518" on="0"/>
        <pt x="217" y="462" on="0"/>
        <pt x="185" y="375" on="0"/>
        <pt x="185" y="314" on="1"/>
        <pt x="185" y="205" on="0"/>
        <pt x="282" y="88" on="0"/>
        <pt x="372" y="88" on="1"/>
        <pt x="424" y="88" on="0"/>
        <pt x="450" y="98" on="1"/>
        <pt x="450" y="245" on="1"/>
        <pt x="346" y="245" on="1"/>
        <pt x="346" y="347" on="1"/>
        <pt x="581" y="347" on="1"/>
        <pt x="581" y="28" on="1"/>
        <pt x="542" y="11" on="0"/>
        <pt x="438" y="-11" on="0"/>
        <pt x="371" y="-11" on="1"/>
        <pt x="301" y="-11" on="0"/>
        <pt x="180" y="31" on="0"/>
        <pt x="91" y="114" on="0"/>
        <pt x="40" y="235" on="0"/>
        <pt x="40" y="314" on="1"/>
        <pt x="40" y="393" on="0"/>
        <pt x="91" y="516" on="0"/>
        <pt x="179" y="598" on="0"/>
        <pt x="300" y="641" on="0"/>
      </contour>
      <contour>
        <pt x="306" y="753" on="1"/>
        <pt x="306" y="779" on="0"/>
        <pt x="345" y="816" on="0"/>
        <pt x="371" y="816" on="1"/>
        <pt x="399" y="816" on="0"/>
        <pt x="436" y="779" on="0"/>
        <pt x="436" y="753" on="1"/>
        <pt x="436" y="725" on="0"/>
        <pt x="399" y="687" on="0"/>
        <pt x="371" y="687" on="1"/>
        <pt x="345" y="687" on="0"/>
        <pt x="306" y="725" on="0"/>
      </contour>
    </TTGlyph>
    <TTGlyph name="Gsmall" xMin="40" yMin="-11" xMax="468" yMax="487">
      <contour>
        <pt x="305" y="87" on="1"/>
        <pt x="316" y="87" on="0"/>
        <pt x="342" y="91" on="0"/>
        <pt x="350" y="94" on="1"/>
        <pt x="350" y="174" on="1"/>
        <pt x="275" y="174" on="1"/>
        <pt x="275" y="269" on="1"/>
        <pt x="468" y="269" on="1"/>
        <pt x="468" y="17" on="1"/>
        <pt x="433" y="3" on="0"/>
        <pt x="345" y="-11" on="0"/>
        <pt x="298" y="-11" on="1"/>
        <pt x="243" y="-11" on="0"/>
        <pt x="149" y="20" on="0"/>
        <pt x="80" y="81" on="0"/>
        <pt x="40" y="173" on="0"/>
        <pt x="40" y="234" on="1"/>
        <pt x="40" y="292" on="0"/>
        <pt x="78" y="385" on="0"/>
        <pt x="146" y="451" on="0"/>
        <pt x="242" y="487" on="0"/>
        <pt x="299" y="487" on="1"/>
        <pt x="338" y="487" on="0"/>
        <pt x="416" y="474" on="0"/>
        <pt x="454" y="456" on="1"/>
        <pt x="428" y="364" on="1"/>
        <pt x="403" y="377" on="0"/>
        <pt x="345" y="390" on="0"/>
        <pt x="316" y="390" on="1"/>
        <pt x="248" y="390" on="0"/>
        <pt x="175" y="309" on="0"/>
        <pt x="175" y="237" on="1"/>
        <pt x="175" y="195" on="0"/>
        <pt x="197" y="137" on="0"/>
        <pt x="233" y="102" on="0"/>
        <pt x="280" y="87" on="0"/>
      </contour>
    </TTGlyph>
    <TTGlyph name="H" xMin="69" yMin="0" xMax="582" yMax="630">
      <contour>
        <pt x="69" y="0" on="1"/>
        <pt x="69" y="630" on="1"/>
        <pt x="206" y="630" on="1"/>
        <pt x="206" y="380" on="1"/>
        <pt x="445" y="380" on="1"/>
        <pt x="445" y="630" on="1"/>
        <pt x="582" y="630" on="1"/>
        <pt x="582" y="0" on="1"/>
        <pt x="445" y="0" on="1"/>
        <pt x="445" y="272" on="1"/>
        <pt x="206" y="272" on="1"/>
        <pt x="206" y="0" on="1"/>
      </contour>
    </TTGlyph>
    <TTGlyph name="Ha.tm" xMin="4" yMin="-295" xMax="1365" yMax="512">
      <contour>
        <pt x="879" y="512" on="1"/>
        <pt x="908" y="512" on="0"/>
        <pt x="954" y="497" on="0"/>
        <pt x="990" y="473" on="0"/>
        <pt x="1014" y="442" on="0"/>
        <pt x="1020" y="426" on="1"/>
        <pt x="1031" y="460" on="0"/>
        <pt x="1094" y="512" on="0"/>
        <pt x="1148" y="512" on="1"/>
        <pt x="1190" y="512" on="0"/>
        <pt x="1268" y="474" on="0"/>
        <pt x="1328" y="396" on="0"/>
        <pt x="1365" y="276" on="0"/>
        <pt x="1365" y="193" on="1"/>
        <pt x="1365" y="24" on="0"/>
        <pt x="1185" y="-161" on="0"/>
        <pt x="1006" y="-161" on="1"/>
        <pt x="177" y="-161" on="1"/>
        <pt x="126" y="-161" on="0"/>
        <pt x="126" y="-205" on="1"/>
        <pt x="126" y="-219" on="0"/>
        <pt x="135" y="-245" on="0"/>
        <pt x="141" y="-259" on="1"/>
        <pt x="36" y="-295" on="1"/>
        <pt x="23" y="-275" on="0"/>
        <pt x="4" y="-220" on="0"/>
        <pt x="4" y="-191" on="1"/>
        <pt x="4" y="-157" on="0"/>
        <pt x="26" y="-110" on="0"/>
        <pt x="63" y="-80" on="0"/>
        <pt x="111" y="-66" on="0"/>
        <pt x="137" y="-66" on="1"/>
        <pt x="1018" y="-66" on="1"/>
        <pt x="1080" y="-66" on="0"/>
        <pt x="1165" y="-30" on="0"/>
        <pt x="1217" y="38" on="0"/>
        <pt x="1240" y="135" on="0"/>
        <pt x="1240" y="196" on="1"/>
        <pt x="1240" y="303" on="0"/>
        <pt x="1184" y="411" on="0"/>
        <pt x="1139" y="411" on="1"/>
        <pt x="1109" y="411" on="0"/>
        <pt x="1080" y="373" on="0"/>
        <pt x="1080" y="339" on="1"/>
        <pt x="1080" y="0" on="1"/>
        <pt x="958" y="0" on="1"/>
        <pt x="958" y="336" on="1"/>
        <pt x="958" y="370" on="0"/>
        <pt x="926" y="411" on="0"/>
        <pt x="894" y="411" on="1"/>
        <pt x="862" y="411" on="0"/>
        <pt x="834" y="371" on="0"/>
        <pt x="834" y="336" on="1"/>
        <pt x="834" y="0" on="1"/>
        <pt x="484" y="0" on="1"/>
        <pt x="454" y="70" on="1"/>
        <pt x="473" y="102" on="0"/>
        <pt x="494" y="180" on="0"/>
        <pt x="494" y="231" on="1"/>
        <pt x="494" y="271" on="0"/>
        <pt x="470" y="338" on="0"/>
        <pt x="426" y="386" on="0"/>
        <pt x="363" y="413" on="0"/>
        <pt x="324" y="413" on="1"/>
        <pt x="250" y="413" on="0"/>
        <pt x="158" y="332" on="0"/>
        <pt x="148" y="267" on="1"/>
        <pt x="186" y="303" on="0"/>
        <pt x="243" y="303" on="1"/>
        <pt x="277" y="303" on="0"/>
        <pt x="335" y="281" on="0"/>
        <pt x="377" y="241" on="0"/>
        <pt x="401" y="185" on="0"/>
        <pt x="401" y="151" on="1"/>
        <pt x="401" y="114" on="0"/>
        <pt x="373" y="55" on="0"/>
        <pt x="326" y="13" on="0"/>
        <pt x="262" y="-10" on="0"/>
        <pt x="226" y="-10" on="1"/>
        <pt x="183" y="-10" on="0"/>
        <pt x="112" y="22" on="0"/>
        <pt x="62" y="82" on="0"/>
        <pt x="34" y="168" on="0"/>
        <pt x="34" y="222" on="1"/>
        <pt x="34" y="288" on="0"/>
        <pt x="78" y="395" on="0"/>
        <pt x="156" y="471" on="0"/>
        <pt x="264" y="512" on="0"/>
        <pt x="329" y="512" on="1"/>
        <pt x="391" y="512" on="0"/>
        <pt x="497" y="473" on="0"/>
        <pt x="574" y="402" on="0"/>
        <pt x="618" y="302" on="0"/>
        <pt x="618" y="241" on="1"/>
        <pt x="618" y="193" on="0"/>
        <pt x="600" y="120" on="0"/>
        <pt x="589" y="94" on="1"/>
        <pt x="712" y="94" on="1"/>
        <pt x="712" y="335" on="1"/>
        <pt x="712" y="382" on="0"/>
        <pt x="738" y="449" on="0"/>
        <pt x="784" y="492" on="0"/>
        <pt x="844" y="512" on="0"/>
      </contour>
      <contour>
        <pt x="220" y="214" on="1"/>
        <pt x="197" y="214" on="0"/>
        <pt x="164" y="189" on="0"/>
        <pt x="153" y="168" on="1"/>
        <pt x="155" y="130" on="0"/>
        <pt x="194" y="86" on="0"/>
        <pt x="225" y="86" on="1"/>
        <pt x="250" y="86" on="0"/>
        <pt x="284" y="121" on="0"/>
        <pt x="284" y="150" on="1"/>
        <pt x="284" y="180" on="0"/>
        <pt x="249" y="214" on="0"/>
      </contour>
    </TTGlyph>
    <TTGlyph name="HaMatraI.tm" xMin="4" yMin="-295" xMax="1581" yMax="758">
      <contour>
        <pt x="220" y="214" on="1"/>
        <pt x="197" y="214" on="0"/>
        <pt x="164" y="189" on="0"/>
        <pt x="153" y="168" on="1"/>
        <pt x="155" y="130" on="0"/>
        <pt x="194" y="86" on="0"/>
        <pt x="225" y="86" on="1"/>
        <pt x="250" y="86" on="0"/>
        <pt x="284" y="121" on="0"/>
        <pt x="284" y="150" on="1"/>
        <pt x="284" y="180" on="0"/>
        <pt x="249" y="214" on="0"/>
      </contour>
      <contour>
        <pt x="1365" y="193" on="1"/>
        <pt x="1365" y="24" on="0"/>
        <pt x="1186" y="-161" on="0"/>
        <pt x="1007" y="-161" on="1"/>
        <pt x="177" y="-161" on="1"/>
        <pt x="126" y="-161" on="0"/>
        <pt x="126" y="-205" on="1"/>
        <pt x="126" y="-219" on="0"/>
        <pt x="135" y="-245" on="0"/>
        <pt x="141" y="-259" on="1"/>
        <pt x="36" y="-295" on="1"/>
        <pt x="23" y="-275" on="0"/>
        <pt x="4" y="-220" on="0"/>
        <pt x="4" y="-191" on="1"/>
        <pt x="4" y="-157" on="0"/>
        <pt x="26" y="-110" on="0"/>
        <pt x="63" y="-80" on="0"/>
        <pt x="111" y="-66" on="0"/>
        <pt x="137" y="-66" on="1"/>
        <pt x="1018" y="-66" on="1"/>
        <pt x="1080" y="-66" on="0"/>
        <pt x="1165" y="-30" on="0"/>
        <pt x="1217" y="38" on="0"/>
        <pt x="1240" y="135" on="0"/>
        <pt x="1240" y="196" on="1"/>
        <pt x="1240" y="302" on="0"/>
        <pt x="1186" y="410" on="0"/>
        <pt x="1139" y="411" on="1"/>
        <pt x="1108" y="411" on="0"/>
        <pt x="1080" y="373" on="0"/>
        <pt x="1080" y="339" on="1"/>
        <pt x="1080" y="0" on="1"/>
        <pt x="958" y="0" on="1"/>
        <pt x="958" y="336" on="1"/>
        <pt x="958" y="370" on="0"/>
        <pt x="925" y="411" on="0"/>
        <pt x="893" y="411" on="1"/>
        <pt x="862" y="411" on="0"/>
        <pt x="833" y="371" on="0"/>
        <pt x="833" y="336" on="1"/>
        <pt x="833" y="0" on="1"/>
        <pt x="484" y="0" on="1"/>
        <pt x="454" y="70" on="1"/>
        <pt x="473" y="102" on="0"/>
        <pt x="494" y="180" on="0"/>
        <pt x="494" y="231" on="1"/>
        <pt x="494" y="271" on="0"/>
        <pt x="470" y="338" on="0"/>
        <pt x="426" y="386" on="0"/>
        <pt x="363" y="413" on="0"/>
        <pt x="324" y="413" on="1"/>
        <pt x="251" y="413" on="0"/>
        <pt x="158" y="332" on="0"/>
        <pt x="148" y="267" on="1"/>
        <pt x="186" y="303" on="0"/>
        <pt x="243" y="303" on="1"/>
        <pt x="277" y="303" on="0"/>
        <pt x="335" y="281" on="0"/>
        <pt x="377" y="241" on="0"/>
        <pt x="401" y="185" on="0"/>
        <pt x="401" y="151" on="1"/>
        <pt x="401" y="114" on="0"/>
        <pt x="373" y="55" on="0"/>
        <pt x="326" y="13" on="0"/>
        <pt x="262" y="-10" on="0"/>
        <pt x="226" y="-10" on="1"/>
        <pt x="183" y="-10" on="0"/>
        <pt x="112" y="22" on="0"/>
        <pt x="62" y="82" on="0"/>
        <pt x="34" y="168" on="0"/>
        <pt x="34" y="222" on="1"/>
        <pt x="34" y="288" on="0"/>
        <pt x="78" y="395" on="0"/>
        <pt x="157" y="471" on="0"/>
        <pt x="265" y="512" on="0"/>
        <pt x="329" y="512" on="1"/>
        <pt x="390" y="512" on="0"/>
        <pt x="496" y="473" on="0"/>
        <pt x="574" y="402" on="0"/>
        <pt x="618" y="302" on="0"/>
        <pt x="618" y="241" on="1"/>
        <pt x="618" y="193" on="0"/>
        <pt x="600" y="120" on="0"/>
        <pt x="589" y="94" on="1"/>
        <pt x="712" y="94" on="1"/>
        <pt x="712" y="335" on="1"/>
        <pt x="712" y="382" on="0"/>
        <pt x="738" y="449" on="0"/>
        <pt x="783" y="492" on="0"/>
        <pt x="844" y="512" on="0"/>
        <pt x="878" y="512" on="1"/>
        <pt x="907" y="512" on="0"/>
        <pt x="954" y="497" on="0"/>
        <pt x="989" y="473" on="0"/>
        <pt x="1013" y="442" on="0"/>
        <pt x="1019" y="426" on="1"/>
        <pt x="1029" y="458" on="0"/>
        <pt x="1089" y="505" on="0"/>
        <pt x="1141" y="507" on="1"/>
        <pt x="1129" y="534" on="0"/>
        <pt x="1129" y="571" on="1"/>
        <pt x="1129" y="610" on="0"/>
        <pt x="1160" y="679" on="0"/>
        <pt x="1219" y="729" on="0"/>
        <pt x="1301" y="758" on="0"/>
        <pt x="1352" y="758" on="1"/>
        <pt x="1404" y="758" on="0"/>
        <pt x="1489" y="727" on="0"/>
        <pt x="1549" y="669" on="0"/>
        <pt x="1581" y="585" on="0"/>
        <pt x="1581" y="532" on="1"/>
        <pt x="1581" y="0" on="1"/>
        <pt x="1458" y="0" on="1"/>
        <pt x="1458" y="527" on="1"/>
        <pt x="1458" y="590" on="0"/>
        <pt x="1403" y="658" on="0"/>
        <pt x="1349" y="658" on="1"/>
        <pt x="1301" y="658" on="0"/>
        <pt x="1248" y="604" on="0"/>
        <pt x="1248" y="560" on="1"/>
        <pt x="1248" y="534" on="0"/>
        <pt x="1268" y="477" on="0"/>
        <pt x="1291" y="440" on="1"/>
        <pt x="1305" y="417" on="0"/>
        <pt x="1332" y="366" on="0"/>
        <pt x="1353" y="306" on="0"/>
        <pt x="1365" y="235" on="0"/>
      </contour>
    </TTGlyph>
    <TTGlyph name="HaMatraIi.tm" xMin="4" yMin="-295" xMax="1466" yMax="799">
      <contour>
        <pt x="484" y="0" on="1"/>
        <pt x="454" y="70" on="1"/>
        <pt x="473" y="102" on="0"/>
        <pt x="494" y="180" on="0"/>
        <pt x="494" y="231" on="1"/>
        <pt x="494" y="271" on="0"/>
        <pt x="470" y="338" on="0"/>
        <pt x="426" y="386" on="0"/>
        <pt x="363" y="413" on="0"/>
        <pt x="324" y="413" on="1"/>
        <pt x="251" y="413" on="0"/>
        <pt x="158" y="332" on="0"/>
        <pt x="148" y="267" on="1"/>
        <pt x="186" y="303" on="0"/>
        <pt x="243" y="303" on="1"/>
        <pt x="277" y="303" on="0"/>
        <pt x="335" y="281" on="0"/>
        <pt x="377" y="241" on="0"/>
        <pt x="401" y="185" on="0"/>
        <pt x="401" y="151" on="1"/>
        <pt x="401" y="114" on="0"/>
        <pt x="373" y="55" on="0"/>
        <pt x="326" y="13" on="0"/>
        <pt x="262" y="-10" on="0"/>
        <pt x="226" y="-10" on="1"/>
        <pt x="183" y="-10" on="0"/>
        <pt x="112" y="22" on="0"/>
        <pt x="62" y="82" on="0"/>
        <pt x="34" y="168" on="0"/>
        <pt x="34" y="222" on="1"/>
        <pt x="34" y="288" on="0"/>
        <pt x="78" y="395" on="0"/>
        <pt x="157" y="471" on="0"/>
        <pt x="265" y="512" on="0"/>
        <pt x="329" y="512" on="1"/>
        <pt x="390" y="512" on="0"/>
        <pt x="496" y="473" on="0"/>
        <pt x="574" y="402" on="0"/>
        <pt x="618" y="302" on="0"/>
        <pt x="618" y="241" on="1"/>
        <pt x="618" y="193" on="0"/>
        <pt x="600" y="120" on="0"/>
        <pt x="589" y="94" on="1"/>
        <pt x="713" y="94" on="1"/>
        <pt x="713" y="335" on="1"/>
        <pt x="713" y="382" on="0"/>
        <pt x="739" y="449" on="0"/>
        <pt x="784" y="492" on="0"/>
        <pt x="845" y="512" on="0"/>
        <pt x="879" y="512" on="1"/>
        <pt x="908" y="512" on="0"/>
        <pt x="954" y="497" on="0"/>
        <pt x="990" y="473" on="0"/>
        <pt x="1014" y="442" on="0"/>
        <pt x="1020" y="426" on="1"/>
        <pt x="1028" y="452" on="0"/>
        <pt x="1072" y="493" on="0"/>
        <pt x="1107" y="502" on="1"/>
        <pt x="1088" y="524" on="0"/>
        <pt x="1066" y="583" on="0"/>
        <pt x="1066" y="613" on="1"/>
        <pt x="1066" y="655" on="0"/>
        <pt x="1099" y="724" on="0"/>
        <pt x="1158" y="773" on="0"/>
        <pt x="1240" y="799" on="0"/>
        <pt x="1290" y="799" on="1"/>
        <pt x="1375" y="799" on="0"/>
        <pt x="1466" y="724" on="0"/>
        <pt x="1466" y="669" on="1"/>
        <pt x="1466" y="617" on="0"/>
        <pt x="1395" y="551" on="0"/>
        <pt x="1339" y="551" on="1"/>
        <pt x="1312" y="551" on="0"/>
        <pt x="1268" y="568" on="0"/>
        <pt x="1238" y="597" on="0"/>
        <pt x="1221" y="636" on="0"/>
        <pt x="1221" y="658" on="1"/>
        <pt x="1221" y="678" on="0"/>
        <pt x="1235" y="711" on="0"/>
        <pt x="1246" y="724" on="1"/>
        <pt x="1216" y="715" on="0"/>
        <pt x="1175" y="658" on="0"/>
        <pt x="1175" y="613" on="1"/>
        <pt x="1175" y="568" on="0"/>
        <pt x="1229" y="500" on="0"/>
        <pt x="1263" y="468" on="1"/>
        <pt x="1285" y="448" on="0"/>
        <pt x="1322" y="397" on="0"/>
        <pt x="1349" y="331" on="0"/>
        <pt x="1365" y="246" on="0"/>
        <pt x="1365" y="193" on="1"/>
        <pt x="1365" y="24" on="0"/>
        <pt x="1185" y="-161" on="0"/>
        <pt x="1006" y="-161" on="1"/>
        <pt x="177" y="-161" on="1"/>
        <pt x="126" y="-161" on="0"/>
        <pt x="126" y="-205" on="1"/>
        <pt x="126" y="-219" on="0"/>
        <pt x="135" y="-245" on="0"/>
        <pt x="141" y="-259" on="1"/>
        <pt x="36" y="-295" on="1"/>
        <pt x="23" y="-275" on="0"/>
        <pt x="4" y="-220" on="0"/>
        <pt x="4" y="-191" on="1"/>
        <pt x="4" y="-157" on="0"/>
        <pt x="26" y="-110" on="0"/>
        <pt x="63" y="-80" on="0"/>
        <pt x="111" y="-66" on="0"/>
        <pt x="137" y="-66" on="1"/>
        <pt x="1018" y="-66" on="1"/>
        <pt x="1080" y="-66" on="0"/>
        <pt x="1165" y="-30" on="0"/>
        <pt x="1217" y="38" on="0"/>
        <pt x="1240" y="135" on="0"/>
        <pt x="1240" y="196" on="1"/>
        <pt x="1240" y="303" on="0"/>
        <pt x="1184" y="411" on="0"/>
        <pt x="1139" y="411" on="1"/>
        <pt x="1109" y="411" on="0"/>
        <pt x="1080" y="373" on="0"/>
        <pt x="1080" y="339" on="1"/>
        <pt x="1080" y="0" on="1"/>
        <pt x="959" y="0" on="1"/>
        <pt x="959" y="336" on="1"/>
        <pt x="959" y="370" on="0"/>
        <pt x="926" y="411" on="0"/>
        <pt x="894" y="411" on="1"/>
        <pt x="862" y="411" on="0"/>
        <pt x="834" y="371" on="0"/>
        <pt x="834" y="336" on="1"/>
        <pt x="834" y="0" on="1"/>
      </contour>
      <contour>
        <pt x="220" y="214" on="1"/>
        <pt x="197" y="214" on="0"/>
        <pt x="164" y="189" on="0"/>
        <pt x="153" y="168" on="1"/>
        <pt x="155" y="130" on="0"/>
        <pt x="194" y="86" on="0"/>
        <pt x="225" y="86" on="1"/>
        <pt x="250" y="86" on="0"/>
        <pt x="284" y="121" on="0"/>
        <pt x="284" y="150" on="1"/>
        <pt x="284" y="180" on="0"/>
        <pt x="249" y="214" on="0"/>
      </contour>
      <contour>
        <pt x="1381" y="671" on="1"/>
        <pt x="1381" y="691" on="0"/>
        <pt x="1353" y="718" on="0"/>
        <pt x="1332" y="721" on="1"/>
        <pt x="1318" y="714" on="0"/>
        <pt x="1302" y="688" on="0"/>
        <pt x="1302" y="671" on="1"/>
        <pt x="1302" y="653" on="0"/>
        <pt x="1324" y="630" on="0"/>
        <pt x="1342" y="630" on="1"/>
        <pt x="1359" y="630" on="0"/>
        <pt x="1381" y="652" on="0"/>
      </contour>
    </TTGlyph>
    <TTGlyph name="HaMatraU.tm" xMin="4" yMin="-295" xMax="1719" yMax="512">
      <contour>
        <pt x="879" y="512" on="1"/>
        <pt x="908" y="512" on="0"/>
        <pt x="954" y="497" on="0"/>
        <pt x="990" y="473" on="0"/>
        <pt x="1014" y="442" on="0"/>
        <pt x="1020" y="426" on="1"/>
        <pt x="1031" y="457" on="0"/>
        <pt x="1094" y="503" on="0"/>
        <pt x="1148" y="503" on="1"/>
        <pt x="1527" y="503" on="1"/>
        <pt x="1618" y="503" on="0"/>
        <pt x="1719" y="427" on="0"/>
        <pt x="1719" y="361" on="1"/>
        <pt x="1719" y="332" on="0"/>
        <pt x="1698" y="285" on="0"/>
        <pt x="1661" y="250" on="0"/>
        <pt x="1608" y="231" on="0"/>
        <pt x="1575" y="231" on="1"/>
        <pt x="1512" y="231" on="0"/>
        <pt x="1435" y="298" on="0"/>
        <pt x="1435" y="352" on="1"/>
        <pt x="1435" y="372" on="0"/>
        <pt x="1449" y="406" on="0"/>
        <pt x="1460" y="420" on="1"/>
        <pt x="1296" y="420" on="1"/>
        <pt x="1328" y="384" on="0"/>
        <pt x="1365" y="268" on="0"/>
        <pt x="1365" y="193" on="1"/>
        <pt x="1365" y="24" on="0"/>
        <pt x="1185" y="-161" on="0"/>
        <pt x="1006" y="-161" on="1"/>
        <pt x="177" y="-161" on="1"/>
        <pt x="126" y="-161" on="0"/>
        <pt x="126" y="-205" on="1"/>
        <pt x="126" y="-219" on="0"/>
        <pt x="135" y="-245" on="0"/>
        <pt x="141" y="-259" on="1"/>
        <pt x="36" y="-295" on="1"/>
        <pt x="23" y="-275" on="0"/>
        <pt x="4" y="-220" on="0"/>
        <pt x="4" y="-191" on="1"/>
        <pt x="4" y="-157" on="0"/>
        <pt x="26" y="-110" on="0"/>
        <pt x="63" y="-80" on="0"/>
        <pt x="111" y="-66" on="0"/>
        <pt x="137" y="-66" on="1"/>
        <pt x="1018" y="-66" on="1"/>
        <pt x="1080" y="-66" on="0"/>
        <pt x="1165" y="-30" on="0"/>
        <pt x="1217" y="38" on="0"/>
        <pt x="1240" y="135" on="0"/>
        <pt x="1240" y="196" on="1"/>
        <pt x="1240" y="302" on="0"/>
        <pt x="1184" y="409" on="0"/>
        <pt x="1139" y="409" on="1"/>
        <pt x="1109" y="409" on="0"/>
        <pt x="1080" y="371" on="0"/>
        <pt x="1080" y="338" on="1"/>
        <pt x="1080" y="0" on="1"/>
        <pt x="958" y="0" on="1"/>
        <pt x="958" y="336" on="1"/>
        <pt x="958" y="370" on="0"/>
        <pt x="926" y="411" on="0"/>
        <pt x="894" y="411" on="1"/>
        <pt x="862" y="411" on="0"/>
        <pt x="834" y="371" on="0"/>
        <pt x="834" y="336" on="1"/>
        <pt x="834" y="0" on="1"/>
        <pt x="484" y="0" on="1"/>
        <pt x="454" y="70" on="1"/>
        <pt x="473" y="102" on="0"/>
        <pt x="494" y="180" on="0"/>
        <pt x="494" y="231" on="1"/>
        <pt x="494" y="271" on="0"/>
        <pt x="470" y="338" on="0"/>
        <pt x="426" y="386" on="0"/>
        <pt x="363" y="413" on="0"/>
        <pt x="324" y="413" on="1"/>
        <pt x="251" y="413" on="0"/>
        <pt x="158" y="332" on="0"/>
        <pt x="148" y="267" on="1"/>
        <pt x="186" y="303" on="0"/>
        <pt x="243" y="303" on="1"/>
        <pt x="277" y="303" on="0"/>
        <pt x="335" y="281" on="0"/>
        <pt x="377" y="241" on="0"/>
        <pt x="401" y="185" on="0"/>
        <pt x="401" y="151" on="1"/>
        <pt x="401" y="114" on="0"/>
        <pt x="373" y="55" on="0"/>
        <pt x="326" y="13" on="0"/>
        <pt x="262" y="-10" on="0"/>
        <pt x="226" y="-10" on="1"/>
        <pt x="183" y="-10" on="0"/>
        <pt x="112" y="22" on="0"/>
        <pt x="62" y="82" on="0"/>
        <pt x="34" y="168" on="0"/>
        <pt x="34" y="222" on="1"/>
        <pt x="34" y="288" on="0"/>
        <pt x="78" y="395" on="0"/>
        <pt x="157" y="471" on="0"/>
        <pt x="265" y="512" on="0"/>
        <pt x="329" y="512" on="1"/>
        <pt x="390" y="512" on="0"/>
        <pt x="496" y="473" on="0"/>
        <pt x="574" y="402" on="0"/>
        <pt x="618" y="302" on="0"/>
        <pt x="618" y="241" on="1"/>
        <pt x="618" y="193" on="0"/>
        <pt x="600" y="120" on="0"/>
        <pt x="589" y="94" on="1"/>
        <pt x="712" y="94" on="1"/>
        <pt x="712" y="335" on="1"/>
        <pt x="712" y="382" on="0"/>
        <pt x="738" y="449" on="0"/>
        <pt x="784" y="492" on="0"/>
        <pt x="844" y="512" on="0"/>
      </contour>
      <contour>
        <pt x="220" y="214" on="1"/>
        <pt x="197" y="214" on="0"/>
        <pt x="164" y="189" on="0"/>
        <pt x="153" y="168" on="1"/>
        <pt x="155" y="130" on="0"/>
        <pt x="194" y="86" on="0"/>
        <pt x="225" y="86" on="1"/>
        <pt x="250" y="86" on="0"/>
        <pt x="284" y="121" on="0"/>
        <pt x="284" y="150" on="1"/>
        <pt x="284" y="180" on="0"/>
        <pt x="249" y="214" on="0"/>
      </contour>
      <contour>
        <pt x="1560" y="417" on="1"/>
        <pt x="1546" y="408" on="0"/>
        <pt x="1530" y="377" on="0"/>
        <pt x="1530" y="360" on="1"/>
        <pt x="1530" y="339" on="0"/>
        <pt x="1556" y="314" on="0"/>
        <pt x="1577" y="314" on="1"/>
        <pt x="1597" y="314" on="0"/>
        <pt x="1622" y="339" on="0"/>
        <pt x="1622" y="361" on="1"/>
        <pt x="1622" y="387" on="0"/>
        <pt x="1588" y="416" on="0"/>
        <pt x="1562" y="417" on="1"/>
      </contour>
    </TTGlyph>
    <TTGlyph name="HaMatraUu.tm" xMin="4" yMin="-295" xMax="1925" yMax="630">
      <contour>
        <pt x="1676" y="630" on="1"/>
        <pt x="1732" y="630" on="0"/>
        <pt x="1824" y="596" on="0"/>
        <pt x="1889" y="535" on="0"/>
        <pt x="1925" y="448" on="0"/>
        <pt x="1925" y="395" on="1"/>
        <pt x="1925" y="347" on="0"/>
        <pt x="1898" y="268" on="0"/>
        <pt x="1854" y="205" on="0"/>
        <pt x="1798" y="156" on="0"/>
        <pt x="1769" y="140" on="1"/>
        <pt x="1707" y="219" on="1"/>
        <pt x="1751" y="245" on="0"/>
        <pt x="1812" y="332" on="0"/>
        <pt x="1812" y="395" on="1"/>
        <pt x="1812" y="461" on="0"/>
        <pt x="1739" y="543" on="0"/>
        <pt x="1671" y="543" on="1"/>
        <pt x="1636" y="543" on="0"/>
        <pt x="1578" y="517" on="0"/>
        <pt x="1561" y="496" on="1"/>
        <pt x="1636" y="493" on="0"/>
        <pt x="1712" y="421" on="0"/>
        <pt x="1712" y="369" on="1"/>
        <pt x="1712" y="343" on="0"/>
        <pt x="1692" y="298" on="0"/>
        <pt x="1655" y="265" on="0"/>
        <pt x="1604" y="246" on="0"/>
        <pt x="1574" y="246" on="1"/>
        <pt x="1541" y="246" on="0"/>
        <pt x="1489" y="268" on="0"/>
        <pt x="1453" y="306" on="0"/>
        <pt x="1434" y="355" on="0"/>
        <pt x="1434" y="381" on="1"/>
        <pt x="1434" y="405" on="0"/>
        <pt x="1437" y="423" on="1"/>
        <pt x="1293" y="423" on="1"/>
        <pt x="1326" y="388" on="0"/>
        <pt x="1365" y="270" on="0"/>
        <pt x="1365" y="193" on="1"/>
        <pt x="1365" y="24" on="0"/>
        <pt x="1185" y="-161" on="0"/>
        <pt x="1006" y="-161" on="1"/>
        <pt x="177" y="-161" on="1"/>
        <pt x="126" y="-161" on="0"/>
        <pt x="126" y="-205" on="1"/>
        <pt x="126" y="-219" on="0"/>
        <pt x="135" y="-245" on="0"/>
        <pt x="141" y="-259" on="1"/>
        <pt x="36" y="-295" on="1"/>
        <pt x="23" y="-275" on="0"/>
        <pt x="4" y="-220" on="0"/>
        <pt x="4" y="-191" on="1"/>
        <pt x="4" y="-157" on="0"/>
        <pt x="26" y="-110" on="0"/>
        <pt x="63" y="-80" on="0"/>
        <pt x="111" y="-66" on="0"/>
        <pt x="137" y="-66" on="1"/>
        <pt x="1018" y="-66" on="1"/>
        <pt x="1080" y="-66" on="0"/>
        <pt x="1165" y="-30" on="0"/>
        <pt x="1217" y="38" on="0"/>
        <pt x="1240" y="135" on="0"/>
        <pt x="1240" y="196" on="1"/>
        <pt x="1240" y="302" on="0"/>
        <pt x="1184" y="409" on="0"/>
        <pt x="1139" y="409" on="1"/>
        <pt x="1109" y="409" on="0"/>
        <pt x="1080" y="371" on="0"/>
        <pt x="1080" y="338" on="1"/>
        <pt x="1080" y="0" on="1"/>
        <pt x="958" y="0" on="1"/>
        <pt x="958" y="336" on="1"/>
        <pt x="958" y="370" on="0"/>
        <pt x="926" y="411" on="0"/>
        <pt x="894" y="411" on="1"/>
        <pt x="862" y="411" on="0"/>
        <pt x="834" y="371" on="0"/>
        <pt x="834" y="336" on="1"/>
        <pt x="834" y="0" on="1"/>
        <pt x="484" y="0" on="1"/>
        <pt x="454" y="70" on="1"/>
        <pt x="473" y="102" on="0"/>
        <pt x="494" y="180" on="0"/>
        <pt x="494" y="231" on="1"/>
        <pt x="494" y="271" on="0"/>
        <pt x="470" y="338" on="0"/>
        <pt x="426" y="386" on="0"/>
        <pt x="363" y="413" on="0"/>
        <pt x="324" y="413" on="1"/>
        <pt x="251" y="413" on="0"/>
        <pt x="158" y="332" on="0"/>
        <pt x="148" y="267" on="1"/>
        <pt x="186" y="303" on="0"/>
        <pt x="243" y="303" on="1"/>
        <pt x="277" y="303" on="0"/>
        <pt x="335" y="281" on="0"/>
        <pt x="377" y="241" on="0"/>
        <pt x="401" y="185" on="0"/>
        <pt x="401" y="151" on="1"/>
        <pt x="401" y="114" on="0"/>
        <pt x="373" y="55" on="0"/>
        <pt x="326" y="13" on="0"/>
        <pt x="262" y="-10" on="0"/>
        <pt x="226" y="-10" on="1"/>
        <pt x="183" y="-10" on="0"/>
        <pt x="112" y="22" on="0"/>
        <pt x="62" y="82" on="0"/>
        <pt x="34" y="168" on="0"/>
        <pt x="34" y="222" on="1"/>
        <pt x="34" y="288" on="0"/>
        <pt x="78" y="395" on="0"/>
        <pt x="157" y="471" on="0"/>
        <pt x="265" y="512" on="0"/>
        <pt x="329" y="512" on="1"/>
        <pt x="390" y="512" on="0"/>
        <pt x="496" y="473" on="0"/>
        <pt x="574" y="402" on="0"/>
        <pt x="618" y="302" on="0"/>
        <pt x="618" y="241" on="1"/>
        <pt x="618" y="193" on="0"/>
        <pt x="600" y="120" on="0"/>
        <pt x="589" y="94" on="1"/>
        <pt x="712" y="94" on="1"/>
        <pt x="712" y="335" on="1"/>
        <pt x="712" y="382" on="0"/>
        <pt x="738" y="449" on="0"/>
        <pt x="784" y="492" on="0"/>
        <pt x="844" y="512" on="0"/>
        <pt x="879" y="512" on="1"/>
        <pt x="908" y="512" on="0"/>
        <pt x="954" y="497" on="0"/>
        <pt x="990" y="473" on="0"/>
        <pt x="1014" y="442" on="0"/>
        <pt x="1020" y="426" on="1"/>
        <pt x="1031" y="457" on="0"/>
        <pt x="1094" y="503" on="0"/>
        <pt x="1148" y="503" on="1"/>
        <pt x="1462" y="503" on="1"/>
        <pt x="1489" y="558" on="0"/>
        <pt x="1602" y="630" on="0"/>
      </contour>
      <contour>
        <pt x="220" y="214" on="1"/>
        <pt x="197" y="214" on="0"/>
        <pt x="164" y="189" on="0"/>
        <pt x="153" y="168" on="1"/>
        <pt x="155" y="130" on="0"/>
        <pt x="194" y="86" on="0"/>
        <pt x="225" y="86" on="1"/>
        <pt x="250" y="86" on="0"/>
        <pt x="284" y="121" on="0"/>
        <pt x="284" y="150" on="1"/>
        <pt x="284" y="180" on="0"/>
        <pt x="249" y="214" on="0"/>
      </contour>
      <contour>
        <pt x="1536" y="418" on="1"/>
        <pt x="1531" y="400" on="0"/>
        <pt x="1531" y="384" on="1"/>
        <pt x="1531" y="360" on="0"/>
        <pt x="1555" y="329" on="0"/>
        <pt x="1577" y="329" on="1"/>
        <pt x="1595" y="329" on="0"/>
        <pt x="1616" y="351" on="0"/>
        <pt x="1616" y="369" on="1"/>
        <pt x="1616" y="393" on="0"/>
        <pt x="1580" y="418" on="0"/>
        <pt x="1547" y="418" on="1"/>
      </contour>
    </TTGlyph>
    <TTGlyph name="HaPulli.tm" xMin="9" yMin="-295" xMax="1370" yMax="719">
      <contour>
        <pt x="459" y="70" on="1"/>
        <pt x="478" y="102" on="0"/>
        <pt x="499" y="180" on="0"/>
        <pt x="499" y="231" on="1"/>
        <pt x="499" y="271" on="0"/>
        <pt x="475" y="338" on="0"/>
        <pt x="431" y="386" on="0"/>
        <pt x="368" y="413" on="0"/>
        <pt x="329" y="413" on="1"/>
        <pt x="256" y="413" on="0"/>
        <pt x="163" y="332" on="0"/>
        <pt x="153" y="267" on="1"/>
        <pt x="191" y="303" on="0"/>
        <pt x="248" y="303" on="1"/>
        <pt x="282" y="303" on="0"/>
        <pt x="340" y="281" on="0"/>
        <pt x="382" y="241" on="0"/>
        <pt x="406" y="185" on="0"/>
        <pt x="406" y="151" on="1"/>
        <pt x="406" y="114" on="0"/>
        <pt x="378" y="55" on="0"/>
        <pt x="331" y="13" on="0"/>
        <pt x="267" y="-10" on="0"/>
        <pt x="231" y="-10" on="1"/>
        <pt x="188" y="-10" on="0"/>
        <pt x="117" y="22" on="0"/>
        <pt x="67" y="82" on="0"/>
        <pt x="39" y="168" on="0"/>
        <pt x="39" y="222" on="1"/>
        <pt x="39" y="288" on="0"/>
        <pt x="83" y="395" on="0"/>
        <pt x="162" y="471" on="0"/>
        <pt x="270" y="512" on="0"/>
        <pt x="334" y="512" on="1"/>
        <pt x="395" y="512" on="0"/>
        <pt x="501" y="473" on="0"/>
        <pt x="579" y="402" on="0"/>
        <pt x="623" y="302" on="0"/>
        <pt x="623" y="241" on="1"/>
        <pt x="623" y="193" on="0"/>
        <pt x="605" y="120" on="0"/>
        <pt x="594" y="94" on="1"/>
        <pt x="717" y="94" on="1"/>
        <pt x="717" y="335" on="1"/>
        <pt x="717" y="382" on="0"/>
        <pt x="743" y="449" on="0"/>
        <pt x="789" y="492" on="0"/>
        <pt x="849" y="512" on="0"/>
        <pt x="884" y="512" on="1"/>
        <pt x="913" y="512" on="0"/>
        <pt x="959" y="497" on="0"/>
        <pt x="995" y="473" on="0"/>
        <pt x="1019" y="442" on="0"/>
        <pt x="1025" y="426" on="1"/>
        <pt x="1036" y="460" on="0"/>
        <pt x="1099" y="512" on="0"/>
        <pt x="1153" y="512" on="1"/>
        <pt x="1195" y="512" on="0"/>
        <pt x="1273" y="474" on="0"/>
        <pt x="1333" y="396" on="0"/>
        <pt x="1370" y="276" on="0"/>
        <pt x="1370" y="193" on="1"/>
        <pt x="1370" y="24" on="0"/>
        <pt x="1190" y="-161" on="0"/>
        <pt x="1011" y="-161" on="1"/>
        <pt x="182" y="-161" on="1"/>
        <pt x="131" y="-161" on="0"/>
        <pt x="131" y="-205" on="1"/>
        <pt x="131" y="-219" on="0"/>
        <pt x="140" y="-245" on="0"/>
        <pt x="146" y="-259" on="1"/>
        <pt x="41" y="-295" on="1"/>
        <pt x="28" y="-275" on="0"/>
        <pt x="9" y="-220" on="0"/>
        <pt x="9" y="-191" on="1"/>
        <pt x="9" y="-157" on="0"/>
        <pt x="31" y="-110" on="0"/>
        <pt x="68" y="-80" on="0"/>
        <pt x="116" y="-66" on="0"/>
        <pt x="142" y="-66" on="1"/>
        <pt x="1023" y="-66" on="1"/>
        <pt x="1085" y="-66" on="0"/>
        <pt x="1170" y="-30" on="0"/>
        <pt x="1222" y="38" on="0"/>
        <pt x="1245" y="135" on="0"/>
        <pt x="1245" y="196" on="1"/>
        <pt x="1245" y="303" on="0"/>
        <pt x="1189" y="411" on="0"/>
        <pt x="1144" y="411" on="1"/>
        <pt x="1114" y="411" on="0"/>
        <pt x="1085" y="373" on="0"/>
        <pt x="1085" y="339" on="1"/>
        <pt x="1085" y="0" on="1"/>
        <pt x="963" y="0" on="1"/>
        <pt x="963" y="336" on="1"/>
        <pt x="963" y="370" on="0"/>
        <pt x="931" y="411" on="0"/>
        <pt x="899" y="411" on="1"/>
        <pt x="867" y="411" on="0"/>
        <pt x="839" y="371" on="0"/>
        <pt x="839" y="336" on="1"/>
        <pt x="839" y="0" on="1"/>
        <pt x="489" y="0" on="1"/>
      </contour>
      <contour>
        <pt x="683" y="719" on="1"/>
        <pt x="715" y="719" on="0"/>
        <pt x="755" y="678" on="0"/>
        <pt x="755" y="647" on="1"/>
        <pt x="755" y="616" on="0"/>
        <pt x="716" y="575" on="0"/>
        <pt x="685" y="575" on="1"/>
        <pt x="653" y="575" on="0"/>
        <pt x="613" y="616" on="0"/>
        <pt x="613" y="647" on="1"/>
        <pt x="613" y="678" on="0"/>
        <pt x="653" y="719" on="0"/>
      </contour>
      <contour>
        <pt x="225" y="214" on="1"/>
        <pt x="202" y="214" on="0"/>
        <pt x="169" y="189" on="0"/>
        <pt x="158" y="168" on="1"/>
        <pt x="160" y="130" on="0"/>
        <pt x="199" y="86" on="0"/>
        <pt x="230" y="86" on="1"/>
        <pt x="255" y="86" on="0"/>
        <pt x="289" y="121" on="0"/>
        <pt x="289" y="150" on="1"/>
        <pt x="289" y="180" on="0"/>
        <pt x="254" y="214" on="0"/>
      </contour>
    </TTGlyph>
    <TTGlyph name="Hbar" xMin="20" yMin="0" xMax="653" yMax="630">
      <contour>
        <pt x="80" y="0" on="1"/>
        <pt x="80" y="473" on="1"/>
        <pt x="20" y="473" on="1"/>
        <pt x="20" y="557" on="1"/>
        <pt x="80" y="557" on="1"/>
        <pt x="80" y="630" on="1"/>
        <pt x="217" y="630" on="1"/>
        <pt x="217" y="557" on="1"/>
        <pt x="456" y="557" on="1"/>
        <pt x="456" y="630" on="1"/>
        <pt x="593" y="630" on="1"/>
        <pt x="593" y="557" on="1"/>
        <pt x="653" y="557" on="1"/>
        <pt x="653" y="473" on="1"/>
        <pt x="593" y="473" on="1"/>
        <pt x="593" y="0" on="1"/>
        <pt x="456" y="0" on="1"/>
        <pt x="456" y="272" on="1"/>
        <pt x="217" y="272" on="1"/>
        <pt x="217" y="0" on="1"/>
      </contour>
      <contour>
        <pt x="456" y="380" on="1"/>
        <pt x="456" y="473" on="1"/>
        <pt x="217" y="473" on="1"/>
        <pt x="217" y="380" on="1"/>
      </contour>
    </TTGlyph>
    <TTGlyph name="Hcircumflex" xMin="69" yMin="0" xMax="582" yMax="821">
      <contour>
        <pt x="69" y="0" on="1"/>
        <pt x="69" y="630" on="1"/>
        <pt x="206" y="630" on="1"/>
        <pt x="206" y="380" on="1"/>
        <pt x="445" y="380" on="1"/>
        <pt x="445" y="630" on="1"/>
        <pt x="582" y="630" on="1"/>
        <pt x="582" y="0" on="1"/>
        <pt x="445" y="0" on="1"/>
        <pt x="445" y="272" on="1"/>
        <pt x="206" y="272" on="1"/>
        <pt x="206" y="0" on="1"/>
      </contour>
      <contour>
        <pt x="280" y="821" on="1"/>
        <pt x="379" y="821" on="1"/>
        <pt x="496" y="695" on="1"/>
        <pt x="394" y="695" on="1"/>
        <pt x="329" y="764" on="1"/>
        <pt x="264" y="695" on="1"/>
        <pt x="165" y="695" on="1"/>
      </contour>
    </TTGlyph>
    <TTGlyph name="Hsmall" xMin="63" yMin="0" xMax="499" yMax="477">
      <contour>
        <pt x="63" y="0" on="1"/>
        <pt x="63" y="477" on="1"/>
        <pt x="193" y="477" on="1"/>
        <pt x="193" y="298" on="1"/>
        <pt x="368" y="298" on="1"/>
        <pt x="368" y="477" on="1"/>
        <pt x="499" y="477" on="1"/>
        <pt x="499" y="0" on="1"/>
        <pt x="368" y="0" on="1"/>
        <pt x="368" y="200" on="1"/>
        <pt x="193" y="200" on="1"/>
        <pt x="193" y="0" on="1"/>
      </contour>
    </TTGlyph>
    <TTGlyph name="Hundred.tm" xMin="53" yMin="0" xMax="798" yMax="507">
      <contour>
        <pt x="798" y="503" on="1"/>
        <pt x="798" y="408" on="1"/>
        <pt x="707" y="408" on="1"/>
        <pt x="707" y="0" on="1"/>
        <pt x="585" y="0" on="1"/>
        <pt x="585" y="408" on="1"/>
        <pt x="425" y="408" on="1"/>
        <pt x="425" y="0" on="1"/>
        <pt x="305" y="0" on="1"/>
        <pt x="305" y="334" on="1"/>
        <pt x="303" y="368" on="0"/>
        <pt x="268" y="410" on="0"/>
        <pt x="236" y="410" on="1"/>
        <pt x="174" y="410" on="0"/>
        <pt x="174" y="333" on="1"/>
        <pt x="174" y="0" on="1"/>
        <pt x="53" y="0" on="1"/>
        <pt x="53" y="335" on="1"/>
        <pt x="53" y="416" on="0"/>
        <pt x="132" y="507" on="0"/>
        <pt x="204" y="507" on="1"/>
        <pt x="242" y="507" on="0"/>
        <pt x="301" y="472" on="0"/>
        <pt x="316" y="448" on="1"/>
        <pt x="316" y="503" on="1"/>
      </contour>
    </TTGlyph>
    <TTGlyph name="I" xMin="69" yMin="0" xMax="206" yMax="630">
      <contour>
        <pt x="206" y="630" on="1"/>
        <pt x="206" y="0" on="1"/>
        <pt x="69" y="0" on="1"/>
        <pt x="69" y="630" on="1"/>
      </contour>
    </TTGlyph>
    <TTGlyph name="IJ" xMin="69" yMin="-170" xMax="479" yMax="630">
      <contour>
        <pt x="206" y="630" on="1"/>
        <pt x="206" y="0" on="1"/>
        <pt x="69" y="0" on="1"/>
        <pt x="69" y="630" on="1"/>
      </contour>
      <contour>
        <pt x="479" y="630" on="1"/>
        <pt x="479" y="115" on="1"/>
        <pt x="479" y="76" on="0"/>
        <pt x="475" y="13" on="0"/>
        <pt x="463" y="-39" on="0"/>
        <pt x="442" y="-81" on="0"/>
        <pt x="426" y="-100" on="1"/>
        <pt x="393" y="-139" on="0"/>
        <pt x="293" y="-170" on="0"/>
        <pt x="237" y="-170" on="1"/>
        <pt x="237" y="-65" on="1"/>
        <pt x="263" y="-65" on="0"/>
        <pt x="301" y="-49" on="0"/>
        <pt x="313" y="-37" on="1"/>
        <pt x="331" y="-21" on="0"/>
        <pt x="342" y="31" on="0"/>
        <pt x="342" y="63" on="1"/>
        <pt x="342" y="630" on="1"/>
      </contour>
    </TTGlyph>
    <TTGlyph name="Iacute" xMin="69" yMin="0" xMax="311" yMax="819">
      <contour>
        <pt x="206" y="630" on="1"/>
        <pt x="206" y="0" on="1"/>
        <pt x="69" y="0" on="1"/>
        <pt x="69" y="630" on="1"/>
      </contour>
      <contour>
        <pt x="196" y="695" on="1"/>
        <pt x="87" y="695" on="1"/>
        <pt x="167" y="819" on="1"/>
        <pt x="311" y="819" on="1"/>
      </contour>
    </TTGlyph>
    <TTGlyph name="Ibreve" xMin="3" yMin="0" xMax="272" yMax="819">
      <contour>
        <pt x="206" y="630" on="1"/>
        <pt x="206" y="0" on="1"/>
        <pt x="69" y="0" on="1"/>
        <pt x="69" y="630" on="1"/>
      </contour>
      <contour>
        <pt x="81" y="819" on="1"/>
        <pt x="83" y="794" on="0"/>
        <pt x="109" y="764" on="0"/>
        <pt x="139" y="764" on="1"/>
        <pt x="192" y="764" on="0"/>
        <pt x="195" y="819" on="1"/>
        <pt x="272" y="819" on="1"/>
        <pt x="272" y="759" on="0"/>
        <pt x="203" y="691" on="0"/>
        <pt x="138" y="691" on="1"/>
        <pt x="102" y="691" on="0"/>
        <pt x="51" y="712" on="0"/>
        <pt x="18" y="747" on="0"/>
        <pt x="3" y="793" on="0"/>
        <pt x="3" y="819" on="1"/>
      </contour>
    </TTGlyph>
    <TTGlyph name="Icircumflex" xMin="-24" yMin="0" xMax="307" yMax="821">
      <contour>
        <pt x="206" y="630" on="1"/>
        <pt x="206" y="0" on="1"/>
        <pt x="69" y="0" on="1"/>
        <pt x="69" y="630" on="1"/>
      </contour>
      <contour>
        <pt x="90" y="821" on="1"/>
        <pt x="189" y="821" on="1"/>
        <pt x="307" y="695" on="1"/>
        <pt x="204" y="695" on="1"/>
        <pt x="139" y="764" on="1"/>
        <pt x="74" y="695" on="1"/>
        <pt x="-24" y="695" on="1"/>
      </contour>
    </TTGlyph>
    <TTGlyph name="Idieresis" xMin="-24" yMin="0" xMax="297" yMax="813">
      <contour>
        <pt x="206" y="630" on="1"/>
        <pt x="206" y="0" on="1"/>
        <pt x="69" y="0" on="1"/>
        <pt x="69" y="630" on="1"/>
      </contour>
      <contour>
        <pt x="-24" y="751" on="1"/>
        <pt x="-24" y="777" on="0"/>
        <pt x="13" y="813" on="0"/>
        <pt x="39" y="813" on="1"/>
        <pt x="66" y="813" on="0"/>
        <pt x="102" y="777" on="0"/>
        <pt x="102" y="751" on="1"/>
        <pt x="102" y="724" on="0"/>
        <pt x="66" y="687" on="0"/>
        <pt x="39" y="687" on="1"/>
        <pt x="13" y="687" on="0"/>
        <pt x="-24" y="724" on="0"/>
      </contour>
      <contour>
        <pt x="171" y="751" on="1"/>
        <pt x="171" y="777" on="0"/>
        <pt x="208" y="813" on="0"/>
        <pt x="235" y="813" on="1"/>
        <pt x="261" y="813" on="0"/>
        <pt x="297" y="777" on="0"/>
        <pt x="297" y="751" on="1"/>
        <pt x="297" y="724" on="0"/>
        <pt x="261" y="687" on="0"/>
        <pt x="235" y="687" on="1"/>
        <pt x="208" y="687" on="0"/>
        <pt x="171" y="724" on="0"/>
      </contour>
    </TTGlyph>
    <TTGlyph name="Idotaccent" xMin="69" yMin="0" xMax="206" yMax="816">
      <contour>
        <pt x="206" y="630" on="1"/>
        <pt x="206" y="0" on="1"/>
        <pt x="69" y="0" on="1"/>
        <pt x="69" y="630" on="1"/>
      </contour>
      <contour>
        <pt x="72" y="753" on="1"/>
        <pt x="72" y="779" on="0"/>
        <pt x="111" y="816" on="0"/>
        <pt x="137" y="816" on="1"/>
        <pt x="165" y="816" on="0"/>
        <pt x="202" y="779" on="0"/>
        <pt x="202" y="753" on="1"/>
        <pt x="202" y="725" on="0"/>
        <pt x="165" y="687" on="0"/>
        <pt x="137" y="687" on="1"/>
        <pt x="111" y="687" on="0"/>
        <pt x="72" y="725" on="0"/>
      </contour>
    </TTGlyph>
    <TTGlyph name="Igrave" xMin="-35" yMin="0" xMax="206" yMax="819">
      <contour>
        <pt x="206" y="630" on="1"/>
        <pt x="206" y="0" on="1"/>
        <pt x="69" y="0" on="1"/>
        <pt x="69" y="630" on="1"/>
      </contour>
      <contour>
        <pt x="-35" y="819" on="1"/>
        <pt x="109" y="819" on="1"/>
        <pt x="189" y="695" on="1"/>
        <pt x="79" y="695" on="1"/>
      </contour>
    </TTGlyph>
    <TTGlyph name="Imacron" xMin="10" yMin="0" xMax="267" yMax="772">
      <contour>
        <pt x="206" y="630" on="1"/>
        <pt x="206" y="0" on="1"/>
        <pt x="69" y="0" on="1"/>
        <pt x="69" y="630" on="1"/>
      </contour>
      <contour>
        <pt x="267" y="772" on="1"/>
        <pt x="267" y="695" on="1"/>
        <pt x="10" y="695" on="1"/>
        <pt x="10" y="772" on="1"/>
      </contour>
    </TTGlyph>
    <TTGlyph name="Iogonek" xMin="21" yMin="-206" xMax="213" yMax="630">
      <contour>
        <pt x="206" y="630" on="1"/>
        <pt x="206" y="0" on="1"/>
        <pt x="161" y="0" on="1"/>
        <pt x="138" y="-18" on="0"/>
        <pt x="108" y="-57" on="0"/>
        <pt x="108" y="-80" on="1"/>
        <pt x="108" y="-100" on="0"/>
        <pt x="132" y="-124" on="0"/>
        <pt x="153" y="-124" on="1"/>
        <pt x="166" y="-124" on="0"/>
        <pt x="186" y="-119" on="0"/>
        <pt x="195" y="-116" on="1"/>
        <pt x="213" y="-184" on="1"/>
        <pt x="178" y="-206" on="0"/>
        <pt x="128" y="-206" on="1"/>
        <pt x="82" y="-206" on="0"/>
        <pt x="21" y="-152" on="0"/>
        <pt x="21" y="-105" on="1"/>
        <pt x="21" y="-67" on="0"/>
        <pt x="52" y="-17" on="0"/>
        <pt x="69" y="0" on="1"/>
        <pt x="69" y="630" on="1"/>
      </contour>
    </TTGlyph>
    <TTGlyph name="Ismall" xMin="63" yMin="0" xMax="196" yMax="477">
      <contour>
        <pt x="196" y="477" on="1"/>
        <pt x="196" y="0" on="1"/>
        <pt x="63" y="0" on="1"/>
        <pt x="63" y="477" on="1"/>
      </contour>
    </TTGlyph>
    <TTGlyph name="Itilde" xMin="-16" yMin="0" xMax="287" yMax="816">
      <contour>
        <pt x="206" y="630" on="1"/>
        <pt x="206" y="0" on="1"/>
        <pt x="69" y="0" on="1"/>
        <pt x="69" y="630" on="1"/>
      </contour>
      <contour>
        <pt x="-16" y="695" on="1"/>
        <pt x="-16" y="745" on="0"/>
        <pt x="30" y="813" on="0"/>
        <pt x="75" y="813" on="1"/>
        <pt x="93" y="813" on="0"/>
        <pt x="123" y="802" on="0"/>
        <pt x="150" y="789" on="0"/>
        <pt x="176" y="778" on="0"/>
        <pt x="190" y="778" on="1"/>
        <pt x="206" y="778" on="0"/>
        <pt x="221" y="799" on="0"/>
        <pt x="222" y="816" on="1"/>
        <pt x="287" y="816" on="1"/>
        <pt x="287" y="765" on="0"/>
        <pt x="241" y="700" on="0"/>
        <pt x="200" y="700" on="1"/>
        <pt x="181" y="700" on="0"/>
        <pt x="147" y="711" on="0"/>
        <pt x="117" y="723" on="0"/>
        <pt x="91" y="734" on="0"/>
        <pt x="81" y="734" on="1"/>
        <pt x="64" y="734" on="0"/>
        <pt x="50" y="712" on="0"/>
        <pt x="49" y="695" on="1"/>
      </contour>
    </TTGlyph>
    <TTGlyph name="J" xMin="-19" yMin="-170" xMax="223" yMax="630">
      <contour>
        <pt x="223" y="630" on="1"/>
        <pt x="223" y="115" on="1"/>
        <pt x="223" y="76" on="0"/>
        <pt x="219" y="13" on="0"/>
        <pt x="207" y="-39" on="0"/>
        <pt x="186" y="-81" on="0"/>
        <pt x="170" y="-100" on="1"/>
        <pt x="137" y="-139" on="0"/>
        <pt x="37" y="-170" on="0"/>
        <pt x="-19" y="-170" on="1"/>
        <pt x="-19" y="-65" on="1"/>
        <pt x="7" y="-65" on="0"/>
        <pt x="45" y="-49" on="0"/>
        <pt x="57" y="-37" on="1"/>
        <pt x="75" y="-21" on="0"/>
        <pt x="86" y="31" on="0"/>
        <pt x="86" y="63" on="1"/>
        <pt x="86" y="630" on="1"/>
      </contour>
    </TTGlyph>
    <TTGlyph name="Ja.tm" xMin="36" yMin="-286" xMax="815" yMax="512">
      <contour>
        <pt x="251" y="512" on="1"/>
        <pt x="288" y="512" on="0"/>
        <pt x="350" y="492" on="0"/>
        <pt x="399" y="458" on="0"/>
        <pt x="434" y="413" on="0"/>
        <pt x="445" y="387" on="1"/>
        <pt x="457" y="440" on="0"/>
        <pt x="542" y="512" on="0"/>
        <pt x="613" y="512" on="1"/>
        <pt x="654" y="512" on="0"/>
        <pt x="726" y="484" on="0"/>
        <pt x="779" y="432" on="0"/>
        <pt x="809" y="359" on="0"/>
        <pt x="809" y="314" on="1"/>
        <pt x="809" y="258" on="0"/>
        <pt x="767" y="176" on="0"/>
        <pt x="694" y="118" on="0"/>
        <pt x="594" y="80" on="0"/>
        <pt x="536" y="67" on="1"/>
        <pt x="300" y="14" on="1"/>
        <pt x="241" y="0" on="0"/>
        <pt x="175" y="-56" on="0"/>
        <pt x="175" y="-104" on="1"/>
        <pt x="175" y="-142" on="0"/>
        <pt x="221" y="-185" on="0"/>
        <pt x="254" y="-185" on="1"/>
        <pt x="287" y="-185" on="0"/>
        <pt x="340" y="-154" on="0"/>
        <pt x="372" y="-121" on="1"/>
        <pt x="432" y="-59" on="1"/>
        <pt x="477" y="-12" on="0"/>
        <pt x="576" y="49" on="0"/>
        <pt x="639" y="49" on="1"/>
        <pt x="678" y="49" on="0"/>
        <pt x="743" y="24" on="0"/>
        <pt x="790" y="-21" on="0"/>
        <pt x="815" y="-84" on="0"/>
        <pt x="815" y="-122" on="1"/>
        <pt x="815" y="-160" on="0"/>
        <pt x="787" y="-220" on="0"/>
        <pt x="739" y="-263" on="0"/>
        <pt x="674" y="-286" on="0"/>
        <pt x="637" y="-286" on="1"/>
        <pt x="591" y="-286" on="0"/>
        <pt x="523" y="-249" on="0"/>
        <pt x="503" y="-226" on="1"/>
        <pt x="567" y="-157" on="1"/>
        <pt x="577" y="-167" on="0"/>
        <pt x="609" y="-188" on="0"/>
        <pt x="631" y="-188" on="1"/>
        <pt x="660" y="-188" on="0"/>
        <pt x="695" y="-150" on="0"/>
        <pt x="695" y="-119" on="1"/>
        <pt x="695" y="-87" on="0"/>
        <pt x="658" y="-51" on="0"/>
        <pt x="628" y="-51" on="1"/>
        <pt x="601" y="-51" on="0"/>
        <pt x="553" y="-85" on="0"/>
        <pt x="518" y="-123" on="1"/>
        <pt x="456" y="-193" on="1"/>
        <pt x="416" y="-238" on="0"/>
        <pt x="319" y="-286" on="0"/>
        <pt x="251" y="-286" on="1"/>
        <pt x="211" y="-286" on="0"/>
        <pt x="139" y="-261" on="0"/>
        <pt x="85" y="-215" on="0"/>
        <pt x="53" y="-148" on="0"/>
        <pt x="53" y="-106" on="1"/>
        <pt x="53" y="-56" on="0"/>
        <pt x="86" y="17" on="0"/>
        <pt x="146" y="68" on="0"/>
        <pt x="231" y="103" on="0"/>
        <pt x="284" y="115" on="1"/>
        <pt x="530" y="173" on="1"/>
        <pt x="606" y="190" on="0"/>
        <pt x="686" y="259" on="0"/>
        <pt x="686" y="315" on="1"/>
        <pt x="686" y="357" on="0"/>
        <pt x="638" y="411" on="0"/>
        <pt x="597" y="411" on="1"/>
        <pt x="556" y="411" on="0"/>
        <pt x="507" y="351" on="0"/>
        <pt x="507" y="293" on="1"/>
        <pt x="507" y="213" on="1"/>
        <pt x="386" y="213" on="1"/>
        <pt x="386" y="276" on="1"/>
        <pt x="386" y="340" on="0"/>
        <pt x="313" y="419" on="0"/>
        <pt x="247" y="419" on="1"/>
        <pt x="211" y="419" on="0"/>
        <pt x="149" y="385" on="0"/>
        <pt x="139" y="350" on="1"/>
        <pt x="153" y="363" on="0"/>
        <pt x="190" y="378" on="0"/>
        <pt x="211" y="378" on="1"/>
        <pt x="235" y="378" on="0"/>
        <pt x="279" y="362" on="0"/>
        <pt x="312" y="332" on="0"/>
        <pt x="332" y="288" on="0"/>
        <pt x="332" y="260" on="1"/>
        <pt x="332" y="229" on="0"/>
        <pt x="309" y="180" on="0"/>
        <pt x="269" y="147" on="0"/>
        <pt x="217" y="130" on="0"/>
        <pt x="188" y="130" on="1"/>
        <pt x="156" y="130" on="0"/>
        <pt x="101" y="153" on="0"/>
        <pt x="60" y="197" on="0"/>
        <pt x="36" y="261" on="0"/>
        <pt x="36" y="301" on="1"/>
        <pt x="36" y="350" on="0"/>
        <pt x="68" y="428" on="0"/>
        <pt x="126" y="483" on="0"/>
        <pt x="204" y="512" on="0"/>
      </contour>
      <contour>
        <pt x="187" y="308" on="1"/>
        <pt x="156" y="308" on="0"/>
        <pt x="137" y="274" on="1"/>
        <pt x="139" y="243" on="0"/>
        <pt x="167" y="212" on="0"/>
        <pt x="189" y="212" on="1"/>
        <pt x="209" y="212" on="0"/>
        <pt x="235" y="238" on="0"/>
        <pt x="235" y="259" on="1"/>
        <pt x="235" y="282" on="0"/>
        <pt x="208" y="308" on="0"/>
      </contour>
    </TTGlyph>
    <TTGlyph name="JaAlt.tm" xMin="39" yMin="-20" xMax="662" yMax="517">
      <contour>
        <pt x="212" y="517" on="1"/>
        <pt x="271" y="517" on="0"/>
        <pt x="345" y="461" on="0"/>
        <pt x="361" y="420" on="1"/>
        <pt x="373" y="460" on="0"/>
        <pt x="444" y="517" on="0"/>
        <pt x="504" y="517" on="1"/>
        <pt x="538" y="517" on="0"/>
        <pt x="595" y="496" on="0"/>
        <pt x="636" y="457" on="0"/>
        <pt x="658" y="404" on="0"/>
        <pt x="658" y="371" on="1"/>
        <pt x="658" y="315" on="0"/>
        <pt x="603" y="238" on="0"/>
        <pt x="561" y="221" on="1"/>
        <pt x="607" y="213" on="0"/>
        <pt x="662" y="154" on="0"/>
        <pt x="662" y="107" on="1"/>
        <pt x="662" y="48" on="0"/>
        <pt x="580" y="-20" on="0"/>
        <pt x="510" y="-20" on="1"/>
        <pt x="473" y="-20" on="0"/>
        <pt x="412" y="10" on="0"/>
        <pt x="392" y="36" on="1"/>
        <pt x="447" y="94" on="1"/>
        <pt x="459" y="80" on="0"/>
        <pt x="489" y="62" on="0"/>
        <pt x="509" y="62" on="1"/>
        <pt x="534" y="62" on="0"/>
        <pt x="564" y="92" on="0"/>
        <pt x="564" y="118" on="1"/>
        <pt x="564" y="144" on="0"/>
        <pt x="533" y="174" on="0"/>
        <pt x="507" y="174" on="1"/>
        <pt x="487" y="174" on="0"/>
        <pt x="450" y="152" on="0"/>
        <pt x="426" y="129" on="1"/>
        <pt x="354" y="60" on="1"/>
        <pt x="322" y="30" on="0"/>
        <pt x="241" y="-20" on="0"/>
        <pt x="185" y="-20" on="1"/>
        <pt x="123" y="-20" on="0"/>
        <pt x="46" y="43" on="0"/>
        <pt x="46" y="94" on="1"/>
        <pt x="46" y="150" on="0"/>
        <pt x="117" y="211" on="0"/>
        <pt x="186" y="218" on="1"/>
        <pt x="409" y="240" on="1"/>
        <pt x="484" y="248" on="0"/>
        <pt x="554" y="309" on="0"/>
        <pt x="554" y="353" on="1"/>
        <pt x="554" y="389" on="0"/>
        <pt x="518" y="431" on="0"/>
        <pt x="486" y="431" on="1"/>
        <pt x="451" y="431" on="0"/>
        <pt x="413" y="384" on="0"/>
        <pt x="413" y="342" on="1"/>
        <pt x="413" y="277" on="1"/>
        <pt x="313" y="277" on="1"/>
        <pt x="313" y="337" on="1"/>
        <pt x="313" y="385" on="0"/>
        <pt x="257" y="443" on="0"/>
        <pt x="208" y="443" on="1"/>
        <pt x="179" y="443" on="0"/>
        <pt x="136" y="421" on="0"/>
        <pt x="125" y="401" on="1"/>
        <pt x="148" y="419" on="0"/>
        <pt x="176" y="419" on="1"/>
        <pt x="215" y="419" on="0"/>
        <pt x="265" y="371" on="0"/>
        <pt x="265" y="329" on="1"/>
        <pt x="265" y="305" on="0"/>
        <pt x="247" y="269" on="0"/>
        <pt x="217" y="244" on="0"/>
        <pt x="177" y="231" on="0"/>
        <pt x="155" y="231" on="1"/>
        <pt x="107" y="231" on="0"/>
        <pt x="39" y="296" on="0"/>
        <pt x="39" y="356" on="1"/>
        <pt x="39" y="393" on="0"/>
        <pt x="65" y="452" on="0"/>
        <pt x="112" y="494" on="0"/>
        <pt x="175" y="517" on="0"/>
      </contour>
      <contour>
        <pt x="325" y="135" on="1"/>
        <pt x="343" y="150" on="0"/>
        <pt x="366" y="167" on="0"/>
        <pt x="377" y="175" on="1"/>
        <pt x="195" y="146" on="1"/>
        <pt x="144" y="137" on="0"/>
        <pt x="144" y="98" on="1"/>
        <pt x="144" y="80" on="0"/>
        <pt x="169" y="59" on="0"/>
        <pt x="191" y="59" on="1"/>
        <pt x="213" y="59" on="0"/>
        <pt x="255" y="78" on="0"/>
        <pt x="275" y="95" on="1"/>
      </contour>
      <contour>
        <pt x="153" y="364" on="1"/>
        <pt x="142" y="364" on="0"/>
        <pt x="124" y="352" on="0"/>
        <pt x="118" y="342" on="1"/>
        <pt x="118" y="320" on="0"/>
        <pt x="139" y="295" on="0"/>
        <pt x="156" y="295" on="1"/>
        <pt x="170" y="295" on="0"/>
        <pt x="188" y="314" on="0"/>
        <pt x="188" y="329" on="1"/>
        <pt x="188" y="346" on="0"/>
        <pt x="169" y="364" on="0"/>
      </contour>
    </TTGlyph>
    <TTGlyph name="JaAltMatraI.tm" xMin="39" yMin="-20" xMax="874" yMax="752">
      <contour>
        <pt x="664" y="752" on="1"/>
        <pt x="711" y="752" on="0"/>
        <pt x="789" y="723" on="0"/>
        <pt x="844" y="669" on="0"/>
        <pt x="874" y="591" on="0"/>
        <pt x="874" y="542" on="1"/>
        <pt x="874" y="0" on="1"/>
        <pt x="752" y="0" on="1"/>
        <pt x="752" y="537" on="1"/>
        <pt x="752" y="592" on="0"/>
        <pt x="704" y="651" on="0"/>
        <pt x="661" y="651" on="1"/>
        <pt x="623" y="651" on="0"/>
        <pt x="578" y="604" on="0"/>
        <pt x="578" y="566" on="1"/>
        <pt x="578" y="533" on="0"/>
        <pt x="610" y="476" on="0"/>
        <pt x="634" y="441" on="1"/>
        <pt x="644" y="427" on="0"/>
        <pt x="658" y="385" on="0"/>
        <pt x="658" y="362" on="1"/>
        <pt x="658" y="311" on="0"/>
        <pt x="603" y="237" on="0"/>
        <pt x="561" y="221" on="1"/>
        <pt x="607" y="212" on="0"/>
        <pt x="662" y="154" on="0"/>
        <pt x="662" y="107" on="1"/>
        <pt x="662" y="48" on="0"/>
        <pt x="580" y="-20" on="0"/>
        <pt x="510" y="-20" on="1"/>
        <pt x="473" y="-20" on="0"/>
        <pt x="412" y="10" on="0"/>
        <pt x="392" y="36" on="1"/>
        <pt x="447" y="94" on="1"/>
        <pt x="459" y="80" on="0"/>
        <pt x="489" y="62" on="0"/>
        <pt x="509" y="62" on="1"/>
        <pt x="534" y="62" on="0"/>
        <pt x="564" y="92" on="0"/>
        <pt x="564" y="118" on="1"/>
        <pt x="564" y="144" on="0"/>
        <pt x="533" y="174" on="0"/>
        <pt x="507" y="174" on="1"/>
        <pt x="487" y="174" on="0"/>
        <pt x="450" y="152" on="0"/>
        <pt x="426" y="129" on="1"/>
        <pt x="354" y="60" on="1"/>
        <pt x="322" y="30" on="0"/>
        <pt x="241" y="-20" on="0"/>
        <pt x="185" y="-20" on="1"/>
        <pt x="123" y="-20" on="0"/>
        <pt x="46" y="43" on="0"/>
        <pt x="46" y="94" on="1"/>
        <pt x="46" y="150" on="0"/>
        <pt x="117" y="211" on="0"/>
        <pt x="186" y="218" on="1"/>
        <pt x="409" y="240" on="1"/>
        <pt x="484" y="248" on="0"/>
        <pt x="554" y="309" on="0"/>
        <pt x="554" y="352" on="1"/>
        <pt x="554" y="388" on="0"/>
        <pt x="518" y="431" on="0"/>
        <pt x="486" y="431" on="1"/>
        <pt x="451" y="431" on="0"/>
        <pt x="413" y="384" on="0"/>
        <pt x="413" y="342" on="1"/>
        <pt x="413" y="277" on="1"/>
        <pt x="313" y="277" on="1"/>
        <pt x="313" y="337" on="1"/>
        <pt x="313" y="385" on="0"/>
        <pt x="257" y="443" on="0"/>
        <pt x="208" y="443" on="1"/>
        <pt x="179" y="443" on="0"/>
        <pt x="136" y="421" on="0"/>
        <pt x="125" y="401" on="1"/>
        <pt x="148" y="419" on="0"/>
        <pt x="176" y="419" on="1"/>
        <pt x="215" y="419" on="0"/>
        <pt x="265" y="371" on="0"/>
        <pt x="265" y="329" on="1"/>
        <pt x="265" y="305" on="0"/>
        <pt x="247" y="269" on="0"/>
        <pt x="217" y="244" on="0"/>
        <pt x="177" y="231" on="0"/>
        <pt x="155" y="231" on="1"/>
        <pt x="107" y="231" on="0"/>
        <pt x="39" y="296" on="0"/>
        <pt x="39" y="356" on="1"/>
        <pt x="39" y="393" on="0"/>
        <pt x="65" y="452" on="0"/>
        <pt x="112" y="494" on="0"/>
        <pt x="175" y="517" on="0"/>
        <pt x="212" y="517" on="1"/>
        <pt x="271" y="517" on="0"/>
        <pt x="345" y="461" on="0"/>
        <pt x="361" y="420" on="1"/>
        <pt x="372" y="452" on="0"/>
        <pt x="431" y="502" on="0"/>
        <pt x="480" y="507" on="1"/>
        <pt x="461" y="542" on="0"/>
        <pt x="461" y="582" on="1"/>
        <pt x="461" y="619" on="0"/>
        <pt x="490" y="682" on="0"/>
        <pt x="542" y="727" on="0"/>
        <pt x="617" y="752" on="0"/>
      </contour>
      <contour>
        <pt x="325" y="135" on="1"/>
        <pt x="343" y="150" on="0"/>
        <pt x="366" y="167" on="0"/>
        <pt x="377" y="175" on="1"/>
        <pt x="195" y="146" on="1"/>
        <pt x="144" y="137" on="0"/>
        <pt x="144" y="98" on="1"/>
        <pt x="144" y="80" on="0"/>
        <pt x="169" y="59" on="0"/>
        <pt x="191" y="59" on="1"/>
        <pt x="213" y="59" on="0"/>
        <pt x="255" y="78" on="0"/>
        <pt x="275" y="95" on="1"/>
      </contour>
      <contour>
        <pt x="153" y="364" on="1"/>
        <pt x="142" y="364" on="0"/>
        <pt x="124" y="352" on="0"/>
        <pt x="118" y="342" on="1"/>
        <pt x="118" y="320" on="0"/>
        <pt x="139" y="295" on="0"/>
        <pt x="156" y="295" on="1"/>
        <pt x="170" y="295" on="0"/>
        <pt x="188" y="314" on="0"/>
        <pt x="188" y="329" on="1"/>
        <pt x="188" y="346" on="0"/>
        <pt x="169" y="364" on="0"/>
      </contour>
    </TTGlyph>
    <TTGlyph name="JaAltMatraIi.tm" xMin="39" yMin="-20" xMax="816" yMax="798">
      <contour>
        <pt x="640" y="798" on="1"/>
        <pt x="682" y="798" on="0"/>
        <pt x="747" y="778" on="0"/>
        <pt x="792" y="742" on="0"/>
        <pt x="816" y="694" on="0"/>
        <pt x="816" y="667" on="1"/>
        <pt x="816" y="614" on="0"/>
        <pt x="745" y="550" on="0"/>
        <pt x="690" y="550" on="1"/>
        <pt x="636" y="550" on="0"/>
        <pt x="572" y="612" on="0"/>
        <pt x="572" y="657" on="1"/>
        <pt x="572" y="695" on="0"/>
        <pt x="596" y="721" on="1"/>
        <pt x="566" y="712" on="0"/>
        <pt x="525" y="655" on="0"/>
        <pt x="525" y="610" on="1"/>
        <pt x="525" y="566" on="0"/>
        <pt x="568" y="504" on="0"/>
        <pt x="600" y="475" on="1"/>
        <pt x="604" y="472" on="1"/>
        <pt x="629" y="450" on="0"/>
        <pt x="658" y="397" on="0"/>
        <pt x="658" y="362" on="1"/>
        <pt x="658" y="311" on="0"/>
        <pt x="603" y="237" on="0"/>
        <pt x="561" y="221" on="1"/>
        <pt x="607" y="212" on="0"/>
        <pt x="662" y="154" on="0"/>
        <pt x="662" y="107" on="1"/>
        <pt x="662" y="48" on="0"/>
        <pt x="580" y="-20" on="0"/>
        <pt x="510" y="-20" on="1"/>
        <pt x="473" y="-20" on="0"/>
        <pt x="412" y="10" on="0"/>
        <pt x="392" y="36" on="1"/>
        <pt x="447" y="94" on="1"/>
        <pt x="459" y="80" on="0"/>
        <pt x="489" y="62" on="0"/>
        <pt x="509" y="62" on="1"/>
        <pt x="534" y="62" on="0"/>
        <pt x="564" y="92" on="0"/>
        <pt x="564" y="118" on="1"/>
        <pt x="564" y="144" on="0"/>
        <pt x="533" y="174" on="0"/>
        <pt x="507" y="174" on="1"/>
        <pt x="487" y="174" on="0"/>
        <pt x="450" y="152" on="0"/>
        <pt x="426" y="129" on="1"/>
        <pt x="354" y="60" on="1"/>
        <pt x="322" y="30" on="0"/>
        <pt x="241" y="-20" on="0"/>
        <pt x="185" y="-20" on="1"/>
        <pt x="123" y="-20" on="0"/>
        <pt x="46" y="43" on="0"/>
        <pt x="46" y="94" on="1"/>
        <pt x="46" y="150" on="0"/>
        <pt x="117" y="211" on="0"/>
        <pt x="186" y="218" on="1"/>
        <pt x="409" y="240" on="1"/>
        <pt x="484" y="248" on="0"/>
        <pt x="554" y="309" on="0"/>
        <pt x="554" y="352" on="1"/>
        <pt x="554" y="388" on="0"/>
        <pt x="518" y="431" on="0"/>
        <pt x="486" y="431" on="1"/>
        <pt x="451" y="431" on="0"/>
        <pt x="413" y="384" on="0"/>
        <pt x="413" y="342" on="1"/>
        <pt x="413" y="277" on="1"/>
        <pt x="313" y="277" on="1"/>
        <pt x="313" y="337" on="1"/>
        <pt x="313" y="385" on="0"/>
        <pt x="257" y="443" on="0"/>
        <pt x="208" y="443" on="1"/>
        <pt x="179" y="443" on="0"/>
        <pt x="136" y="421" on="0"/>
        <pt x="125" y="401" on="1"/>
        <pt x="148" y="419" on="0"/>
        <pt x="176" y="419" on="1"/>
        <pt x="215" y="419" on="0"/>
        <pt x="265" y="371" on="0"/>
        <pt x="265" y="329" on="1"/>
        <pt x="265" y="305" on="0"/>
        <pt x="247" y="269" on="0"/>
        <pt x="217" y="244" on="0"/>
        <pt x="177" y="231" on="0"/>
        <pt x="155" y="231" on="1"/>
        <pt x="107" y="231" on="0"/>
        <pt x="39" y="296" on="0"/>
        <pt x="39" y="356" on="1"/>
        <pt x="39" y="393" on="0"/>
        <pt x="65" y="452" on="0"/>
        <pt x="112" y="494" on="0"/>
        <pt x="175" y="517" on="0"/>
        <pt x="212" y="517" on="1"/>
        <pt x="271" y="517" on="0"/>
        <pt x="345" y="461" on="0"/>
        <pt x="361" y="420" on="1"/>
        <pt x="370" y="447" on="0"/>
        <pt x="416" y="491" on="0"/>
        <pt x="452" y="501" on="1"/>
        <pt x="435" y="523" on="0"/>
        <pt x="416" y="580" on="0"/>
        <pt x="416" y="609" on="1"/>
        <pt x="416" y="653" on="0"/>
        <pt x="450" y="723" on="0"/>
        <pt x="510" y="772" on="0"/>
        <pt x="592" y="798" on="0"/>
      </contour>
      <contour>
        <pt x="325" y="135" on="1"/>
        <pt x="343" y="150" on="0"/>
        <pt x="366" y="167" on="0"/>
        <pt x="377" y="175" on="1"/>
        <pt x="195" y="146" on="1"/>
        <pt x="144" y="137" on="0"/>
        <pt x="144" y="98" on="1"/>
        <pt x="144" y="80" on="0"/>
        <pt x="169" y="59" on="0"/>
        <pt x="191" y="59" on="1"/>
        <pt x="213" y="59" on="0"/>
        <pt x="255" y="78" on="0"/>
        <pt x="275" y="95" on="1"/>
      </contour>
      <contour>
        <pt x="731" y="669" on="1"/>
        <pt x="731" y="690" on="0"/>
        <pt x="703" y="716" on="0"/>
        <pt x="682" y="719" on="1"/>
        <pt x="668" y="712" on="0"/>
        <pt x="652" y="687" on="0"/>
        <pt x="652" y="670" on="1"/>
        <pt x="652" y="651" on="0"/>
        <pt x="675" y="628" on="0"/>
        <pt x="693" y="628" on="1"/>
        <pt x="710" y="628" on="0"/>
        <pt x="731" y="650" on="0"/>
      </contour>
      <contour>
        <pt x="153" y="364" on="1"/>
        <pt x="142" y="364" on="0"/>
        <pt x="124" y="352" on="0"/>
        <pt x="118" y="342" on="1"/>
        <pt x="118" y="320" on="0"/>
        <pt x="139" y="295" on="0"/>
        <pt x="156" y="295" on="1"/>
        <pt x="170" y="295" on="0"/>
        <pt x="188" y="314" on="0"/>
        <pt x="188" y="329" on="1"/>
        <pt x="188" y="346" on="0"/>
        <pt x="169" y="364" on="0"/>
      </contour>
    </TTGlyph>
    <TTGlyph name="JaAltMatraU.tm" xMin="39" yMin="-20" xMax="1030" yMax="517">
      <contour>
        <pt x="212" y="517" on="1"/>
        <pt x="271" y="517" on="0"/>
        <pt x="345" y="461" on="0"/>
        <pt x="361" y="420" on="1"/>
        <pt x="373" y="455" on="0"/>
        <pt x="444" y="503" on="0"/>
        <pt x="504" y="503" on="1"/>
        <pt x="838" y="503" on="1"/>
        <pt x="929" y="503" on="0"/>
        <pt x="1030" y="427" on="0"/>
        <pt x="1030" y="361" on="1"/>
        <pt x="1030" y="304" on="0"/>
        <pt x="952" y="231" on="0"/>
        <pt x="887" y="231" on="1"/>
        <pt x="824" y="231" on="0"/>
        <pt x="747" y="298" on="0"/>
        <pt x="747" y="352" on="1"/>
        <pt x="747" y="391" on="0"/>
        <pt x="771" y="420" on="1"/>
        <pt x="640" y="420" on="1"/>
        <pt x="648" y="405" on="0"/>
        <pt x="658" y="372" on="0"/>
        <pt x="658" y="354" on="1"/>
        <pt x="658" y="305" on="0"/>
        <pt x="604" y="236" on="0"/>
        <pt x="562" y="221" on="1"/>
        <pt x="607" y="212" on="0"/>
        <pt x="662" y="154" on="0"/>
        <pt x="662" y="107" on="1"/>
        <pt x="662" y="48" on="0"/>
        <pt x="580" y="-20" on="0"/>
        <pt x="510" y="-20" on="1"/>
        <pt x="473" y="-20" on="0"/>
        <pt x="412" y="10" on="0"/>
        <pt x="392" y="36" on="1"/>
        <pt x="447" y="94" on="1"/>
        <pt x="459" y="80" on="0"/>
        <pt x="489" y="62" on="0"/>
        <pt x="509" y="62" on="1"/>
        <pt x="534" y="62" on="0"/>
        <pt x="564" y="92" on="0"/>
        <pt x="564" y="118" on="1"/>
        <pt x="564" y="144" on="0"/>
        <pt x="533" y="174" on="0"/>
        <pt x="507" y="174" on="1"/>
        <pt x="487" y="174" on="0"/>
        <pt x="450" y="152" on="0"/>
        <pt x="426" y="129" on="1"/>
        <pt x="354" y="60" on="1"/>
        <pt x="322" y="30" on="0"/>
        <pt x="241" y="-20" on="0"/>
        <pt x="185" y="-20" on="1"/>
        <pt x="123" y="-20" on="0"/>
        <pt x="46" y="43" on="0"/>
        <pt x="46" y="94" on="1"/>
        <pt x="46" y="150" on="0"/>
        <pt x="117" y="211" on="0"/>
        <pt x="186" y="218" on="1"/>
        <pt x="409" y="240" on="1"/>
        <pt x="485" y="248" on="0"/>
        <pt x="555" y="309" on="0"/>
        <pt x="555" y="352" on="1"/>
        <pt x="555" y="388" on="0"/>
        <pt x="518" y="430" on="0"/>
        <pt x="486" y="430" on="1"/>
        <pt x="451" y="430" on="0"/>
        <pt x="413" y="384" on="0"/>
        <pt x="413" y="342" on="1"/>
        <pt x="413" y="277" on="1"/>
        <pt x="313" y="277" on="1"/>
        <pt x="313" y="337" on="1"/>
        <pt x="313" y="385" on="0"/>
        <pt x="257" y="443" on="0"/>
        <pt x="208" y="443" on="1"/>
        <pt x="179" y="443" on="0"/>
        <pt x="136" y="421" on="0"/>
        <pt x="125" y="401" on="1"/>
        <pt x="148" y="419" on="0"/>
        <pt x="176" y="419" on="1"/>
        <pt x="215" y="419" on="0"/>
        <pt x="265" y="371" on="0"/>
        <pt x="265" y="329" on="1"/>
        <pt x="265" y="305" on="0"/>
        <pt x="247" y="269" on="0"/>
        <pt x="217" y="244" on="0"/>
        <pt x="177" y="231" on="0"/>
        <pt x="155" y="231" on="1"/>
        <pt x="107" y="231" on="0"/>
        <pt x="39" y="296" on="0"/>
        <pt x="39" y="356" on="1"/>
        <pt x="39" y="393" on="0"/>
        <pt x="65" y="452" on="0"/>
        <pt x="112" y="494" on="0"/>
        <pt x="175" y="517" on="0"/>
      </contour>
      <contour>
        <pt x="325" y="135" on="1"/>
        <pt x="343" y="150" on="0"/>
        <pt x="366" y="167" on="0"/>
        <pt x="377" y="175" on="1"/>
        <pt x="195" y="146" on="1"/>
        <pt x="144" y="137" on="0"/>
        <pt x="144" y="98" on="1"/>
        <pt x="144" y="80" on="0"/>
        <pt x="169" y="59" on="0"/>
        <pt x="191" y="59" on="1"/>
        <pt x="213" y="59" on="0"/>
        <pt x="255" y="78" on="0"/>
        <pt x="275" y="95" on="1"/>
      </contour>
      <contour>
        <pt x="871" y="417" on="1"/>
        <pt x="857" y="408" on="0"/>
        <pt x="841" y="377" on="0"/>
        <pt x="841" y="360" on="1"/>
        <pt x="841" y="339" on="0"/>
        <pt x="867" y="314" on="0"/>
        <pt x="889" y="314" on="1"/>
        <pt x="909" y="314" on="0"/>
        <pt x="934" y="339" on="0"/>
        <pt x="934" y="361" on="1"/>
        <pt x="934" y="387" on="0"/>
        <pt x="899" y="416" on="0"/>
        <pt x="873" y="417" on="1"/>
      </contour>
      <contour>
        <pt x="153" y="364" on="1"/>
        <pt x="142" y="364" on="0"/>
        <pt x="124" y="352" on="0"/>
        <pt x="118" y="342" on="1"/>
        <pt x="118" y="320" on="0"/>
        <pt x="139" y="295" on="0"/>
        <pt x="156" y="295" on="1"/>
        <pt x="170" y="295" on="0"/>
        <pt x="188" y="314" on="0"/>
        <pt x="188" y="329" on="1"/>
        <pt x="188" y="346" on="0"/>
        <pt x="169" y="364" on="0"/>
      </contour>
    </TTGlyph>
    <TTGlyph name="JaAltMatraUu.tm" xMin="39" yMin="-20" xMax="1226" yMax="630">
      <contour>
        <pt x="977" y="630" on="1"/>
        <pt x="1033" y="630" on="0"/>
        <pt x="1125" y="596" on="0"/>
        <pt x="1190" y="535" on="0"/>
        <pt x="1226" y="448" on="0"/>
        <pt x="1226" y="395" on="1"/>
        <pt x="1226" y="347" on="0"/>
        <pt x="1199" y="268" on="0"/>
        <pt x="1156" y="205" on="0"/>
        <pt x="1100" y="156" on="0"/>
        <pt x="1070" y="140" on="1"/>
        <pt x="1008" y="219" on="1"/>
        <pt x="1052" y="245" on="0"/>
        <pt x="1113" y="332" on="0"/>
        <pt x="1113" y="395" on="1"/>
        <pt x="1113" y="461" on="0"/>
        <pt x="1040" y="543" on="0"/>
        <pt x="972" y="543" on="1"/>
        <pt x="937" y="543" on="0"/>
        <pt x="879" y="517" on="0"/>
        <pt x="862" y="496" on="1"/>
        <pt x="937" y="493" on="0"/>
        <pt x="1013" y="421" on="0"/>
        <pt x="1013" y="369" on="1"/>
        <pt x="1013" y="343" on="0"/>
        <pt x="993" y="298" on="0"/>
        <pt x="956" y="265" on="0"/>
        <pt x="906" y="246" on="0"/>
        <pt x="876" y="246" on="1"/>
        <pt x="842" y="246" on="0"/>
        <pt x="790" y="268" on="0"/>
        <pt x="754" y="306" on="0"/>
        <pt x="735" y="355" on="0"/>
        <pt x="735" y="381" on="1"/>
        <pt x="735" y="405" on="0"/>
        <pt x="738" y="423" on="1"/>
        <pt x="632" y="423" on="1"/>
        <pt x="651" y="391" on="0"/>
        <pt x="651" y="353" on="1"/>
        <pt x="651" y="305" on="0"/>
        <pt x="598" y="236" on="0"/>
        <pt x="557" y="221" on="1"/>
        <pt x="602" y="212" on="0"/>
        <pt x="656" y="154" on="0"/>
        <pt x="656" y="107" on="1"/>
        <pt x="656" y="48" on="0"/>
        <pt x="575" y="-20" on="0"/>
        <pt x="505" y="-20" on="1"/>
        <pt x="469" y="-20" on="0"/>
        <pt x="409" y="9" on="0"/>
        <pt x="389" y="34" on="1"/>
        <pt x="444" y="93" on="1"/>
        <pt x="456" y="79" on="0"/>
        <pt x="485" y="62" on="0"/>
        <pt x="505" y="62" on="1"/>
        <pt x="528" y="62" on="0"/>
        <pt x="558" y="93" on="0"/>
        <pt x="558" y="119" on="1"/>
        <pt x="558" y="145" on="0"/>
        <pt x="529" y="175" on="0"/>
        <pt x="503" y="175" on="1"/>
        <pt x="483" y="175" on="0"/>
        <pt x="447" y="154" on="0"/>
        <pt x="423" y="130" on="1"/>
        <pt x="352" y="60" on="1"/>
        <pt x="320" y="29" on="0"/>
        <pt x="240" y="-20" on="0"/>
        <pt x="184" y="-20" on="1"/>
        <pt x="122" y="-20" on="0"/>
        <pt x="46" y="43" on="0"/>
        <pt x="46" y="94" on="1"/>
        <pt x="46" y="150" on="0"/>
        <pt x="117" y="211" on="0"/>
        <pt x="186" y="218" on="1"/>
        <pt x="406" y="239" on="1"/>
        <pt x="480" y="246" on="0"/>
        <pt x="548" y="309" on="0"/>
        <pt x="548" y="352" on="1"/>
        <pt x="548" y="388" on="0"/>
        <pt x="513" y="430" on="0"/>
        <pt x="482" y="430" on="1"/>
        <pt x="448" y="430" on="0"/>
        <pt x="411" y="385" on="0"/>
        <pt x="411" y="344" on="1"/>
        <pt x="411" y="277" on="1"/>
        <pt x="311" y="277" on="1"/>
        <pt x="311" y="338" on="1"/>
        <pt x="311" y="386" on="0"/>
        <pt x="255" y="443" on="0"/>
        <pt x="207" y="443" on="1"/>
        <pt x="178" y="443" on="0"/>
        <pt x="135" y="421" on="0"/>
        <pt x="125" y="401" on="1"/>
        <pt x="148" y="419" on="0"/>
        <pt x="176" y="419" on="1"/>
        <pt x="215" y="419" on="0"/>
        <pt x="265" y="371" on="0"/>
        <pt x="265" y="329" on="1"/>
        <pt x="265" y="305" on="0"/>
        <pt x="247" y="269" on="0"/>
        <pt x="217" y="244" on="0"/>
        <pt x="177" y="231" on="0"/>
        <pt x="155" y="231" on="1"/>
        <pt x="107" y="231" on="0"/>
        <pt x="39" y="296" on="0"/>
        <pt x="39" y="356" on="1"/>
        <pt x="39" y="393" on="0"/>
        <pt x="65" y="452" on="0"/>
        <pt x="111" y="494" on="0"/>
        <pt x="174" y="517" on="0"/>
        <pt x="211" y="517" on="1"/>
        <pt x="269" y="517" on="0"/>
        <pt x="343" y="461" on="0"/>
        <pt x="359" y="420" on="1"/>
        <pt x="370" y="455" on="0"/>
        <pt x="440" y="503" on="0"/>
        <pt x="499" y="503" on="1"/>
        <pt x="763" y="503" on="1"/>
        <pt x="790" y="558" on="0"/>
        <pt x="903" y="630" on="0"/>
      </contour>
      <contour>
        <pt x="323" y="135" on="1"/>
        <pt x="341" y="150" on="0"/>
        <pt x="364" y="167" on="0"/>
        <pt x="375" y="175" on="1"/>
        <pt x="195" y="146" on="1"/>
        <pt x="143" y="137" on="0"/>
        <pt x="143" y="98" on="1"/>
        <pt x="143" y="79" on="0"/>
        <pt x="169" y="59" on="0"/>
        <pt x="190" y="59" on="1"/>
        <pt x="211" y="59" on="0"/>
        <pt x="253" y="78" on="0"/>
        <pt x="273" y="95" on="1"/>
      </contour>
      <contour>
        <pt x="837" y="418" on="1"/>
        <pt x="832" y="400" on="0"/>
        <pt x="832" y="384" on="1"/>
        <pt x="832" y="360" on="0"/>
        <pt x="856" y="329" on="0"/>
        <pt x="878" y="329" on="1"/>
        <pt x="896" y="329" on="0"/>
        <pt x="917" y="351" on="0"/>
        <pt x="917" y="369" on="1"/>
        <pt x="917" y="393" on="0"/>
        <pt x="881" y="418" on="0"/>
        <pt x="848" y="418" on="1"/>
      </contour>
      <contour>
        <pt x="153" y="364" on="1"/>
        <pt x="142" y="364" on="0"/>
        <pt x="124" y="352" on="0"/>
        <pt x="118" y="342" on="1"/>
        <pt x="118" y="320" on="0"/>
        <pt x="138" y="295" on="0"/>
        <pt x="156" y="295" on="1"/>
        <pt x="170" y="295" on="0"/>
        <pt x="188" y="314" on="0"/>
        <pt x="188" y="329" on="1"/>
        <pt x="188" y="346" on="0"/>
        <pt x="169" y="364" on="0"/>
      </contour>
    </TTGlyph>
    <TTGlyph name="JaAltPulli.tm" xMin="39" yMin="-20" xMax="662" yMax="719">
      <contour>
        <pt x="212" y="517" on="1"/>
        <pt x="271" y="517" on="0"/>
        <pt x="345" y="461" on="0"/>
        <pt x="361" y="420" on="1"/>
        <pt x="373" y="460" on="0"/>
        <pt x="444" y="517" on="0"/>
        <pt x="504" y="517" on="1"/>
        <pt x="538" y="517" on="0"/>
        <pt x="595" y="496" on="0"/>
        <pt x="636" y="457" on="0"/>
        <pt x="658" y="404" on="0"/>
        <pt x="658" y="371" on="1"/>
        <pt x="658" y="315" on="0"/>
        <pt x="603" y="238" on="0"/>
        <pt x="561" y="221" on="1"/>
        <pt x="607" y="213" on="0"/>
        <pt x="662" y="154" on="0"/>
        <pt x="662" y="107" on="1"/>
        <pt x="662" y="48" on="0"/>
        <pt x="580" y="-20" on="0"/>
        <pt x="510" y="-20" on="1"/>
        <pt x="473" y="-20" on="0"/>
        <pt x="412" y="10" on="0"/>
        <pt x="392" y="36" on="1"/>
        <pt x="447" y="94" on="1"/>
        <pt x="459" y="80" on="0"/>
        <pt x="489" y="62" on="0"/>
        <pt x="509" y="62" on="1"/>
        <pt x="534" y="62" on="0"/>
        <pt x="564" y="92" on="0"/>
        <pt x="564" y="118" on="1"/>
        <pt x="564" y="144" on="0"/>
        <pt x="533" y="174" on="0"/>
        <pt x="507" y="174" on="1"/>
        <pt x="487" y="174" on="0"/>
        <pt x="450" y="152" on="0"/>
        <pt x="426" y="129" on="1"/>
        <pt x="354" y="60" on="1"/>
        <pt x="322" y="30" on="0"/>
        <pt x="241" y="-20" on="0"/>
        <pt x="185" y="-20" on="1"/>
        <pt x="123" y="-20" on="0"/>
        <pt x="46" y="43" on="0"/>
        <pt x="46" y="94" on="1"/>
        <pt x="46" y="150" on="0"/>
        <pt x="117" y="211" on="0"/>
        <pt x="186" y="218" on="1"/>
        <pt x="409" y="240" on="1"/>
        <pt x="484" y="248" on="0"/>
        <pt x="554" y="309" on="0"/>
        <pt x="554" y="353" on="1"/>
        <pt x="554" y="389" on="0"/>
        <pt x="518" y="431" on="0"/>
        <pt x="486" y="431" on="1"/>
        <pt x="451" y="431" on="0"/>
        <pt x="413" y="384" on="0"/>
        <pt x="413" y="342" on="1"/>
        <pt x="413" y="277" on="1"/>
        <pt x="313" y="277" on="1"/>
        <pt x="313" y="337" on="1"/>
        <pt x="313" y="385" on="0"/>
        <pt x="257" y="443" on="0"/>
        <pt x="208" y="443" on="1"/>
        <pt x="179" y="443" on="0"/>
        <pt x="136" y="421" on="0"/>
        <pt x="125" y="401" on="1"/>
        <pt x="148" y="419" on="0"/>
        <pt x="176" y="419" on="1"/>
        <pt x="215" y="419" on="0"/>
        <pt x="265" y="371" on="0"/>
        <pt x="265" y="329" on="1"/>
        <pt x="265" y="305" on="0"/>
        <pt x="247" y="269" on="0"/>
        <pt x="217" y="244" on="0"/>
        <pt x="177" y="231" on="0"/>
        <pt x="155" y="231" on="1"/>
        <pt x="107" y="231" on="0"/>
        <pt x="39" y="296" on="0"/>
        <pt x="39" y="356" on="1"/>
        <pt x="39" y="393" on="0"/>
        <pt x="65" y="452" on="0"/>
        <pt x="112" y="494" on="0"/>
        <pt x="175" y="517" on="0"/>
      </contour>
      <contour>
        <pt x="345" y="719" on="1"/>
        <pt x="377" y="719" on="0"/>
        <pt x="417" y="678" on="0"/>
        <pt x="417" y="647" on="1"/>
        <pt x="417" y="616" on="0"/>
        <pt x="378" y="575" on="0"/>
        <pt x="347" y="575" on="1"/>
        <pt x="315" y="575" on="0"/>
        <pt x="275" y="616" on="0"/>
        <pt x="275" y="647" on="1"/>
        <pt x="275" y="678" on="0"/>
        <pt x="315" y="719" on="0"/>
      </contour>
      <contour>
        <pt x="325" y="135" on="1"/>
        <pt x="343" y="150" on="0"/>
        <pt x="366" y="167" on="0"/>
        <pt x="377" y="175" on="1"/>
        <pt x="195" y="146" on="1"/>
        <pt x="144" y="137" on="0"/>
        <pt x="144" y="98" on="1"/>
        <pt x="144" y="80" on="0"/>
        <pt x="169" y="59" on="0"/>
        <pt x="191" y="59" on="1"/>
        <pt x="213" y="59" on="0"/>
        <pt x="255" y="78" on="0"/>
        <pt x="275" y="95" on="1"/>
      </contour>
      <contour>
        <pt x="153" y="364" on="1"/>
        <pt x="142" y="364" on="0"/>
        <pt x="124" y="352" on="0"/>
        <pt x="118" y="342" on="1"/>
        <pt x="118" y="320" on="0"/>
        <pt x="139" y="295" on="0"/>
        <pt x="156" y="295" on="1"/>
        <pt x="170" y="295" on="0"/>
        <pt x="188" y="314" on="0"/>
        <pt x="188" y="329" on="1"/>
        <pt x="188" y="346" on="0"/>
        <pt x="169" y="364" on="0"/>
      </contour>
    </TTGlyph>
    <TTGlyph name="JaMatraI.tm" xMin="36" yMin="-286" xMax="1026" yMax="757">
      <contour>
        <pt x="804" y="757" on="1"/>
        <pt x="907" y="757" on="0"/>
        <pt x="1026" y="646" on="0"/>
        <pt x="1026" y="544" on="1"/>
        <pt x="1026" y="0" on="1"/>
        <pt x="904" y="0" on="1"/>
        <pt x="904" y="539" on="1"/>
        <pt x="904" y="657" on="0"/>
        <pt x="801" y="657" on="1"/>
        <pt x="755" y="657" on="0"/>
        <pt x="707" y="608" on="0"/>
        <pt x="707" y="568" on="1"/>
        <pt x="707" y="536" on="0"/>
        <pt x="739" y="473" on="0"/>
        <pt x="767" y="432" on="1"/>
        <pt x="773" y="424" on="1"/>
        <pt x="788" y="402" on="0"/>
        <pt x="809" y="346" on="0"/>
        <pt x="809" y="314" on="1"/>
        <pt x="809" y="258" on="0"/>
        <pt x="767" y="176" on="0"/>
        <pt x="694" y="118" on="0"/>
        <pt x="594" y="80" on="0"/>
        <pt x="536" y="67" on="1"/>
        <pt x="300" y="14" on="1"/>
        <pt x="241" y="0" on="0"/>
        <pt x="175" y="-56" on="0"/>
        <pt x="175" y="-104" on="1"/>
        <pt x="175" y="-142" on="0"/>
        <pt x="221" y="-185" on="0"/>
        <pt x="254" y="-185" on="1"/>
        <pt x="287" y="-185" on="0"/>
        <pt x="340" y="-154" on="0"/>
        <pt x="372" y="-121" on="1"/>
        <pt x="432" y="-59" on="1"/>
        <pt x="477" y="-12" on="0"/>
        <pt x="576" y="49" on="0"/>
        <pt x="639" y="49" on="1"/>
        <pt x="678" y="49" on="0"/>
        <pt x="743" y="24" on="0"/>
        <pt x="790" y="-21" on="0"/>
        <pt x="815" y="-84" on="0"/>
        <pt x="815" y="-122" on="1"/>
        <pt x="815" y="-160" on="0"/>
        <pt x="788" y="-220" on="0"/>
        <pt x="740" y="-263" on="0"/>
        <pt x="675" y="-286" on="0"/>
        <pt x="638" y="-286" on="1"/>
        <pt x="592" y="-286" on="0"/>
        <pt x="523" y="-249" on="0"/>
        <pt x="503" y="-226" on="1"/>
        <pt x="567" y="-157" on="1"/>
        <pt x="577" y="-167" on="0"/>
        <pt x="609" y="-188" on="0"/>
        <pt x="631" y="-188" on="1"/>
        <pt x="660" y="-188" on="0"/>
        <pt x="695" y="-150" on="0"/>
        <pt x="695" y="-119" on="1"/>
        <pt x="695" y="-87" on="0"/>
        <pt x="658" y="-51" on="0"/>
        <pt x="628" y="-51" on="1"/>
        <pt x="601" y="-51" on="0"/>
        <pt x="553" y="-85" on="0"/>
        <pt x="518" y="-123" on="1"/>
        <pt x="456" y="-193" on="1"/>
        <pt x="416" y="-238" on="0"/>
        <pt x="319" y="-286" on="0"/>
        <pt x="251" y="-286" on="1"/>
        <pt x="211" y="-286" on="0"/>
        <pt x="139" y="-261" on="0"/>
        <pt x="85" y="-215" on="0"/>
        <pt x="53" y="-148" on="0"/>
        <pt x="53" y="-106" on="1"/>
        <pt x="53" y="-56" on="0"/>
        <pt x="86" y="17" on="0"/>
        <pt x="146" y="68" on="0"/>
        <pt x="231" y="103" on="0"/>
        <pt x="284" y="115" on="1"/>
        <pt x="530" y="173" on="1"/>
        <pt x="606" y="190" on="0"/>
        <pt x="686" y="259" on="0"/>
        <pt x="686" y="315" on="1"/>
        <pt x="686" y="357" on="0"/>
        <pt x="638" y="410" on="0"/>
        <pt x="597" y="410" on="1"/>
        <pt x="556" y="410" on="0"/>
        <pt x="507" y="350" on="0"/>
        <pt x="507" y="293" on="1"/>
        <pt x="507" y="213" on="1"/>
        <pt x="386" y="213" on="1"/>
        <pt x="386" y="276" on="1"/>
        <pt x="386" y="340" on="0"/>
        <pt x="313" y="419" on="0"/>
        <pt x="247" y="419" on="1"/>
        <pt x="211" y="419" on="0"/>
        <pt x="149" y="385" on="0"/>
        <pt x="139" y="350" on="1"/>
        <pt x="153" y="363" on="0"/>
        <pt x="190" y="378" on="0"/>
        <pt x="211" y="378" on="1"/>
        <pt x="235" y="378" on="0"/>
        <pt x="279" y="362" on="0"/>
        <pt x="312" y="332" on="0"/>
        <pt x="332" y="288" on="0"/>
        <pt x="332" y="260" on="1"/>
        <pt x="332" y="229" on="0"/>
        <pt x="309" y="180" on="0"/>
        <pt x="269" y="147" on="0"/>
        <pt x="217" y="130" on="0"/>
        <pt x="188" y="130" on="1"/>
        <pt x="156" y="130" on="0"/>
        <pt x="101" y="153" on="0"/>
        <pt x="60" y="197" on="0"/>
        <pt x="36" y="261" on="0"/>
        <pt x="36" y="301" on="1"/>
        <pt x="36" y="350" on="0"/>
        <pt x="68" y="428" on="0"/>
        <pt x="126" y="483" on="0"/>
        <pt x="204" y="512" on="0"/>
        <pt x="251" y="512" on="1"/>
        <pt x="288" y="512" on="0"/>
        <pt x="350" y="492" on="0"/>
        <pt x="399" y="458" on="0"/>
        <pt x="434" y="413" on="0"/>
        <pt x="445" y="387" on="1"/>
        <pt x="456" y="437" on="0"/>
        <pt x="538" y="506" on="0"/>
        <pt x="607" y="508" on="1"/>
        <pt x="588" y="541" on="0"/>
        <pt x="588" y="581" on="1"/>
        <pt x="588" y="618" on="0"/>
        <pt x="618" y="682" on="0"/>
        <pt x="674" y="730" on="0"/>
        <pt x="754" y="757" on="0"/>
      </contour>
      <contour>
        <pt x="187" y="308" on="1"/>
        <pt x="156" y="308" on="0"/>
        <pt x="137" y="274" on="1"/>
        <pt x="139" y="243" on="0"/>
        <pt x="167" y="212" on="0"/>
        <pt x="189" y="212" on="1"/>
        <pt x="209" y="212" on="0"/>
        <pt x="235" y="238" on="0"/>
        <pt x="235" y="259" on="1"/>
        <pt x="235" y="282" on="0"/>
        <pt x="208" y="308" on="0"/>
      </contour>
    </TTGlyph>
</ttFont>
